NotoSerif-Italic.glyphspackage
{
category = Punctuation;
glyphname = parenright;
kernLeft = parenright;
layers = (
{
layerId = UUID0;
shapes = (
{
closed = 1;
nodes = (
(-49,-136,l),
(198,-71,o),
(317,195,o),
(317,438,cs),
(317,577,o),
(265,698,o),
(140,752,c),
(130,706,l),
(200,657,o),
(223,570,o),
(223,485,cs),
(223,347,o),
(172,23,o),
(-39,-91,c)
);
}
);
width = 346;
},
{
layerId = "0748FCBA-26BB-4096-A322-99C7EC440251";
shapes = (
{
closed = 1;
nodes = (
(-44,-138,l),
(239,-72,o),
(375,200,o),
(375,448,cs),
(375,592,o),
(308,717,o),
(147,773,c),
(134,709,l),
(199,662,o),
(221,577,o),
(221,495,cs),
(221,358,o),
(172,38,o),
(-34,-75,c)
);
}
);
width = 400;
},
{
layerId = "EFE4222C-09E4-4728-8E05-7459D7542305";
shapes = (
{
closed = 1;
nodes = (
(-41,-139,l),
(269,-73,o),
(417,204,o),
(417,455,cs),
(417,603,o),
(339,731,o),
(152,788,c),
(137,711,l),
(198,666,o),
(219,582,o),
(219,502,cs),
(219,366,o),
(172,49,o),
(-31,-63,c)
);
}
);
width = 440;
},
{
layerId = "081AFB27-5722-432A-9779-C9794386CEF1";
shapes = (
{
closed = 1;
nodes = (
(-38,-138,l),
(233,-70,o),
(367,220,o),
(367,467,cs),
(367,606,o),
(305,726,o),
(156,780,c),
(140,710,l),
(183,668,o),
(198,592,o),
(198,518,cs),
(198,394,o),
(152,50,o),
(-27,-69,c)
);
}
);
width = 367;
},
{
layerId = "9563C917-11DF-412F-BB09-FC0C1CFFA48C";
shapes = (
{
closed = 1;
nodes = (
(-68,-119,l),
(135,36,o),
(202,271,o),
(202,468,cs),
(202,587,o),
(168,682,o),
(114,738,c),
(109,715,l),
(143,675,o),
(174,575,o),
(174,470,cs),
(174,319,o),
(128,80,o),
(-63,-94,c)
);
}
);
width = 221;
},
{
layerId = "A783126C-D342-49FA-8B69-0453AD03268C";
shapes = (
{
closed = 1;
nodes = (
(-58,-114,l),
(156,-26,o),
(241,227,o),
(241,431,cs),
(241,577,o),
(207,688,o),
(129,744,c),
(123,719,l),
(185,667,o),
(213,549,o),
(213,430,cs),
(213,237,o),
(127,-2,o),
(-52,-89,c)
);
}
);
width = 277;
},
{
layerId = "44BFC83C-08F8-422F-A73E-536514612562";
shapes = (
{
closed = 1;
nodes = (
(-44,-136,l),
(175,-59,o),
(284,224,o),
(284,460,cs),
(284,588,o),
(244,699,o),
(145,749,c),
(135,706,l),
(182,662,o),
(198,564,o),
(198,484,cs),
(198,355,o),
(149,29,o),
(-34,-93,c)
);
}
);
width = 288;
},
{
layerId = "50C02CB6-129D-4BF7-ADB7-784B68302109";
shapes = (
{
closed = 1;
nodes = (
(-41,-137,l),
(208,-65,o),
(331,222,o),
(331,464,cs),
(331,598,o),
(278,714,o),
(151,767,c),
(138,708,l),
(183,665,o),
(198,580,o),
(198,503,cs),
(198,377,o),
(151,41,o),
(-30,-79,c)
);
}
);
width = 333;
}
);
script = "";
subCategory = Parenthesis;
unicode = 41;
}
{
category = Symbol;
glyphname = plus;
layers = (
{
layerId = "EFE4222C-09E4-4728-8E05-7459D7542305";
shapes = (
{
closed = 1;
nodes = (
(324,135,l),
(324,318,l),
(509,318,l),
(509,397,l),
(324,397,l),
(324,580,l),
(244,580,l),
(244,397,l),
(60,397,l),
(60,318,l),
(244,318,l),
(244,135,l)
);
}
);
width = 569;
},
{
layerId = UUID0;
shapes = (
{
closed = 1;
nodes = (
(309,143,l),
(309,328,l),
(494,328,l),
(494,387,l),
(309,387,l),
(309,572,l),
(249,572,l),
(249,387,l),
(65,387,l),
(65,328,l),
(249,328,l),
(249,143,l)
);
}
);
width = 559;
},
{
layerId = "0748FCBA-26BB-4096-A322-99C7EC440251";
shapes = (
{
closed = 1;
nodes = (
(315,143,l),
(315,322,l),
(494,322,l),
(494,393,l),
(315,393,l),
(315,572,l),
(243,572,l),
(243,393,l),
(65,393,l),
(65,322,l),
(243,322,l),
(243,143,l)
);
}
);
width = 559;
},
{
layerId = "081AFB27-5722-432A-9779-C9794386CEF1";
shapes = (
{
closed = 1;
nodes = (
(287,143,l),
(287,321,l),
(427,321,l),
(427,394,l),
(287,394,l),
(287,572,l),
(210,572,l),
(210,394,l),
(70,394,l),
(70,321,l),
(210,321,l),
(210,143,l)
);
}
);
width = 425;
},
{
layerId = "9563C917-11DF-412F-BB09-FC0C1CFFA48C";
shapes = (
{
closed = 1;
nodes = (
(244,143,l),
(244,344,l),
(391,344,l),
(391,372,l),
(244,372,l),
(244,572,l),
(214,572,l),
(214,372,l),
(66,372,l),
(66,344,l),
(214,344,l),
(214,143,l)
);
}
);
width = 425;
},
{
layerId = "A783126C-D342-49FA-8B69-0453AD03268C";
shapes = (
{
closed = 1;
nodes = (
(293,143,l),
(293,343,l),
(494,343,l),
(494,371,l),
(293,371,l),
(293,572,l),
(265,572,l),
(265,371,l),
(65,371,l),
(65,343,l),
(265,343,l),
(265,143,l)
);
}
);
width = 559;
},
{
layerId = "44BFC83C-08F8-422F-A73E-536514612562";
shapes = (
{
closed = 1;
nodes = (
(256,143,l),
(256,329,l),
(397,329,l),
(397,386,l),
(256,386,l),
(256,572,l),
(198,572,l),
(198,386,l),
(58,386,l),
(58,329,l),
(198,329,l),
(198,143,l)
);
}
);
width = 425;
},
{
layerId = "50C02CB6-129D-4BF7-ADB7-784B68302109";
shapes = (
{
closed = 1;
nodes = (
(274,143,l),
(274,324,l),
(414,324,l),
(414,391,l),
(274,391,l),
(274,572,l),
(205,572,l),
(205,391,l),
(65,391,l),
(65,324,l),
(205,324,l),
(205,143,l)
);
}
);
width = 425;
}
);
script = "";
subCategory = Math;
unicode = 43;
}
{
category = Number;
glyphname = three;
layers = (
{
layerId = UUID0;
shapes = (
{
closed = 1;
nodes = (
(315,-10,o),
(466,48,o),
(466,225,cs),
(466,311,o),
(408,366,o),
(316,376,c),
(450,400,o),
(517,488,o),
(517,581,cs),
(517,672,o),
(443,724,o),
(333,724,cs),
(211,724,o),
(113,671,o),
(113,589,cs),
(113,540,o),
(145,525,o),
(187,525,c),
(204,604,o),
(238,674,o),
(329,674,cs),
(388,674,o),
(414,636,o),
(414,583,cs),
(414,470,o),
(331,395,o),
(219,395,cs),
(187,395,l),
(177,344,l),
(220,344,ls),
(309,344,o),
(361,296,o),
(361,214,cs),
(361,102,o),
(287,45,o),
(198,45,cs),
(108,45,o),
(73,108,o),
(73,169,c),
(31,169,o),
(-3,142,o),
(-3,95,cs),
(-3,40,o),
(48,-10,o),
(191,-10,cs)
);
}
);
width = 559;
},
{
layerId = "0748FCBA-26BB-4096-A322-99C7EC440251";
shapes = (
{
closed = 1;
nodes = (
(345,-10,o),
(509,48,o),
(509,225,cs),
(509,311,o),
(451,362,o),
(359,372,c),
(493,396,o),
(560,488,o),
(560,581,cs),
(560,672,o),
(478,724,o),
(355,724,cs),
(219,724,o),
(110,660,o),
(110,578,cs),
(110,529,o),
(159,514,o),
(223,514,c),
(237,593,o),
(264,663,o),
(337,663,cs),
(385,663,o),
(406,627,o),
(406,577,cs),
(406,471,o),
(323,400,o),
(211,400,cs),
(179,400,l),
(169,338,l),
(212,338,l),
(301,338,o),
(353,294,o),
(353,218,cs),
(353,114,o),
(290,61,o),
(223,61,cs),
(145,61,o),
(109,118,o),
(109,196,c),
(40,196,o),
(-1,163,o),
(-1,111,cs),
(-1,55,o),
(54,-10,o),
(210,-10,cs)
);
}
);
width = 559;
},
{
layerId = "EFE4222C-09E4-4728-8E05-7459D7542305";
shapes = (
{
closed = 1;
nodes = (
(369,-10,o),
(542,48,o),
(542,225,cs),
(542,311,o),
(484,359,o),
(392,369,c),
(526,393,o),
(593,488,o),
(593,581,cs),
(593,672,o),
(505,724,o),
(373,724,cs),
(226,724,o),
(109,652,o),
(109,570,cs),
(109,521,o),
(171,506,o),
(251,506,c),
(263,585,o),
(289,655,o),
(348,655,cs),
(394,655,o),
(408,620,o),
(408,573,cs),
(408,472,o),
(325,404,o),
(207,404,cs),
(175,404,l),
(165,334,l),
(208,334,ls),
(303,334,o),
(355,293,o),
(355,221,cs),
(355,123,o),
(294,73,o),
(243,73,cs),
(174,73,o),
(137,125,o),
(137,216,c),
(48,216,o),
(2,178,o),
(2,123,cs),
(2,66,o),
(60,-10,o),
(226,-10,cs)
);
}
);
width = 569;
},
{
layerId = "081AFB27-5722-432A-9779-C9794386CEF1";
shapes = (
{
closed = 1;
nodes = (
(316,-10,o),
(465,50,o),
(465,233,cs),
(465,314,o),
(420,361,o),
(348,371,c),
(462,395,o),
(521,493,o),
(521,586,cs),
(521,674,o),
(450,724,o),
(343,724,cs),
(219,724,o),
(119,654,o),
(119,572,cs),
(119,525,o),
(170,510,o),
(237,510,c),
(250,589,o),
(274,659,o),
(319,659,cs),
(352,659,o),
(363,629,o),
(363,587,cs),
(363,475,o),
(291,402,o),
(191,402,cs),
(165,402,l),
(154,336,l),
(191,336,ls),
(265,336,o),
(305,299,o),
(305,227,cs),
(305,122,o),
(252,67,o),
(212,67,cs),
(157,67,o),
(129,121,o),
(133,206,c),
(55,206,o),
(14,171,o),
(14,113,cs),
(14,57,o),
(60,-10,o),
(195,-10,cs)
);
}
);
width = 505;
},
{
layerId = "9563C917-11DF-412F-BB09-FC0C1CFFA48C";
shapes = (
{
closed = 1;
nodes = (
(239,-10,o),
(335,65,o),
(335,227,cs),
(335,305,o),
(287,361,o),
(242,375,c),
(346,401,o),
(391,487,o),
(391,584,cs),
(391,669,o),
(339,724,o),
(267,724,cs),
(182,724,o),
(116,666,o),
(116,573,cs),
(116,551,o),
(128,540,o),
(140,540,c),
(140,628,o),
(174,699,o),
(265,699,cs),
(321,699,o),
(363,656,o),
(363,584,cs),
(363,459,o),
(287,389,o),
(195,389,cs),
(169,389,l),
(161,364,l),
(192,364,ls),
(260,364,o),
(307,300,o),
(307,227,cs),
(307,87,o),
(225,15,o),
(131,15,cs),
(48,15,o),
(28,65,o),
(28,132,c),
(18,132,o),
(2,124,o),
(2,102,cs),
(2,50,o),
(33,-10,o),
(129,-10,cs)
);
}
);
width = 424;
},
{
layerId = "A783126C-D342-49FA-8B69-0453AD03268C";
shapes = (
{
closed = 1;
nodes = (
(328,-10,o),
(411,70,o),
(411,225,cs),
(411,313,o),
(346,369,o),
(280,375,c),
(402,388,o),
(462,469,o),
(462,571,cs),
(462,662,o),
(394,724,o),
(300,724,cs),
(187,724,o),
(119,647,o),
(119,573,cs),
(119,550,o),
(132,539,o),
(145,539,c),
(145,621,o),
(183,699,o),
(299,699,cs),
(384,699,o),
(434,643,o),
(434,570,cs),
(434,452,o),
(342,389,o),
(229,389,cs),
(197,389,l),
(189,364,l),
(230,364,ls),
(326,364,o),
(383,303,o),
(383,224,cs),
(383,82,o),
(306,15,o),
(189,15,cs),
(82,15,o),
(34,60,o),
(34,135,c),
(17,135,o),
(9,122,o),
(9,108,cs),
(9,48,o),
(62,-10,o),
(187,-10,cs)
);
}
);
width = 511;
},
{
layerId = "44BFC83C-08F8-422F-A73E-536514612562";
shapes = (
{
closed = 1;
nodes = (
(264,-10,o),
(395,51,o),
(395,233,cs),
(395,313,o),
(351,365,o),
(281,374,c),
(393,399,o),
(451,492,o),
(451,587,cs),
(451,674,o),
(390,724,o),
(302,724,cs),
(199,724,o),
(118,661,o),
(118,579,cs),
(118,539,o),
(146,526,o),
(183,526,c),
(200,606,o),
(224,676,o),
(294,676,cs),
(337,676,o),
(359,639,o),
(359,586,cs),
(359,471,o),
(287,395,o),
(193,395,cs),
(167,395,l),
(158,345,l),
(192,345,ls),
(262,345,o),
(301,298,o),
(301,227,cs),
(301,103,o),
(237,43,o),
(168,43,cs),
(98,43,o),
(73,107,o),
(76,166,c),
(35,166,o),
(5,142,o),
(5,95,cs),
(5,42,o),
(45,-10,o),
(159,-10,cs)
);
}
);
width = 461;
},
{
layerId = "50C02CB6-129D-4BF7-ADB7-784B68302109";
shapes = (
{
closed = 1;
nodes = (
(293,-10,o),
(435,50,o),
(435,233,cs),
(435,313,o),
(390,363,o),
(319,372,c),
(432,397,o),
(491,493,o),
(491,587,cs),
(491,674,o),
(424,724,o),
(325,724,cs),
(210,724,o),
(118,657,o),
(118,575,cs),
(118,531,o),
(160,517,o),
(214,517,c),
(228,596,o),
(252,666,o),
(308,666,cs),
(346,666,o),
(361,633,o),
(361,586,cs),
(361,473,o),
(289,399,o),
(192,399,cs),
(166,399,l),
(156,340,l),
(191,340,ls),
(264,340,o),
(303,299,o),
(303,227,cs),
(303,114,o),
(246,57,o),
(193,57,cs),
(131,57,o),
(105,115,o),
(108,189,c),
(46,189,o),
(10,158,o),
(10,105,cs),
(10,50,o),
(54,-10,o),
(179,-10,cs)
);
}
);
width = 486;
}
);
script = "";
subCategory = "Decimal Digit";
unicode = 51;
}
{
category = Number;
glyphname = nine;
layers = (
{
layerId = UUID0;
shapes = (
{
closed = 1;
nodes = (
(431,-10,o),
(520,342,o),
(520,527,cs),
(520,653,o),
(449,724,o),
(337,724,cs),
(194,724,o),
(73,608,o),
(73,441,cs),
(73,344,o),
(134,275,o),
(242,275,cs),
(312,275,o),
(361,308,o),
(395,343,c),
(342,148,o),
(284,39,o),
(183,39,cs),
(120,39,o),
(95,92,o),
(94,138,c),
(57,138,o),
(35,113,o),
(35,80,cs),
(35,36,o),
(67,-10,o),
(175,-10,cs)
);
},
{
closed = 1;
nodes = (
(210,330,o),
(173,367,o),
(173,438,cs),
(173,551,o),
(240,669,o),
(334,669,cs),
(388,669,o),
(427,630,o),
(427,533,cs),
(427,504,o),
(420,450,o),
(411,415,c),
(381,374,o),
(332,331,o),
(267,330,cs)
);
}
);
width = 559;
},
{
layerId = "0748FCBA-26BB-4096-A322-99C7EC440251";
shapes = (
{
closed = 1;
nodes = (
(454,-10,o),
(556,333,o),
(556,527,cs),
(556,653,o),
(480,724,o),
(360,724,cs),
(208,724,o),
(78,608,o),
(78,441,cs),
(78,344,o),
(138,275,o),
(245,275,cs),
(314,275,o),
(362,308,o),
(396,343,c),
(345,156,o),
(289,53,o),
(191,53,cs),
(131,53,o),
(107,111,o),
(106,162,c),
(57,162,o),
(28,137,o),
(28,93,cs),
(28,37,o),
(73,-10,o),
(180,-10,cs)
);
},
{
closed = 1;
nodes = (
(251,347,o),
(222,381,o),
(222,446,cs),
(222,549,o),
(276,657,o),
(351,657,cs),
(394,657,o),
(425,621,o),
(425,533,cs),
(425,506,o),
(418,457,o),
(410,425,c),
(386,387,o),
(348,348,o),
(296,347,cs)
);
}
);
width = 559;
},
{
layerId = "EFE4222C-09E4-4728-8E05-7459D7542305";
shapes = (
{
closed = 1;
nodes = (
(473,-10,o),
(585,326,o),
(585,527,cs),
(585,653,o),
(505,724,o),
(379,724,cs),
(216,724,o),
(77,608,o),
(77,441,cs),
(77,344,o),
(139,275,o),
(249,275,cs),
(316,275,o),
(361,308,o),
(394,343,c),
(345,162,o),
(293,63,o),
(199,63,cs),
(141,63,o),
(118,125,o),
(117,180,c),
(59,180,o),
(25,152,o),
(25,103,cs),
(25,38,o),
(80,-10,o),
(186,-10,cs)
);
},
{
closed = 1;
nodes = (
(271,359,o),
(248,391,o),
(248,452,cs),
(248,548,o),
(292,648,o),
(353,648,cs),
(388,648,o),
(413,614,o),
(413,533,cs),
(413,507,o),
(407,462,o),
(399,432,c),
(380,397,o),
(350,361,o),
(307,360,cs)
);
}
);
width = 569;
},
{
layerId = "081AFB27-5722-432A-9779-C9794386CEF1";
shapes = (
{
closed = 1;
nodes = (
(411,-10,o),
(516,351,o),
(516,539,cs),
(516,657,o),
(454,724,o),
(353,724,cs),
(218,724,o),
(99,603,o),
(99,431,cs),
(99,340,o),
(144,275,o),
(227,275,cs),
(283,275,o),
(323,308,o),
(352,343,c),
(304,159,o),
(256,58,o),
(178,58,cs),
(131,58,o),
(115,118,o),
(116,171,c),
(66,171,o),
(36,142,o),
(36,94,cs),
(36,36,o),
(80,-10,o),
(165,-10,cs)
);
},
{
closed = 1;
nodes = (
(264,353,o),
(249,382,o),
(249,437,cs),
(249,538,o),
(289,653,o),
(338,653,cs),
(363,653,o),
(380,622,o),
(380,551,cs),
(380,513,o),
(373,462,o),
(364,428,c),
(348,392,o),
(324,354,o),
(291,353,cs)
);
}
);
width = 505;
},
{
layerId = "9563C917-11DF-412F-BB09-FC0C1CFFA48C";
shapes = (
{
closed = 1;
nodes = (
(289,-10,o),
(392,252,o),
(392,520,cs),
(392,675,o),
(333,724,o),
(267,724,cs),
(154,724,o),
(85,595,o),
(85,446,cs),
(85,358,o),
(120,280,o),
(209,280,cs),
(269,280,o),
(325,317,o),
(348,342,c),
(317,164,o),
(238,15,o),
(145,15,cs),
(79,15,o),
(67,62,o),
(67,123,c),
(48,123,o),
(41,111,o),
(41,93,cs),
(41,47,o),
(66,-10,o),
(144,-10,cs)
);
},
{
closed = 1;
nodes = (
(144,305,o),
(113,369,o),
(113,447,cs),
(113,583,o),
(174,699,o),
(266,699,cs),
(321,699,o),
(364,649,o),
(364,519,cs),
(364,483,o),
(361,437,o),
(354,379,c),
(321,343,o),
(263,305,o),
(209,305,cs)
);
}
);
width = 424;
},
{
layerId = "A783126C-D342-49FA-8B69-0453AD03268C";
shapes = (
{
closed = 1;
nodes = (
(369,-10,o),
(480,265,o),
(480,512,cs),
(480,645,o),
(408,724,o),
(306,724,cs),
(176,724,o),
(81,628,o),
(81,461,cs),
(81,364,o),
(144,290,o),
(254,290,cs),
(324,290,o),
(399,332,o),
(438,375,c),
(407,160,o),
(302,15,o),
(197,15,cs),
(110,15,o),
(86,52,o),
(86,121,c),
(67,121,o),
(59,109,o),
(59,90,cs),
(59,45,o),
(87,-10,o),
(197,-10,cs)
);
},
{
closed = 1;
nodes = (
(161,315,o),
(109,382,o),
(109,461,cs),
(109,611,o),
(191,699,o),
(306,699,cs),
(386,699,o),
(452,636,o),
(452,512,cs),
(452,492,o),
(451,454,o),
(445,415,c),
(407,370,o),
(336,315,o),
(254,315,cs)
);
}
);
width = 511;
},
{
layerId = "44BFC83C-08F8-422F-A73E-536514612562";
shapes = (
{
closed = 1;
nodes = (
(365,-10,o),
(452,377,o),
(452,548,cs),
(452,661,o),
(396,724,o),
(308,724,cs),
(188,724,o),
(83,602,o),
(83,430,cs),
(83,339,o),
(129,275,o),
(211,275,cs),
(267,275,o),
(308,308,o),
(336,343,c),
(290,163,o),
(238,38,o),
(158,38,cs),
(110,38,o),
(94,94,o),
(96,143,c),
(58,143,o),
(35,112,o),
(35,75,cs),
(35,33,o),
(64,-10,o),
(147,-10,cs)
);
},
{
closed = 1;
nodes = (
(198,327,o),
(172,362,o),
(172,427,cs),
(172,540,o),
(224,673,o),
(302,673,cs),
(341,673,o),
(369,637,o),
(369,550,cs),
(369,512,o),
(361,452,o),
(351,414,c),
(327,372,o),
(288,328,o),
(238,327,cs)
);
}
);
width = 461;
},
{
layerId = "50C02CB6-129D-4BF7-ADB7-784B68302109";
shapes = (
{
closed = 1;
nodes = (
(391.01,-10,o),
(488,362,o),
(488,543,cs),
(488,659,o),
(429,724,o),
(334,724,cs),
(204.99,724,o),
(92,602,o),
(92,431,cs),
(92,340,o),
(137,275,o),
(220,275,cs),
(276,275,o),
(316,308,o),
(345,343,c),
(298,161,o),
(248,49,o),
(169,49,cs),
(122,49,o),
(106,108,o),
(107,159,c),
(63,159,o),
(35,129,o),
(35,86,cs),
(35,35,o),
(73,-10,o),
(157,-10,cs)
);
},
{
closed = 1;
nodes = (
(235,342,o),
(215,373,o),
(215,433,cs),
(215,539,o),
(261,662,o),
(322,662,cs),
(353,662,o),
(375,629,o),
(375,550,cs),
(375,512,o),
(368,458,o),
(358,422,c),
(339,383,o),
(308,343,o),
(268,342,cs)
);
}
);
width = 486;
}
);
script = "";
subCategory = "Decimal Digit";
unicode = 57;
}
{
category = Punctuation;
glyphname = semicolon;
kernLeft = colon;
layers = (
{
layerId = UUID0;
shapes = (
{
closed = 1;
nodes = (
(-8,-146,l),
(116,-121,o),
(173,-45,o),
(173,46,c),
(173,98,o),
(137,128,o),
(95,128,cs),
(61,128,o),
(33,108,o),
(33,69,cs),
(33,16,o),
(98,16,o),
(98,-20,cs),
(98,-60,o),
(63,-89,o),
(-4,-104,c)
);
},
{
closed = 1;
nodes = (
(215,403,o),
(250,428,o),
(250,487,cs),
(250,521,o),
(227,540,o),
(194,540,cs),
(161,540,o),
(122,515,o),
(122,458,cs),
(122,423,o),
(145,403,o),
(178,403,cs)
);
}
);
width = 286;
},
{
layerId = "0748FCBA-26BB-4096-A322-99C7EC440251";
shapes = (
{
closed = 1;
nodes = (
(-11,-151,l),
(135,-123,o),
(209,-40,o),
(209,62,c),
(209,120,o),
(170,153,o),
(122,153,cs),
(82,153,o),
(47,127,o),
(47,84,cs),
(47,26,o),
(103,27,o),
(103,-15,cs),
(103,-54,o),
(68,-82,o),
(0,-98,c)
);
},
{
closed = 1;
nodes = (
(255,379,o),
(300,402,o),
(300,469,c),
(300,518,o),
(265,541,o),
(219,541,cs),
(166,541,o),
(132,505,o),
(132,451,c),
(132,402,o),
(165,379,o),
(213,379,cs)
);
}
);
width = 358;
},
{
layerId = "EFE4222C-09E4-4728-8E05-7459D7542305";
shapes = (
{
closed = 1;
nodes = (
(-13,-155,l),
(149,-124,o),
(235,-36,o),
(235,74,c),
(235,136,o),
(194,171,o),
(142,171,cs),
(97,171,o),
(57,141,o),
(57,95,cs),
(57,33,o),
(106,35,o),
(106,-11,cs),
(106,-50,o),
(71,-77,o),
(3,-94,c)
);
},
{
closed = 1;
nodes = (
(283,361,o),
(336,387,o),
(336,461,c),
(336,516,o),
(296,541,o),
(241,541,cs),
(179,541,o),
(139,501,o),
(139,441,cs),
(139,387,o),
(178,361,o),
(234,361,cs)
);
}
);
width = 411;
},
{
layerId = "081AFB27-5722-432A-9779-C9794386CEF1";
shapes = (
{
closed = 1;
nodes = (
(-17,-153,l),
(123,-123,o),
(199,-34,o),
(199,73,cs),
(199,130,o),
(168,162,o),
(126,162,cs),
(87,162,o),
(52,133,o),
(52,85,cs),
(52,31,o),
(87,30,o),
(87,-10,cs),
(87,-51,o),
(57,-79,o),
(-1,-96,c)
);
},
{
closed = 1;
nodes = (
(252,370,o),
(300,396,o),
(300,469,cs),
(300,518,o),
(267,541,o),
(222,541,cs),
(168,541,o),
(132,501,o),
(132,442,cs),
(132,394,o),
(164,370,o),
(210,370,cs)
);
}
);
width = 346;
},
{
layerId = "9563C917-11DF-412F-BB09-FC0C1CFFA48C";
shapes = (
{
closed = 1;
nodes = (
(-46,-138,l),
(42,-113,o),
(61,-52,o),
(61,15,cs),
(61,51,o),
(47,73,o),
(27,73,cs),
(7,73,o),
(-3,59,o),
(-3,42,cs),
(-3,11,o),
(32,12,o),
(32,-22,cs),
(32,-60,o),
(9,-98,o),
(-47,-117,c)
);
},
{
closed = 1;
nodes = (
(139,464,o),
(155,480,o),
(155,511,cs),
(155,533,o),
(144,542,o),
(130,542,cs),
(111,542,o),
(96,524,o),
(96,496,cs),
(96,474,o),
(106,464,o),
(123,464,cs)
);
}
);
width = 158;
},
{
layerId = "A783126C-D342-49FA-8B69-0453AD03268C";
shapes = (
{
closed = 1;
nodes = (
(-47,-140,l),
(46,-116,o),
(66,-53,o),
(66,15,cs),
(66,51,o),
(52,73,o),
(32,73,cs),
(12,73,o),
(2,59,o),
(2,42,cs),
(2,11,o),
(37,12,o),
(37,-22,cs),
(37,-62,o),
(12,-102,o),
(-50,-120,c)
);
},
{
closed = 1;
nodes = (
(157,463,o),
(174,477,o),
(174,514,cs),
(174,533,o),
(163,541,o),
(150,541,cs),
(131,541,o),
(115,523,o),
(115,492,cs),
(115,472,o),
(125,463,o),
(141,463,cs)
);
}
);
width = 195;
},
{
layerId = "44BFC83C-08F8-422F-A73E-536514612562";
shapes = (
{
closed = 1;
nodes = (
(-13,-146,l),
(95,-121,o),
(148,-46,o),
(148,42,cs),
(148,95,o),
(120,125,o),
(87,125,cs),
(58,125,o),
(32,105,o),
(32,65,cs),
(32,16,o),
(78,14,o),
(78,-19,cs),
(78,-60,o),
(50,-89,o),
(-7,-105,c)
);
},
{
closed = 1;
nodes = (
(199,406,o),
(231,427,o),
(231,485,cs),
(231,522,o),
(209,541,o),
(180,541,cs),
(144,541,o),
(120,508,o),
(120,461,cs),
(120,425,o),
(140,406,o),
(171,406,cs)
);
}
);
width = 244;
},
{
layerId = "50C02CB6-129D-4BF7-ADB7-784B68302109";
shapes = (
{
closed = 1;
nodes = (
(-15,-150,l),
(111,-122,o),
(177,-39,o),
(177,60,cs),
(177,115,o),
(147,146,o),
(109,146,cs),
(74,146,o),
(43,121,o),
(43,76,cs),
(43,24,o),
(83,23,o),
(83,-14,cs),
(83,-55,o),
(54,-83,o),
(-4,-100,c)
);
},
{
closed = 1;
nodes = (
(229,386,o),
(270,409,o),
(270,474,cs),
(270,520,o),
(242,541,o),
(203,541,cs),
(157,541,o),
(126,505,o),
(126,455,cs),
(126,412,o),
(153,386,o),
(192,386,cs)
);
}
);
width = 302;
}
);
script = "";
subCategory = Other;
unicode = 59;
}
{
category = Punctuation;
glyphname = question;
layers = (
{
layerId = UUID0;
shapes = (
{
closed = 1;
nodes = (
(193,201,l),
(248,201,l),
(276,317,l),
(416,368,o),
(522,442,o),
(522,558,cs),
(522,673,o),
(449,724,o),
(333,724,cs),
(206,724,o),
(131,662,o),
(131,592,cs),
(131,554,o),
(156,532,o),
(203,532,c),
(215,608,o),
(243,674,o),
(327,674,cs),
(383,674,o),
(424,635,o),
(424,566,cs),
(424,460,o),
(343,394,o),
(221,349,c)
);
},
{
closed = 1;
nodes = (
(229,-8,o),
(264,17,o),
(264,76,cs),
(264,110,o),
(241,129,o),
(208,129,cs),
(175,129,o),
(136,104,o),
(136,47,cs),
(136,12,o),
(159,-8,o),
(192,-8,cs)
);
}
);
width = 500;
},
{
layerId = "0748FCBA-26BB-4096-A322-99C7EC440251";
shapes = (
{
closed = 1;
nodes = (
(199,228,l),
(265,228,l),
(299,317,l),
(441,368,o),
(548,442,o),
(548,558,c),
(548,673,o),
(465,724,o),
(332,724,cs),
(190,724,o),
(101,666,o),
(101,594,cs),
(101,543,o),
(142,517,o),
(224,517,c),
(233,593,o),
(257,663,o),
(320,663,cs),
(361,663,o),
(392,626,o),
(392,560,cs),
(392,451,o),
(315,395,o),
(197,352,c)
);
},
{
closed = 1;
nodes = (
(249,-8,o),
(294,15,o),
(294,82,cs),
(294,131,o),
(259,154,o),
(213,154,cs),
(160,154,o),
(126,118,o),
(126,64,cs),
(126,15,o),
(159,-8,o),
(207,-8,cs)
);
}
);
width = 535;
},
{
layerId = "EFE4222C-09E4-4728-8E05-7459D7542305";
shapes = (
{
closed = 1;
nodes = (
(195,238,l),
(281,238,l),
(316,317,l),
(460,368,o),
(567,442,o),
(567,558,cs),
(567,673,o),
(477,724,o),
(331,724,cs),
(178,724,o),
(79,669,o),
(79,595,cs),
(79,535,o),
(132,506,o),
(240,506,c),
(246,582,o),
(267,655,o),
(315,655,cs),
(345,655,o),
(369,619,o),
(369,556,cs),
(369,444,o),
(294,396,o),
(179,354,c)
);
},
{
closed = 1;
nodes = (
(263,-8,o),
(316,17,o),
(316,92,cs),
(316,146,o),
(276,172,o),
(221,172,cs),
(159,172,o),
(119,132,o),
(119,72,cs),
(119,17,o),
(158,-8,o),
(214,-8,cs)
);
}
);
width = 561;
},
{
layerId = "081AFB27-5722-432A-9779-C9794386CEF1";
shapes = (
{
closed = 1;
nodes = (
(174,238,l),
(238,238,l),
(274,317,l),
(396,369,o),
(488,445,o),
(488,567,cs),
(488,675,o),
(417,724,o),
(298,724,cs),
(170,724,o),
(83,666,o),
(83,592,cs),
(83,538,o),
(128,512,o),
(219,512,c),
(227,588,o),
(246,659,o),
(282,659,cs),
(303,659,o),
(319,627,o),
(319,571,cs),
(319,451,o),
(255,397,o),
(156,353,c)
);
},
{
closed = 1;
nodes = (
(219,-8,o),
(266,17,o),
(266,90,cs),
(266,139,o),
(234,163,o),
(189,163,cs),
(134,163,o),
(99,123,o),
(99,64,cs),
(99,15,o),
(130,-8,o),
(176,-8,cs)
);
}
);
width = 463;
},
{
layerId = "9563C917-11DF-412F-BB09-FC0C1CFFA48C";
shapes = (
{
closed = 1;
nodes = (
(107,167,l),
(131,167,l),
(165,318,l),
(279,377,o),
(368,447,o),
(368,583,cs),
(368,666,o),
(322,724,o),
(245,724,cs),
(160,724,o),
(109,653,o),
(109,588,cs),
(109,569,o),
(118,552,o),
(129,552,c),
(130,628,o),
(163,699,o),
(243,699,cs),
(303,699,o),
(340,652,o),
(340,581,cs),
(340,456,o),
(251,385,o),
(142,336,c)
);
},
{
closed = 1;
nodes = (
(110,-6,o),
(126,10,o),
(126,41,cs),
(126,63,o),
(115,72,o),
(101,72,cs),
(82,72,o),
(67,54,o),
(67,26,cs),
(67,4,o),
(77,-6,o),
(94,-6,cs)
);
}
);
width = 355;
},
{
layerId = "A783126C-D342-49FA-8B69-0453AD03268C";
shapes = (
{
closed = 1;
nodes = (
(148,166,l),
(172,166,l),
(204,322,l),
(351,381,o),
(441,452,o),
(441,576,cs),
(441,665,o),
(378,724,o),
(287,724,cs),
(167,724,o),
(113,651,o),
(113,579,cs),
(113,563,o),
(119,553,o),
(132,553,c),
(140,633,o),
(176,699,o),
(287,699,cs),
(359,699,o),
(413,651,o),
(413,576,cs),
(413,469,o),
(334,398,o),
(179,339,c)
);
},
{
closed = 1;
nodes = (
(152,-5,o),
(169,9,o),
(169,46,cs),
(169,65,o),
(158,73,o),
(145,73,cs),
(126,73,o),
(110,55,o),
(110,24,cs),
(110,4,o),
(120,-5,o),
(136,-5,cs)
);
}
);
width = 437;
},
{
layerId = "44BFC83C-08F8-422F-A73E-536514612562";
shapes = (
{
closed = 1;
nodes = (
(162,206,l),
(208,206,l),
(237,317,l),
(354,373,o),
(445,449,o),
(445,579,cs),
(445,674,o),
(387,724,o),
(294,724,cs),
(186,724,o),
(119,659,o),
(119,590,cs),
(119,555,o),
(142,534,o),
(186,534,c),
(199,610,o),
(223,675,o),
(286,675,cs),
(325,675,o),
(353,639,o),
(353,576,cs),
(353,465,o),
(284,396,o),
(179,349,c)
);
},
{
closed = 1;
nodes = (
(186,-8,o),
(217,13,o),
(217,71,cs),
(217,108,o),
(196,127,o),
(166,127,cs),
(130,127,o),
(106,95,o),
(106,48,cs),
(106,11,o),
(126,-8,o),
(156,-8,cs)
);
}
);
width = 405;
},
{
layerId = "50C02CB6-129D-4BF7-ADB7-784B68302109";
shapes = (
{
closed = 1;
nodes = (
(169,224,l),
(225,224,l),
(258,317,l),
(378,371,o),
(469,447,o),
(469,572,cs),
(469,674,o),
(403.99,724,o),
(296,724,cs),
(177,724,o),
(99,663,o),
(99,591,cs),
(99,545,o),
(134,522,o),
(205,522,c),
(215,598,o),
(236,666,o),
(284,666,cs),
(313,666,o),
(334,632,o),
(334,573,cs),
(334,457,o),
(267,396,o),
(166,351,c)
);
},
{
closed = 1;
nodes = (
(204,-8,o),
(245,15,o),
(245,80,cs),
(245,126,o),
(217,147,o),
(178,147,cs),
(132,147,o),
(101,111,o),
(101,61,cs),
(101,18,o),
(128,-8,o),
(167,-8,cs)
);
}
);
width = 438;
}
);
script = "";
subCategory = Other;
unicode = 63;
}
{
category = Letter;
glyphname = G;
kernLeft = O;
kernRight = G;
layers = (
{
anchors = (
{
name = bottom;
pos = (310,0);
},
{
name = center;
pos = (375,357);
},
{
name = top;
pos = (470,714);
},
{
name = topright;
pos = (789,714);
}
);
layerId = UUID0;
shapes = (
{
closed = 1;
nodes = (
(422,-10,o),
(489,5,o),
(562,36,c),
(600,216,ls),
(613,279,o),
(648,288,o),
(685,288,cs),
(689,288,l),
(698,330,l),
(432,330,l),
(423,288,l),
(432,288,ls),
(471,288,o),
(504,283,o),
(504,248,cs),
(504,242,o),
(502,228,o),
(500,220,cs),
(467,61,l),
(437,53,o),
(392,47,o),
(354,47,cs),
(216,47,o),
(161,127,o),
(161,242,cs),
(161,468,o),
(291,671,o),
(461,671,cs),
(549,671,o),
(587,615,o),
(587,537,c),
(645,537,o),
(693,564,o),
(693,616,cs),
(693,675,o),
(624,724,o),
(482,724,cs),
(226,724,o),
(52,516,o),
(52,258,cs),
(52,93,o),
(148,-10,o),
(336,-10,cs)
);
}
);
width = 714;
},
{
anchors = (
{
name = bottom;
pos = (341,0);
},
{
name = center;
pos = (414,357);
},
{
name = top;
pos = (505,714);
},
{
name = topright;
pos = (871,714);
}
);
layerId = "0748FCBA-26BB-4096-A322-99C7EC440251";
shapes = (
{
closed = 1;
nodes = (
(467,-10,o),
(540,5,o),
(620,36,c),
(658,227,ls),
(669,280,o),
(706,288,o),
(750,288,cs),
(754,288,l),
(765,341,l),
(432,341,l),
(421,288,l),
(434,288,ls),
(476,288,o),
(506,283,o),
(506,254,cs),
(506,249,o),
(504,238,o),
(500,220,cs),
(467,72,l),
(443,64,o),
(408,58,o),
(378,58,cs),
(270,58,o),
(227,135,o),
(227,246,cs),
(227,464,o),
(343,660,o),
(495,660,cs),
(573,660,o),
(608,596,o),
(608,512,c),
(688,512,o),
(753,553,o),
(753,605,cs),
(753,665,o),
(679,724,o),
(526,724,cs),
(250,724,o),
(63,516,o),
(63,258,cs),
(63,93,o),
(168,-10,o),
(373,-10,cs)
);
}
);
width = 796;
},
{
anchors = (
{
name = bottom;
pos = (368,0);
},
{
name = center;
pos = (442,357);
},
{
name = top;
pos = (530,714);
},
{
name = topright;
pos = (924,714);
}
);
layerId = "EFE4222C-09E4-4728-8E05-7459D7542305";
shapes = (
{
closed = 1;
nodes = (
(494,-10,o),
(570,5,o),
(659,36,c),
(701,235,ls),
(710,281,o),
(750,288,o),
(797,288,cs),
(802,288,l),
(814,349,l),
(432,349,l),
(419,288,l),
(435,288,ls),
(480,288,o),
(507,283,o),
(507,258,cs),
(507,254,o),
(505,241,o),
(500,220,cs),
(467,80,l),
(447,72,o),
(420,66,o),
(396,66,cs),
(310,66,o),
(276,141,o),
(276,249,cs),
(276,461,o),
(381,652,o),
(520,652,cs),
(591,652,o),
(623,582,o),
(623,494,c),
(720,494,o),
(797,533,o),
(797,597,cs),
(797,658,o),
(712,724,o),
(551,724,cs),
(261,724,o),
(71,516,o),
(71,258,cs),
(71,93,o),
(180,-10,o),
(390,-10,cs)
);
}
);
width = 849;
},
{
anchors = (
{
name = bottom;
pos = (315,0);
},
{
name = center;
pos = (378,357);
},
{
name = top;
pos = (477,714);
},
{
name = topright;
pos = (779,714);
}
);
layerId = "081AFB27-5722-432A-9779-C9794386CEF1";
shapes = (
{
closed = 1;
nodes = (
(409,-10,o),
(473,5,o),
(548,36,c),
(589,231,ls),
(599,281,o),
(632,288,o),
(671,288,cs),
(675,288,l),
(687,345,l),
(366,345,l),
(353,288,l),
(367,288,ls),
(403,288,o),
(424,283,o),
(424,257,cs),
(424,252,o),
(421,239,o),
(417,220,cs),
(384,76,l),
(368,68,o),
(348,62,o),
(329,62,cs),
(268,62,o),
(244,128,o),
(244,223,cs),
(244,445,o),
(339,656,o),
(455,656,cs),
(512,656,o),
(534,589,o),
(531,503,c),
(615,503,o),
(683,541,o),
(683,604,cs),
(683,663,o),
(615,724,o),
(484,724,cs),
(237,724,o),
(69,505,o),
(69,244,cs),
(69,88,o),
(155,-10,o),
(322,-10,cs)
);
}
);
width = 704;
},
{
anchors = (
{
name = bottom;
pos = (217,0);
},
{
name = center;
pos = (280,356);
},
{
name = top;
pos = (369,714);
},
{
name = topright;
pos = (563,714);
}
);
layerId = "9563C917-11DF-412F-BB09-FC0C1CFFA48C";
shapes = (
{
closed = 1;
nodes = (
(297,-10,o),
(344,5,o),
(395,36,c),
(433,208,ls),
(451,291,o),
(454,295,o),
(483,295,cs),
(502,295,l),
(507,315,l),
(356,315,l),
(351,295,l),
(384,295,ls),
(411,295,o),
(413,292,o),
(413,264,cs),
(413,254,o),
(410,235,o),
(405,211,cs),
(370,53,l),
(339,29,o),
(283,15,o),
(239,15,cs),
(117,15,o),
(75,118,o),
(75,234,cs),
(75,496,o),
(216,697,o),
(372,697,cs),
(455,697,o),
(486,665,o),
(486,578,c),
(502,578,o),
(513,591,o),
(513,610,cs),
(513,684,o),
(462,722,o),
(374,722,cs),
(200,722,o),
(47,514,o),
(47,234,cs),
(47,83,o),
(110,-10,o),
(238,-10,cs)
);
}
);
width = 513;
},
{
anchors = (
{
name = bottom;
pos = (277,0);
},
{
name = center;
pos = (345,357);
},
{
name = top;
pos = (439,714);
},
{
name = topright;
pos = (684,714);
}
);
layerId = "A783126C-D342-49FA-8B69-0453AD03268C";
shapes = (
{
closed = 1;
nodes = (
(383,-10,o),
(442,5,o),
(505,36,c),
(543,202,ls),
(564,294,o),
(569,296,o),
(608,296,cs),
(626,296,l),
(631,316,l),
(451,316,l),
(446,296,l),
(471,296,ls),
(515,296,o),
(524,291,o),
(524,269,cs),
(524,252,o),
(521,228,o),
(515,202,cs),
(482,57,l),
(441,29,o),
(374,15,o),
(305,15,cs),
(149,15,o),
(84,111,o),
(84,258,cs),
(84,504,o),
(248,699,o),
(446,699,cs),
(553,699,o),
(607,661,o),
(607,561,c),
(625,561,o),
(634,573,o),
(634,591,cs),
(634,676,o),
(565,724,o),
(448,724,cs),
(226,724,o),
(56,511,o),
(56,258,cs),
(56,93,o),
(140,-10,o),
(308,-10,cs)
);
}
);
width = 645;
},
{
anchors = (
{
name = bottom;
pos = (264,0);
},
{
name = center;
pos = (323,357);
},
{
name = top;
pos = (419,714);
},
{
name = topright;
pos = (662,714);
}
);
layerId = "44BFC83C-08F8-422F-A73E-536514612562";
shapes = (
{
closed = 1;
nodes = (
(345,-10,o),
(401,5,o),
(463,36,c),
(501,215,ls),
(515,279,o),
(542,288,o),
(573,288,cs),
(577,288,l),
(587,329,l),
(359,329,l),
(350,288,l),
(359,288,ls),
(390,288,o),
(414,283,o),
(414,250,cs),
(414,242,o),
(413,233,o),
(408,211,cs),
(378,75,l),
(354,56,o),
(318,43,o),
(286,43,cs),
(191,43,o),
(153,116,o),
(153,222,cs),
(153,452,o),
(266,672,o),
(405,672,cs),
(476,672,o),
(503,618,o),
(501,540,c),
(551,540,o),
(593,564,o),
(593,621,cs),
(593,678,o),
(538,724,o),
(424,724,cs),
(207,724,o),
(54,503,o),
(54,240,cs),
(54,87,o),
(128,-10,o),
(274,-10,cs)
);
}
);
width = 587;
},
{
anchors = (
{
name = bottom;
pos = (293,0);
},
{
name = center;
pos = (353,357);
},
{
name = top;
pos = (452,714);
},
{
name = topright;
pos = (728,714);
}
);
layerId = "50C02CB6-129D-4BF7-ADB7-784B68302109";
shapes = (
{
closed = 1;
nodes = (
(381,-10,o),
(442,5,o),
(511,36,c),
(551,224,ls),
(563,280,o),
(593,288,o),
(628,288,cs),
(632,288,l),
(644,338,l),
(363,338,l),
(352,288,l),
(364,288,ls),
(397,288,o),
(420,283,o),
(420,254,cs),
(420,248,o),
(418,236,o),
(413,216,cs),
(381,76,l),
(362,63,o),
(335,54,o),
(310,54,cs),
(234,54,o),
(204,123,o),
(204,223,cs),
(204,448,o),
(307,663,o),
(433,663,cs),
(496,663,o),
(521,601,o),
(518,519,c),
(587,519,o),
(644,551,o),
(644,611,cs),
(644,669,o),
(581,724,o),
(458,724,cs),
(223.99,724,o),
(63,504,o),
(63,242,cs),
(63,87,o),
(143,-10,o),
(301,-10,cs)
);
}
);
width = 653;
}
);
script = latin;
subCategory = Uppercase;
unicode = 71;
}
{
category = Letter;
glyphname = L;
kernLeft = B;
kernRight = L;
layers = (
{
anchors = (
{
name = bottom;
pos = (255,0);
},
{
name = center;
pos = (350,357);
},
{
name = top;
pos = (407,714);
},
{
name = topright;
pos = (698,714);
}
);
layerId = UUID0;
shapes = (
{
closed = 1;
nodes = (
(515,0,l),
(567,215,l),
(515,215,l),
(489,140,ls),
(474,97,o),
(443,50,o),
(382,50,cs),
(185,50,l),
(303,604,ls),
(316,664,o),
(355,672,o),
(399,672,cs),
(412,672,l),
(421,714,l),
(130,714,l),
(121,672,l),
(134,672,ls),
(176,672,o),
(206,666,o),
(206,632,cs),
(206,626,o),
(204,612,o),
(202,604,cs),
(98,114,ls),
(84,51,o),
(46,42,o),
(2,42,cs),
(-11,42,l),
(-20,0,l)
);
}
);
width = 623;
},
{
anchors = (
{
name = bottom;
pos = (270,0);
},
{
name = center;
pos = (365,357);
},
{
name = top;
pos = (422,714);
},
{
name = topright;
pos = (729,714);
}
);
layerId = "0748FCBA-26BB-4096-A322-99C7EC440251";
shapes = (
{
closed = 1;
nodes = (
(563,0,l),
(618,223,l),
(554,223,l),
(536,170,ls),
(511,97,o),
(480,61,o),
(407,61,cs),
(240,61,l),
(353,600,ls),
(364,653,o),
(404,661,o),
(448,661,cs),
(461,661,l),
(472,714,l),
(127,714,l),
(116,661,l),
(129,661,ls),
(171,661,o),
(201,656,o),
(201,627,cs),
(201,622,o),
(199,611,o),
(195,593,cs),
(93,113,ls),
(82,61,o),
(43,53,o),
(1,53,cs),
(-12,53,l),
(-23,0,l)
);
}
);
width = 654;
},
{
anchors = (
{
name = bottom;
pos = (282,0);
},
{
name = center;
pos = (377,357);
},
{
name = top;
pos = (434,714);
},
{
name = topright;
pos = (752,714);
}
);
layerId = "EFE4222C-09E4-4728-8E05-7459D7542305";
shapes = (
{
closed = 1;
nodes = (
(598,0,l),
(655,229,l),
(583,229,l),
(570,192,ls),
(538,97,o),
(507,69,o),
(425,69,cs),
(280,69,l),
(390,597,ls),
(399,645,o),
(440,653,o),
(484,653,cs),
(497,653,l),
(509,714,l),
(125,714,l),
(112,653,l),
(125,653,ls),
(167,653,o),
(197,649,o),
(197,623,cs),
(197,614,o),
(194,602,o),
(190,585,cs),
(89,112,ls),
(80,68,o),
(41,61,o),
(0,61,cs),
(-13,61,l),
(-25,0,l)
);
}
);
width = 677;
},
{
anchors = (
{
name = bottom;
pos = (221,0);
},
{
name = center;
pos = (316,357);
},
{
name = top;
pos = (373,714);
},
{
name = topright;
pos = (631,714);
}
);
layerId = "081AFB27-5722-432A-9779-C9794386CEF1";
shapes = (
{
closed = 1;
nodes = (
(494,0,l),
(550,226,l),
(490,226,l),
(477,181,ls),
(451,96,o),
(421,65,o),
(353,65,cs),
(239,65,l),
(348,599,ls),
(358,649,o),
(391,657,o),
(427,657,cs),
(438,657,l),
(451,714,l),
(129,714,l),
(116,657,l),
(127,657,ls),
(161,657,o),
(184,653,o),
(184,627,cs),
(184,618,o),
(181,606,o),
(177,589,cs),
(77,112,ls),
(67,64,o),
(35,57,o),
(2,57,cs),
(-9,57,l),
(-21,0,l)
);
}
);
width = 556;
},
{
anchors = (
{
name = bottom;
pos = (174,0);
},
{
name = center;
pos = (269,357);
},
{
name = top;
pos = (326,714);
},
{
name = topright;
pos = (537,714);
}
);
layerId = "9563C917-11DF-412F-BB09-FC0C1CFFA48C";
shapes = (
{
closed = 1;
nodes = (
(358,0,l),
(408,204,l),
(386,204,l),
(359,107,ls),
(337,27,o),
(332,25,o),
(262,25,cs),
(89,25,l),
(215,618,l),
(230,690,o),
(234,694,o),
(298,694,cs),
(308,694,l),
(313,714,l),
(130,714,l),
(125,694,l),
(137,694,ls),
(188,694,o),
(192,692,o),
(192,656,cs),
(192,646,o),
(188,620,o),
(182,591,cs),
(76,96,ls),
(61,24,o),
(57,20,o),
(-7,20,cs),
(-17,20,l),
(-22,0,l)
);
}
);
width = 462;
},
{
anchors = (
{
name = bottom;
pos = (235,0);
},
{
name = center;
pos = (330,357);
},
{
name = top;
pos = (387,714);
},
{
name = topright;
pos = (657,714);
}
);
layerId = "A783126C-D342-49FA-8B69-0453AD03268C";
shapes = (
{
closed = 1;
nodes = (
(450,0,l),
(500,205,l),
(475,205,l),
(451,113,ls),
(430,31,o),
(419,25,o),
(356,25,cs),
(119,25,l),
(243,606,ls),
(259,683,o),
(268,694,o),
(318,694,cs),
(361,694,l),
(365,714,l),
(139,714,l),
(135,694,l),
(178,694,ls),
(211,694,o),
(224,689,o),
(224,663,cs),
(224,650,o),
(220,632,o),
(215,606,cs),
(106,95,ls),
(91,25,o),
(84,20,o),
(25,20,cs),
(-8,20,l),
(-13,0,l)
);
}
);
width = 575;
},
{
anchors = (
{
name = bottom;
pos = (195,0);
},
{
name = center;
pos = (290,357);
},
{
name = top;
pos = (347,714);
},
{
name = topright;
pos = (580,714);
}
);
layerId = "44BFC83C-08F8-422F-A73E-536514612562";
shapes = (
{
closed = 1;
nodes = (
(422,0,l),
(474,214,l),
(430,214,l),
(406,136,ls),
(390,86,o),
(364,49,o),
(314,49,cs),
(162,49,l),
(279,605,ls),
(291,665,o),
(323,673,o),
(358,673,cs),
(369,673,l),
(378,714,l),
(133,714,l),
(124,673,l),
(135,673,ls),
(168,673,o),
(191,667,o),
(191,635,cs),
(191,628,o),
(189,617,o),
(186,601,cs),
(83,114,ls),
(69,50,o),
(38,41,o),
(3,41,cs),
(-8,41,l),
(-17,0,l)
);
}
);
width = 505;
},
{
anchors = (
{
name = bottom;
pos = (210,0);
},
{
name = center;
pos = (305,357);
},
{
name = top;
pos = (362,714);
},
{
name = topright;
pos = (609,714);
}
);
layerId = "50C02CB6-129D-4BF7-ADB7-784B68302109";
shapes = (
{
closed = 1;
nodes = (
(463,0,l),
(517,221,l),
(464,221,l),
(446,162,ls),
(425,92,o),
(396,58,o),
(336,58,cs),
(206,58,l),
(318,602,ls),
(329,656,o),
(361,664,o),
(397,664,cs),
(408,664,l),
(419,714,l),
(131,714,l),
(119,664,l),
(130,664,ls),
(164,664,o),
(187,659,o),
(187,630,cs),
(187,622,o),
(184,611,o),
(181,594,cs),
(80,113,ls),
(68,58,o),
(36,50,o),
(3,50,cs),
(-8,50,l),
(-19,0,l)
);
}
);
width = 534;
}
);
script = latin;
subCategory = Uppercase;
unicode = 76;
}
{
category = Letter;
glyphname = Y;
kernLeft = Y;
kernRight = Y;
layers = (
{
anchors = (
{
name = bottom;
pos = (256,0);
},
{
name = center;
pos = (398,357);
},
{
name = top;
pos = (408,714);
},
{
name = topright;
pos = (700,714);
}
);
layerId = UUID0;
shapes = (
{
closed = 1;
nodes = (
(410,0,l),
(419,42,l),
(396,42,ls),
(354,42,o),
(324,48,o),
(324,82,cs),
(324,88,o),
(326,102,o),
(328,110,cs),
(367,291,l),
(600,596,ls),
(638,646,o),
(661,672,o),
(691,672,cs),
(710,672,l),
(719,714,l),
(472,714,l),
(463,672,l),
(500,672,ls),
(536,672,o),
(548,664,o),
(548,646,cs),
(548,625,o),
(537,600,o),
(512,566,cs),
(419,442,ls),
(383,394,o),
(356,361,o),
(341,333,c),
(339,366,o),
(328,412,o),
(314,453,cs),
(269,587,ls),
(261,610,o),
(256,628,o),
(256,645,cs),
(256,662,o),
(270,672,o),
(297,672,cs),
(347,672,l),
(356,714,l),
(86,714,l),
(77,672,l),
(90,672,ls),
(129,672,o),
(136,657,o),
(150,619,cs),
(266,293,l),
(227,109,ls),
(214,49,o),
(175,42,o),
(131,42,cs),
(108,42,l),
(99,0,l)
);
}
);
width = 625;
},
{
anchors = (
{
name = bottom;
pos = (290,0);
},
{
name = center;
pos = (439,357);
},
{
name = top;
pos = (442,714);
},
{
name = topright;
pos = (768,714);
}
);
layerId = "0748FCBA-26BB-4096-A322-99C7EC440251";
shapes = (
{
closed = 1;
nodes = (
(480,0,l),
(491,53,l),
(467,53,ls),
(425,53,o),
(394,58,o),
(394,87,cs),
(394,92,o),
(397,103,o),
(398,110,cs),
(428,252,l),
(676,596,ls),
(713,647,o),
(731,661,o),
(761,661,cs),
(780,661,l),
(791,714,l),
(529,714,l),
(517,661,l),
(538,661,ls),
(582,661,o),
(599,652,o),
(599,634,cs),
(599,612,o),
(585,583,o),
(569,560,cs),
(470,419,ls),
(436,370,o),
(409,327,o),
(397,301,c),
(395,334,o),
(384,387,o),
(374,426,cs),
(338,567,ls),
(330,597,o),
(326,620,o),
(326,632,cs),
(326,650,o),
(338,661,o),
(368,661,cs),
(413,661,l),
(424,714,l),
(99,714,l),
(88,661,l),
(101,661,ls),
(140,661,o),
(149,647,o),
(161,608,cs),
(269,253,l),
(240,114,ls),
(229,62,o),
(191,53,o),
(149,53,cs),
(122,53,l),
(111,0,l)
);
}
);
width = 693;
},
{
anchors = (
{
name = bottom;
pos = (315,0);
},
{
name = center;
pos = (465,357);
},
{
name = top;
pos = (467,714);
},
{
name = topright;
pos = (818,714);
}
);
layerId = "EFE4222C-09E4-4728-8E05-7459D7542305";
shapes = (
{
closed = 1;
nodes = (
(526,0,l),
(539,61,l),
(514,61,ls),
(472,61,o),
(440,65,o),
(440,91,cs),
(440,95,o),
(441,100,o),
(445,118,cs),
(468,223,l),
(727,596,ls),
(763,648,o),
(777,653,o),
(807,653,cs),
(826,653,l),
(839,714,l),
(566,714,l),
(552,653,l),
(561,653,ls),
(611,653,o),
(631,643,o),
(631,625,cs),
(631,602,o),
(615,571,o),
(607,556,cs),
(505,405,ls),
(472,355,o),
(442,302,o),
(433,277,c),
(431,310,o),
(420,369,o),
(413,406,cs),
(384,552,ls),
(376,587,o),
(372,614,o),
(372,622,cs),
(372,641,o),
(383,653,o),
(415,653,cs),
(457,653,l),
(469,714,l),
(103,714,l),
(91,653,l),
(104,653,ls),
(143,653,o),
(153,640,o),
(164,600,cs),
(266,224,l),
(244,118,ls),
(235,72,o),
(198,61,o),
(157,61,cs),
(127,61,l),
(115,0,l)
);
}
);
width = 743;
},
{
anchors = (
{
name = bottom;
pos = (251,0);
},
{
name = center;
pos = (408,357);
},
{
name = top;
pos = (403,714);
},
{
name = topright;
pos = (690,714);
}
);
layerId = "081AFB27-5722-432A-9779-C9794386CEF1";
shapes = (
{
closed = 1;
nodes = (
(438,0,l),
(452,57,l),
(431,57,ls),
(397,57,o),
(372,61,o),
(372,87,cs),
(372,93,o),
(374,100,o),
(377,116,cs),
(400,232,l),
(609,570,ls),
(656,646,o),
(663,657,o),
(694,657,cs),
(709,657,l),
(722,714,l),
(497,714,l),
(483,657,l),
(488,657,ls),
(530,657,o),
(546,648,o),
(546,626,cs),
(546,606,o),
(539,588,o),
(525,564,cs),
(436,412,ls),
(407,363,o),
(380,315,o),
(372,289,c),
(371,348,o),
(364,408,o),
(356,463,cs),
(346,532,ls),
(341,569,o),
(337,600,o),
(337,621,cs),
(337,644,o),
(346,657,o),
(374,657,cs),
(408,657,l),
(420,714,l),
(113,714,l),
(101,657,l),
(112,657,ls),
(143,657,o),
(151,644,o),
(158,604,cs),
(226,239,l),
(204,116,ls),
(196,67,o),
(165,57,o),
(132,57,cs),
(107,57,l),
(95,0,l)
);
}
);
width = 615;
},
{
anchors = (
{
name = bottom;
pos = (158,0);
},
{
name = center;
pos = (285,357);
},
{
name = top;
pos = (310,714);
},
{
name = topright;
pos = (504,714);
}
);
layerId = "9563C917-11DF-412F-BB09-FC0C1CFFA48C";
shapes = (
{
closed = 1;
nodes = (
(233,0,l),
(237,20,l),
(214,20,ls),
(181,20,o),
(168,25,o),
(168,51,cs),
(168,64,o),
(171,82,o),
(177,108,cs),
(226,339,l),
(420,622,ls),
(464,687,o),
(467,694,o),
(505,694,cs),
(518,694,l),
(523,714,l),
(351,714,l),
(346,694,l),
(375,694,ls),
(411,694,o),
(416,693,o),
(416,681,cs),
(416,671,o),
(414,658,o),
(385,615,cs),
(271,445,ls),
(254,419,o),
(234,390,o),
(217,364,c),
(212,390,o),
(206,419,o),
(199,445,cs),
(154,620,ls),
(146,651,o),
(144,665,o),
(144,677,cs),
(144,691,o),
(151,694,o),
(181,694,cs),
(226,694,l),
(231,714,l),
(75,714,l),
(70,694,l),
(80,694,ls),
(106,694,o),
(108,689,o),
(121,641,cs),
(199,343,l),
(149,108,ls),
(133,31,o),
(124,20,o),
(74,20,cs),
(51,20,l),
(47,0,l)
);
}
);
width = 429;
},
{
anchors = (
{
name = bottom;
pos = (211,0);
},
{
name = center;
pos = (353,357);
},
{
name = top;
pos = (363,714);
},
{
name = topright;
pos = (613,714);
}
);
layerId = "A783126C-D342-49FA-8B69-0453AD03268C";
shapes = (
{
closed = 1;
nodes = (
(322,0,l),
(326,20,l),
(283,20,ls),
(250,20,o),
(237,25,o),
(237,51,cs),
(237,64,o),
(240,82,o),
(246,108,cs),
(297,348,l),
(528,630,ls),
(578,691,o),
(581,694,o),
(611,694,cs),
(630,694,l),
(635,714,l),
(428,714,l),
(423,694,l),
(484,694,ls),
(519,694,o),
(522,688,o),
(522,677,cs),
(522,666,o),
(519,657,o),
(466,593,cs),
(359,462,ls),
(326,422,o),
(303,394,o),
(286,371,c),
(276,400,o),
(255,451,o),
(240,487,cs),
(184,621,ls),
(172,650,o),
(168,664,o),
(168,677,cs),
(168,689,o),
(173,694,o),
(207,694,cs),
(271,694,l),
(276,714,l),
(77,714,l),
(72,694,l),
(85,694,ls),
(124,694,o),
(128,691,o),
(143,655,cs),
(269,350,l),
(218,108,ls),
(202,31,o),
(193,20,o),
(143,20,cs),
(100,20,l),
(96,0,l)
);
}
);
width = 538;
},
{
anchors = (
{
name = bottom;
pos = (201,0);
},
{
name = center;
pos = (349,357);
},
{
name = top;
pos = (353,714);
},
{
name = topright;
pos = (589,714);
}
);
layerId = "44BFC83C-08F8-422F-A73E-536514612562";
shapes = (
{
closed = 1;
nodes = (
(342,0,l),
(350,41,l),
(332,41,ls),
(299,41,o),
(276,47,o),
(276,79,cs),
(276,86,o),
(278,99,o),
(281,112,cs),
(318,294,l),
(515,589,ls),
(552,645,o),
(569,673,o),
(595,673,cs),
(610,673,l),
(619,714,l),
(419,714,l),
(409,673,l),
(435,673,ls),
(466,673,o),
(478,666,o),
(478,649,cs),
(478,628,o),
(468,604,o),
(443,567,cs),
(361,440,ls),
(332,395,o),
(315,366,o),
(300,339,c),
(299,371,o),
(290,412,o),
(283,446,cs),
(275,486,ls),
(264,536,o),
(245,604,o),
(245,641,cs),
(245,662,o),
(256,673,o),
(280,673,cs),
(319,673,l),
(328,714,l),
(101,714,l),
(92,673,l),
(102,673,ls),
(133,673,o),
(138,658,o),
(147,620,cs),
(225,297,l),
(188,109,l),
(175,48,o),
(144,41,o),
(109,41,cs),
(89,41,l),
(80,0,l)
);
}
);
width = 514;
},
{
anchors = (
{
name = bottom;
pos = (229,0);
},
{
name = center;
pos = (383,357);
},
{
name = top;
pos = (381,714);
},
{
name = topright;
pos = (646,714);
}
);
layerId = "50C02CB6-129D-4BF7-ADB7-784B68302109";
shapes = (
{
closed = 1;
nodes = (
(396,0,l),
(408,50,l),
(388,50,ls),
(354,50,o),
(330,55,o),
(330,84,cs),
(330,90,o),
(332,99,o),
(335,114,cs),
(364,259,l),
(568,578,ls),
(611,646,o),
(622,664,o),
(651,664,cs),
(666,664,l),
(677,714,l),
(463,714,l),
(451,664,l),
(465,664,ls),
(502,664,o),
(516,656,o),
(516,636,cs),
(516,616,o),
(508,595,o),
(489,565,cs),
(404,424,ls),
(375,377,o),
(352,337,o),
(341,311,c),
(340,358,o),
(332,410,o),
(324,456,cs),
(315,512,ls),
(308,555,o),
(297,602,o),
(297,630,cs),
(297,652,o),
(307,664,o),
(333,664,cs),
(369,664,l),
(380,714,l),
(108,714,l),
(97,664,l),
(108,664,ls),
(139,664,o),
(145,650,o),
(153,611,cs),
(226,264,l),
(197,113,l),
(187,59,o),
(156,50,o),
(122,50,cs),
(99,50,l),
(89,0,l)
);
}
);
width = 571;
}
);
script = latin;
subCategory = Uppercase;
unicode = 89;
}
{
category = Letter;
glyphname = c;
kernLeft = o;
kernRight = c;
layers = (
{
anchors = (
{
name = bottom;
pos = (207,0);
},
{
name = center;
pos = (265,268);
},
{
name = top;
pos = (321,536);
},
{
name = topright;
pos = (524,536);
}
);
layerId = UUID0;
shapes = (
{
closed = 1;
nodes = (
(358,-10,o),
(411,56,o),
(411,100,cs),
(411,111,o),
(407,121,o),
(401,125,c),
(373,90,o),
(327,53,o),
(257,53,cs),
(185,53,o),
(147,103,o),
(147,189,cs),
(147,297,o),
(214,498,o),
(321,498,cs),
(374,498,o),
(398,444,o),
(398,380,c),
(455,380,o),
(487,412,o),
(487,450,cs),
(487,499,o),
(441,546,o),
(341,546,cs),
(147,546,o),
(43,345,o),
(43,197,cs),
(43,58,o),
(131,-10,o),
(238,-10,cs)
);
}
);
width = 487;
},
{
anchors = (
{
name = bottom;
pos = (227,0);
},
{
name = center;
pos = (284,268);
},
{
name = top;
pos = (351,536);
},
{
name = topright;
pos = (565,536);
}
);
layerId = "0748FCBA-26BB-4096-A322-99C7EC440251";
shapes = (
{
closed = 1;
nodes = (
(398,-10,o),
(458,52,o),
(458,104,cs),
(458,124,o),
(451,140,o),
(443,148,c),
(415,108,o),
(374,66,o),
(303,66,cs),
(231,66,o),
(193,114,o),
(193,195,cs),
(193,298,o),
(247,486,o),
(333,486,cs),
(381,486,o),
(406,427,o),
(406,356,c),
(494,356,o),
(528,399,o),
(528,440,cs),
(528,497,o),
(480,546,o),
(369,546,cs),
(153,546,o),
(40,345,o),
(40,197,cs),
(40,58,o),
(140,-10,o),
(261,-10,cs)
);
}
);
width = 528;
},
{
anchors = (
{
name = bottom;
pos = (252,0);
},
{
name = center;
pos = (298,268);
},
{
name = top;
pos = (376,536);
},
{
name = topright;
pos = (595,536);
}
);
layerId = "EFE4222C-09E4-4728-8E05-7459D7542305";
shapes = (
{
closed = 1;
nodes = (
(428,-10,o),
(493,49,o),
(493,107,cs),
(493,134,o),
(484,154,o),
(474,165,c),
(446,121,o),
(409,76,o),
(337,76,cs),
(265,76,o),
(227,122,o),
(227,199,cs),
(227,299,o),
(272,477,o),
(342,477,cs),
(386,477,o),
(412,414,o),
(412,338,c),
(523,338,o),
(558,389,o),
(558,433,cs),
(558,496,o),
(509,546,o),
(390,546,cs),
(158,546,o),
(38,345,o),
(38,197,cs),
(38,58,o),
(147,-10,o),
(283,-10,cs)
);
}
);
width = 558;
},
{
anchors = (
{
name = bottom;
pos = (204,0);
},
{
name = center;
pos = (258,268);
},
{
name = top;
pos = (328,536);
},
{
name = topright;
pos = (499,536);
}
);
layerId = "081AFB27-5722-432A-9779-C9794386CEF1";
shapes = (
{
closed = 1;
nodes = (
(358,-10,o),
(414,53,o),
(414,109,cs),
(414,130,o),
(407,147,o),
(399,156,c),
(375,114,o),
(344,71,o),
(285,71,cs),
(229,71,o),
(200,114,o),
(200,200,cs),
(200,330,o),
(254,482,o),
(300,482,cs),
(335,482,o),
(354,421,o),
(351,347,c),
(448,347,o),
(479,395,o),
(479,441,cs),
(479,499,o),
(439,546,o),
(344,546,cs),
(146,546,o),
(38,336,o),
(38,187,cs),
(38,55,o),
(124,-10,o),
(235,-10,cs)
);
}
);
width = 462;
},
{
anchors = (
{
name = bottom;
pos = (136,0);
},
{
name = center;
pos = (192,268);
},
{
name = top;
pos = (248,536);
},
{
name = topright;
pos = (382,536);
}
);
layerId = "9563C917-11DF-412F-BB09-FC0C1CFFA48C";
shapes = (
{
closed = 1;
nodes = (
(232,-10,o),
(270,55,o),
(270,86,cs),
(270,94,o),
(266,100,o),
(261,100,c),
(240,57,o),
(203,15,o),
(152,15,cs),
(96,15,o),
(60,68,o),
(60,178,cs),
(60,298,o),
(131,521,o),
(252,521,cs),
(299,521,o),
(325,485,o),
(325,413,c),
(342,413,o),
(352,425,o),
(352,443,cs),
(352,493,o),
(321,546,o),
(254,546,cs),
(116,546,o),
(32,327,o),
(32,179,cs),
(32,45,o),
(76,-10,o),
(151,-10,cs)
);
}
);
width = 345;
},
{
anchors = (
{
name = bottom;
pos = (191,0);
},
{
name = center;
pos = (240,268);
},
{
name = top;
pos = (295,536);
},
{
name = topright;
pos = (471,536);
}
);
layerId = "A783126C-D342-49FA-8B69-0453AD03268C";
shapes = (
{
closed = 1;
nodes = (
(295,-10,o),
(353,44,o),
(353,82,cs),
(353,88,o),
(351,93,o),
(348,95,c),
(320,51,o),
(270,17,o),
(208,17,cs),
(135,17,o),
(75,82,o),
(75,197,cs),
(75,342,o),
(166,521,o),
(304,521,cs),
(372,521,o),
(408,479,o),
(408,411,c),
(424,411,o),
(434,418,o),
(434,440,cs),
(434,491,o),
(390,546,o),
(304,546,cs),
(151,546,o),
(47,359,o),
(47,197,cs),
(47,58,o),
(119,-10,o),
(210,-10,cs)
);
}
);
width = 441;
},
{
anchors = (
{
name = bottom;
pos = (173,0);
},
{
name = center;
pos = (230,268);
},
{
name = top;
pos = (289,536);
},
{
name = topright;
pos = (435,536);
}
);
layerId = "44BFC83C-08F8-422F-A73E-536514612562";
shapes = (
{
closed = 1;
nodes = (
(297,-10,o),
(343,60,o),
(343,101,cs),
(343,110,o),
(340,119,o),
(335,122,c),
(311,88,o),
(275,52,o),
(220,52,cs),
(164,52,o),
(134,100,o),
(134,185,cs),
(134,313,o),
(198,500,o),
(281,500,cs),
(323,500,o),
(340,447,o),
(336,383,c),
(390,383,o),
(418,415,o),
(418,455,cs),
(418,501,o),
(382,546,o),
(302,546,cs),
(137,546,o),
(42,334,o),
(42,183,cs),
(42,54,o),
(109,-10,o),
(196,-10,cs)
);
}
);
width = 398;
},
{
anchors = (
{
name = bottom;
pos = (190,0);
},
{
name = center;
pos = (246,268);
},
{
name = top;
pos = (311,536);
},
{
name = topright;
pos = (471,536);
}
);
layerId = "50C02CB6-129D-4BF7-ADB7-784B68302109";
shapes = (
{
closed = 1;
nodes = (
(331,-10,o),
(383,56,o),
(383,106,cs),
(383,121,o),
(378,135,o),
(371,141,c),
(347,103,o),
(314,63,o),
(257,63,cs),
(201,63,o),
(171,108,o),
(171,193,cs),
(171,323,o),
(230,490,o),
(292,490,cs),
(330,490,o),
(348,432,o),
(345,363,c),
(423,363,o),
(452,404,o),
(452,447,cs),
(452,500,o),
(414,546,o),
(326,546,cs),
(142,546,o),
(40,335,o),
(40,185,cs),
(40,54,o),
(118,-10,o),
(218,-10,cs)
);
}
);
width = 434;
}
);
script = latin;
subCategory = Lowercase;
unicode = 99;
}
{
category = Letter;
glyphname = k;
kernLeft = b;
kernRight = k;
layers = (
{
anchors = (
{
name = bottom;
pos = (228,0);
},
{
name = center;
pos = (321,376);
},
{
name = top;
pos = (390,760);
},
{
name = topright;
pos = (554,860);
}
);
layerId = UUID0;
shapes = (
{
closed = 1;
nodes = (
(522,-7,l),
(531,35,l),
(479,35,o),
(451,70,o),
(429,119,cs),
(319,358,l),
(305,286,l),
(429,401,ls),
(494,460,o),
(544,494,o),
(590,494,c),
(599,536,l),
(378,536,l),
(369,494,l),
(402,494,o),
(413,491,o),
(413,474,cs),
(413,455,o),
(394,432,o),
(340,385,cs),
(181,247,l),
(202,316,o),
(244,505,o),
(259,576,cs),
(298,760,l),
(114,760,l),
(105,718,l),
(113,718,ls),
(151,718,o),
(183,711,o),
(183,671,cs),
(183,665,o),
(180,645,o),
(174,618,cs),
(44,0,l),
(137,0,l),
(178,198,l),
(307,280,l),
(252,298,l),
(334,96,ls),
(366,16,o),
(406,-6,o),
(515,-7,cs)
);
}
);
width = 569;
},
{
anchors = (
{
name = bottom;
pos = (242,0);
},
{
name = center;
pos = (328,380);
},
{
name = top;
pos = (404,760);
},
{
name = topright;
pos = (562,860);
}
);
layerId = "0748FCBA-26BB-4096-A322-99C7EC440251";
shapes = (
{
closed = 1;
nodes = (
(558,0,l),
(569,53,l),
(540,53,o),
(504,71,o),
(461,164,cs),
(371,360,l),
(334,279,l),
(466,401,ls),
(530,460,o),
(579,486,o),
(625,486,c),
(635,536,l),
(383,536,l),
(373,486,l),
(403,486,o),
(420,478,o),
(420,464,cs),
(420,454,o),
(414,440,o),
(382,411,cs),
(226,270,l),
(250,359,o),
(261,410,o),
(284,516,cs),
(337,760,l),
(95,760,l),
(86,707,l),
(107,707,ls),
(145,707,o),
(160,701,o),
(160,665,cs),
(160,660,o),
(157,639,o),
(153,622,cs),
(21,0,l),
(171,0,l),
(214,199,l),
(328,273,l),
(258,258,l),
(327,94,ls),
(355,27,o),
(409,0,o),
(507,0,cs)
);
}
);
width = 597;
},
{
anchors = (
{
name = bottom;
pos = (252,0);
},
{
name = center;
pos = (332,376.971);
},
{
name = top;
pos = (414,760);
},
{
name = topright;
pos = (603,920);
}
);
layerId = "EFE4222C-09E4-4728-8E05-7459D7542305";
shapes = (
{
closed = 1;
nodes = (
(584,-5,l),
(597,56,l),
(566,56,o),
(542,68,o),
(494,171,cs),
(406,361,l),
(355,274,l),
(493,401,ls),
(556,460,o),
(605,480,o),
(651,480,c),
(661,536,l),
(387,536,l),
(376,480,l),
(414,480,o),
(425,468,o),
(425,455,cs),
(425,448,o),
(425,439,o),
(390,407,cs),
(259,287,l),
(278,363,o),
(289,413,o),
(302,472,cs),
(366,760,l),
(84,760,l),
(72,699,l),
(103,699,ls),
(135,699,o),
(143,694,o),
(143,667,cs),
(143,656,o),
(140,639,o),
(137,625,cs),
(4,0,l),
(196,0,l),
(240,200,l),
(343,268,l),
(258,239,l),
(322,93,ls),
(355,19,o),
(411,-6,o),
(530,-5,cs)
);
}
);
width = 618;
},
{
anchors = (
{
name = bottom;
pos = (218,0);
},
{
name = center;
pos = (303,377);
},
{
name = top;
pos = (380,760);
},
{
name = topright;
pos = (514,900);
}
);
layerId = "081AFB27-5722-432A-9779-C9794386CEF1";
shapes = (
{
closed = 1;
nodes = (
(502,-5,l),
(515,51,l),
(492,51,o),
(470,67,o),
(439,161,cs),
(373,360,l),
(326,277,l),
(413,375,ls),
(482,454,o),
(531,483,o),
(576,483,c),
(586,536,l),
(358,536,l),
(347,483,l),
(377,483,o),
(386,474,o),
(386,460,cs),
(386,447,o),
(382,438,o),
(332,377,cs),
(239,270,l),
(263,343,o),
(276,407,o),
(290,472,cs),
(355,760,l),
(116,760,l),
(104,703,l),
(131,703,ls),
(153,703,o),
(161,699,o),
(161,678,cs),
(161,660,o),
(157,641,o),
(154,623,cs),
(21,0,l),
(185,0,l),
(229,200,l),
(314,271,l),
(241,252,l),
(287,94,ls),
(309,18,o),
(357,-5,o),
(454,-5,cs)
);
}
);
width = 529;
},
{
anchors = (
{
name = bottom;
pos = (154,0);
},
{
name = center;
pos = (232,377);
},
{
name = top;
pos = (316,760);
},
{
name = topright;
pos = (445,830);
}
);
layerId = "9563C917-11DF-412F-BB09-FC0C1CFFA48C";
shapes = (
{
closed = 1;
nodes = (
(354,-5,l),
(358,15,l),
(302,15,o),
(289,30,o),
(276,78,cs),
(205,330,l),
(200,301,l),
(356,459,ls),
(410,514,o),
(416,516,o),
(443,516,c),
(448,536,l),
(300,536,l),
(296,516,l),
(342,516,o),
(347,512,o),
(347,501,cs),
(347,483,o),
(335,468,o),
(317,451,cs),
(88,223,l),
(97,261,o),
(107,305,o),
(115,343,cs),
(206,760,l),
(115,760,l),
(110,740,l),
(120,740,ls),
(158,740,o),
(163,737,o),
(163,712,cs),
(163,703,o),
(159,673,o),
(155,652,cs),
(16,0,l),
(44,0,l),
(84,191,l),
(199,300,l),
(184,313,l),
(250,72,ls),
(267,10,o),
(286,-5,o),
(349,-5,cs)
);
}
);
width = 402;
},
{
anchors = (
{
name = bottom;
pos = (210,0);
},
{
name = center;
pos = (300,376);
},
{
name = top;
pos = (372,760);
},
{
name = topright;
pos = (567,860);
}
);
layerId = "A783126C-D342-49FA-8B69-0453AD03268C";
shapes = (
{
closed = 1;
nodes = (
(465,-7,l),
(470,18,l),
(401,18,o),
(383,26,o),
(354,103,cs),
(267,336,l),
(261,316,l),
(415,448,ls),
(491,513,o),
(505,516,o),
(541,516,c),
(546,536,l),
(362,536,l),
(357,516,l),
(426,516,o),
(428,513,o),
(428,502,cs),
(428,493,o),
(416,479,o),
(390,457,cs),
(130,239,l),
(152,348,o),
(177,460,o),
(199,569,cs),
(238,760,l),
(115,760,l),
(110,740,l),
(158,740,ls),
(193,740,o),
(197,737,o),
(197,717,cs),
(197,706,o),
(193,680,o),
(188,656,cs),
(54,0,l),
(82,0,l),
(124,204,l),
(258,314,l),
(244,320,l),
(327,96,ls),
(361,3,o),
(387,-7,o),
(454,-7,cs)
);
}
);
width = 533;
},
{
anchors = (
{
name = bottom;
pos = (179,0);
},
{
name = center;
pos = (275,375);
},
{
name = top;
pos = (341,760);
},
{
name = topright;
pos = (481,860);
}
);
layerId = "44BFC83C-08F8-422F-A73E-536514612562";
shapes = (
{
closed = 1;
nodes = (
(431,-9,l),
(440,31,l),
(398,31,o),
(379,59,o),
(364,108,cs),
(290,345,l),
(268,288,l),
(366,393,ls),
(425,457,o),
(467,495,o),
(507,495,c),
(515,536,l),
(332,536,l),
(323,495,l),
(351,495,o),
(360,489,o),
(360,476,cs),
(360,457,o),
(345,431,o),
(290,372,cs),
(171,248,l),
(187,302,o),
(199,359,o),
(210,411,cs),
(285,760,l),
(125,760,l),
(116,719,l),
(129,719,ls),
(154,719,o),
(175,713,o),
(175,679,cs),
(175,667,o),
(172,648,o),
(166,617,cs),
(35,0,l),
(122,0,l),
(163,193,l),
(263,283,l),
(223,285,l),
(275,96,ls),
(298,14,o),
(327,-9,o),
(413,-9,cs)
);
}
);
width = 466;
},
{
anchors = (
{
name = bottom;
pos = (201,0);
},
{
name = center;
pos = (291,376);
},
{
name = top;
pos = (363,760);
},
{
name = topright;
pos = (497,890);
}
);
layerId = "50C02CB6-129D-4BF7-ADB7-784B68302109";
shapes = (
{
closed = 1;
nodes = (
(471,-7,l),
(482,42,l),
(451,42,o),
(430,64,o),
(406,138,cs),
(337,354,l),
(301,282,l),
(393,383,ls),
(457,455,o),
(503,488,o),
(546,488,c),
(555,536,l),
(347,536,l),
(337,488,l),
(366,488,o),
(375,480,o),
(375,467,cs),
(375,451,o),
(366,435,o),
(314,375,cs),
(209,260,l),
(230,325,o),
(242,386,o),
(255,446,cs),
(325,760,l),
(120,760,l),
(109,710,l),
(130,710,ls),
(154,710,o),
(167,705,o),
(167,678,cs),
(167,663,o),
(164,643,o),
(159,620,cs),
(27,0,l),
(158,0,l),
(200,197,l),
(292,276,l),
(233,266,l),
(282,95,ls),
(304,16,o),
(344,-7,o),
(436,-7,cs)
);
}
);
width = 502;
}
);
script = latin;
subCategory = Lowercase;
unicode = 107;
}
{
category = Letter;
glyphname = l;
kernLeft = l;
kernRight = l;
layers = (
{
anchors = (
{
name = bottom;
pos = (95,0);
},
{
name = center;
pos = (209,268);
},
{
name = top;
pos = (257,760);
},
{
name = topright;
pos = (389,760);
}
);
layerId = UUID0;
shapes = (
{
closed = 1;
nodes = (
(206,-10,o),
(261,24,o),
(290,50,c),
(272,79,l),
(247,64,o),
(222,53,o),
(200,53,cs),
(178,53,o),
(167,70,o),
(167,104,cs),
(167,131,o),
(178,193,o),
(183,215,cs),
(299,760,l),
(110,760,l),
(101,718,l),
(113,718,ls),
(151,718,o),
(183,711,o),
(183,671,cs),
(183,665,o),
(181,645,o),
(177,626,cs),
(95,242,ls),
(87,203,o),
(73,126,o),
(73,85,cs),
(73,33,o),
(103,-10,o),
(156,-10,cs)
);
}
);
width = 304;
},
{
anchors = (
{
name = bottom;
pos = (120,0);
},
{
name = center;
pos = (234,268);
},
{
name = top;
pos = (282,760);
},
{
name = topright;
pos = (439,760);
}
);
layerId = "0748FCBA-26BB-4096-A322-99C7EC440251";
shapes = (
{
closed = 1;
nodes = (
(242,-10,o),
(290,25,o),
(322,59,c),
(298,93,l),
(275,78,o),
(260,70,o),
(239,70,cs),
(217,70,o),
(204,86,o),
(204,115,cs),
(204,143,o),
(210,175,o),
(218,211,cs),
(337,760,l),
(95,760,l),
(86,707,l),
(107,707,ls),
(145,707,o),
(160,701,o),
(160,665,cs),
(160,660,o),
(157,639,o),
(153,622,cs),
(66,212,ls),
(55,161,o),
(50,121,o),
(50,93,cs),
(50,29,o),
(93,-10,o),
(169,-10,cs)
);
}
);
width = 354;
},
{
anchors = (
{
name = bottom;
pos = (139,0);
},
{
name = center;
pos = (253,268);
},
{
name = top;
pos = (301,760);
},
{
name = topright;
pos = (476,760);
}
);
layerId = "EFE4222C-09E4-4728-8E05-7459D7542305";
shapes = (
{
closed = 1;
nodes = (
(268,-10,o),
(311,26,o),
(345,66,c),
(317,103,l),
(295,88,o),
(283,83,o),
(267,83,cs),
(245,83,o),
(231,98,o),
(231,123,cs),
(231,147,o),
(233,162,o),
(243,208,cs),
(365,760,l),
(87,760,l),
(75,699,l),
(102,699,ls),
(140,699,o),
(143,686,o),
(143,668,cs),
(143,656,o),
(139,636,o),
(135,619,cs),
(50,217,ls),
(36,154,o),
(33,127,o),
(33,102,cs),
(33,29,o),
(85,-10,o),
(178,-10,cs)
);
}
);
width = 391;
},
{
anchors = (
{
name = bottom;
pos = (106,0);
},
{
name = center;
pos = (220,268);
},
{
name = top;
pos = (268,760);
},
{
name = topright;
pos = (411,760);
}
);
layerId = "081AFB27-5722-432A-9779-C9794386CEF1";
shapes = (
{
closed = 1;
nodes = (
(237,-10,o),
(273,26,o),
(302,62,c),
(280,98,l),
(262,83,o),
(253,76,o),
(240,76,cs),
(223,76,o),
(212,91,o),
(212,116,cs),
(212,142,o),
(216,168,o),
(225,210,cs),
(347,760,l),
(112,760,l),
(100,703,l),
(124,703,ls),
(147,703,o),
(155,696,o),
(155,679,cs),
(155,659,o),
(151,639,o),
(147,621,cs),
(70,267,ls),
(50,176,o),
(41,130,o),
(41,93,cs),
(41,28,o),
(83,-10,o),
(160,-10,cs)
);
}
);
width = 326;
},
{
anchors = (
{
name = bottom;
pos = (40,0);
},
{
name = center;
pos = (154,268);
},
{
name = top;
pos = (202,760);
},
{
name = topright;
pos = (277,760);
}
);
layerId = "9563C917-11DF-412F-BB09-FC0C1CFFA48C";
shapes = (
{
closed = 1;
nodes = (
(119,-9,o),
(148,6,o),
(167,31,c),
(152,48,l),
(139,32,o),
(117,16,o),
(98,16,cs),
(81,16,o),
(63,27,o),
(63,63,cs),
(63,101,o),
(69,136,o),
(79,183,cs),
(202,760,l),
(101,760,l),
(96,740,l),
(116,740,ls),
(154,740,o),
(159,737,o),
(159,712,cs),
(159,703,o),
(155,673,o),
(151,652,cs),
(51,183,ls),
(41,136,o),
(35,101,o),
(35,63,cs),
(35,10,o),
(63,-9,o),
(96,-9,cs)
);
}
);
width = 192;
},
{
anchors = (
{
name = bottom;
pos = (65,0);
},
{
name = center;
pos = (179,268);
},
{
name = top;
pos = (227,760);
},
{
name = topright;
pos = (328,760);
}
);
layerId = "A783126C-D342-49FA-8B69-0453AD03268C";
shapes = (
{
closed = 1;
nodes = (
(169,-10,o),
(191,7,o),
(219,32,c),
(206,50,l),
(177,25,o),
(158,15,o),
(135,15,cs),
(105,15,o),
(95,41,o),
(95,77,cs),
(95,115,o),
(105,162,o),
(113,201,cs),
(228,760,l),
(105,760,l),
(100,740,l),
(146,740,ls),
(183,740,o),
(188,737,o),
(188,721,cs),
(188,710,o),
(183,682,o),
(178,656,cs),
(85,201,ls),
(76,156,o),
(67,114,o),
(67,75,cs),
(67,20,o),
(88,-10,o),
(131,-10,cs)
);
}
);
width = 243;
},
{
anchors = (
{
name = bottom;
pos = (70,0);
},
{
name = center;
pos = (184,268);
},
{
name = top;
pos = (232,760);
},
{
name = topright;
pos = (339,760);
}
);
layerId = "44BFC83C-08F8-422F-A73E-536514612562";
shapes = (
{
closed = 1;
nodes = (
(181,-10,o),
(217,24,o),
(241,49,c),
(227,77,l),
(207,62,o),
(187,50,o),
(171,50,cs),
(154,50,o),
(147,66,o),
(147,96,cs),
(147,124,o),
(158,183,o),
(164,216,cs),
(282,760,l),
(119,760,l),
(109,719,l),
(120,719,ls),
(148,719,o),
(171,711,o),
(171,678,cs),
(171,668,o),
(169,648,o),
(164,627,cs),
(82,237,ls),
(70,178,o),
(57,115,o),
(57,79,cs),
(57,32,o),
(81,-10,o),
(132,-10,cs)
);
}
);
width = 254;
},
{
anchors = (
{
name = bottom;
pos = (90,0);
},
{
name = center;
pos = (204,268);
},
{
name = top;
pos = (252,760);
},
{
name = topright;
pos = (380,760);
}
);
layerId = "50C02CB6-129D-4BF7-ADB7-784B68302109";
shapes = (
{
closed = 1;
nodes = (
(213,-10,o),
(249,25,o),
(276,56,c),
(257,89,l),
(238,74,o),
(224,65,o),
(210,65,cs),
(193,65,o),
(184,80,o),
(184,107,cs),
(184,134,o),
(190,174,o),
(199,213,cs),
(319,760,l),
(115,760,l),
(104,710,l),
(122,710,ls),
(147,710,o),
(162,703,o),
(162,679,cs),
(162,663,o),
(159,643,o),
(155,624,cs),
(75,254,ls),
(58,177,o),
(48,124,o),
(48,87,cs),
(48,30,o),
(82,-10,o),
(148,-10,cs)
);
}
);
width = 295;
}
);
script = latin;
subCategory = Lowercase;
unicode = 108;
}
{
category = Letter;
glyphname = m;
kernLeft = n;
kernRight = n;
layers = (
{
anchors = (
{
name = bottom;
pos = (391,0);
},
{
name = center;
pos = (461,267);
},
{
name = top;
pos = (505,536);
},
{
name = topright;
pos = (933,536);
}
);
layerId = UUID0;
shapes = (
{
closed = 1;
nodes = (
(809,-10,o),
(847,20,o),
(879,47,c),
(861,76,l),
(838,61,o),
(818,53,o),
(797,53,cs),
(775,53,o),
(762,70,o),
(762,101,cs),
(762,131,o),
(767,169,o),
(775,206,cs),
(801,324,ls),
(808,358,o),
(819,401,o),
(819,434,cs),
(819,493,o),
(791,545,o),
(712,545,cs),
(637,545,o),
(584,498,o),
(530,410,c),
(520,410,l),
(521,418,o),
(522,426,o),
(522,434,cs),
(522,493,o),
(494,545,o),
(415,545,cs),
(340,545,o),
(287,498,o),
(233,410,c),
(223,410,l),
(250,536,l),
(65,536,l),
(56,494,l),
(64,494,ls),
(102,494,o),
(134,487,o),
(134,447,cs),
(134,441,o),
(132,421,o),
(128,402,cs),
(44,0,l),
(137,0,l),
(191,256,ls),
(208,337,o),
(296,481,o),
(380,481,cs),
(419,481,o),
(426,448,o),
(426,422,cs),
(426,387,o),
(411,330,o),
(405,303,cs),
(388,225,ls),
(375,164,o),
(354,32,o),
(354,0,c),
(449,0,l),
(449,30,o),
(470,169,o),
(478,206,cs),
(494,278,l),
(520,361,o),
(600,481,o),
(677,481,cs),
(716,481,o),
(723,448,o),
(723,422,cs),
(723,387,o),
(708,330,o),
(702,303,cs),
(685,225,ls),
(672,164,o),
(666,122,o),
(666,90,cs),
(666,32,o),
(698,-10,o),
(757,-10,cs)
);
}
);
width = 896;
},
{
anchors = (
{
name = bottom;
pos = (428,0);
},
{
name = center;
pos = (495,271);
},
{
name = top;
pos = (542,536);
},
{
name = topright;
pos = (1006,536);
}
);
layerId = "0748FCBA-26BB-4096-A322-99C7EC440251";
shapes = (
{
closed = 1;
nodes = (
(873,-7,o),
(921,28,o),
(953,62,c),
(929,96,l),
(907,81,o),
(891,73,o),
(870,73,cs),
(848,73,o),
(835,89,o),
(835,118,cs),
(835,146,o),
(841,178,o),
(849,214,cs),
(872,321,ls),
(879,356,o),
(890,400,o),
(890,434,cs),
(890,495,o),
(862,549,o),
(780,549,cs),
(694,549,o),
(639,509,o),
(590,429,c),
(584,429,l),
(584,431,o),
(584,433,o),
(584,435,cs),
(582,498,o),
(555,546,o),
(474,546,cs),
(395,546,o),
(339,515,o),
(286,434,c),
(279,434,l),
(298,536,l),
(66,536,l),
(57,483,l),
(75,483,ls),
(113,483,o),
(128,477,o),
(128,441,cs),
(128,432,o),
(124,410,o),
(121,398,cs),
(37,0,l),
(187,0,l),
(243,251,ls),
(260,325,o),
(325,460,o),
(392,460,cs),
(422,460,o),
(425,429,o),
(425,405,cs),
(425,386,o),
(420,351,o),
(408,293,cs),
(393,223,ls),
(380,162,o),
(361,53,o),
(357,0,c),
(512,0,l),
(515,50,o),
(530,155,o),
(538,197,cs),
(546,239,ls),
(560,317,o),
(628,463,o),
(692,463,cs),
(725,463,o),
(732,431,o),
(732,406,cs),
(732,373,o),
(720,320,o),
(714,294,cs),
(697,215,ls),
(686,164,o),
(681,124,o),
(681,96,cs),
(681,32,o),
(724,-7,o),
(800,-7,cs)
);
}
);
width = 969;
},
{
anchors = (
{
name = bottom;
pos = (455,0);
},
{
name = center;
pos = (520,269);
},
{
name = top;
pos = (569,536);
},
{
name = topright;
pos = (1060,536);
}
);
layerId = "EFE4222C-09E4-4728-8E05-7459D7542305";
shapes = (
{
closed = 1;
nodes = (
(920,-8,o),
(976,31,o),
(1008,70,c),
(979,108,l),
(958,93,o),
(945,85,o),
(924,85,cs),
(903,85,o),
(890,100,o),
(890,128,cs),
(890,154,o),
(896,182,o),
(903,217,cs),
(924,319,ls),
(931,355,o),
(942,399,o),
(942,434,cs),
(942,490,o),
(914,546,o),
(823,546,cs),
(736,546,o),
(674,511,o),
(628,431,c),
(625,431,l),
(625,433,o),
(625,435,o),
(625,436,cs),
(621,501,o),
(595,546,o),
(511,546,cs),
(441,546,o),
(382,527,o),
(325,452,c),
(320,452,l),
(334,536,l),
(67,536,l),
(58,475,l),
(83,475,ls),
(116,475,o),
(124,467,o),
(124,445,cs),
(124,430,o),
(119,411,o),
(116,395,cs),
(32,0,l),
(224,0,l),
(281,247,ls),
(298,316,o),
(347,445,o),
(401,445,cs),
(424,445,o),
(424,415,o),
(424,392,cs),
(424,385,o),
(423,348,o),
(410,286,cs),
(397,222,ls),
(384,161,o),
(366,68,o),
(359,0,c),
(559,0,l),
(564,65,o),
(575,145,o),
(582,190,cs),
(590,241,ls),
(597,285,o),
(655,450,o),
(713,450,cs),
(738,450,o),
(739,418,o),
(739,394,cs),
(739,363,o),
(728,313,o),
(723,287,cs),
(706,205,ls),
(697,161,o),
(692,132,o),
(692,105,cs),
(692,29,o),
(743,-8,o),
(832,-8,cs)
);
}
);
width = 1023;
},
{
anchors = (
{
name = bottom;
pos = (366,0);
},
{
name = center;
pos = (430,269);
},
{
name = top;
pos = (480,536);
},
{
name = topright;
pos = (882,536);
}
);
layerId = "081AFB27-5722-432A-9779-C9794386CEF1";
shapes = (
{
closed = 1;
nodes = (
(759,-8,o),
(808,29,o),
(835,65,c),
(812,101,l),
(795,86,o),
(784,78,o),
(767,78,cs),
(751,78,o),
(741,92,o),
(741,118,cs),
(741,144,o),
(748,175,o),
(756,215,cs),
(776,311,ls),
(784,349,o),
(796,404,o),
(796,441,cs),
(796,495,o),
(774,546,o),
(702,546,cs),
(629,546,o),
(574,517,o),
(534,438,c),
(532,438,l),
(533,442,o),
(533,446,o),
(533,449,cs),
(533,498,o),
(513,546,o),
(446,546,cs),
(391,546,o),
(342,523,o),
(292,451,c),
(288,451,l),
(300,536,l),
(76,536,l),
(66,479,l),
(88,479,ls),
(110,479,o),
(118,473,o),
(118,454,cs),
(118,434,o),
(112,414,o),
(109,397,cs),
(25,0,l),
(190,0,l),
(242,249,ls),
(257,321,o),
(305,453,o),
(346,453,cs),
(360,453,o),
(363,433,o),
(363,416,cs),
(363,384,o),
(358,342,o),
(347,290,cs),
(333,223,ls),
(319,154,o),
(301,60,o),
(293,0,c),
(465,0,l),
(472,62,o),
(484,151,o),
(493,194,cs),
(507,264,ls),
(525,353,o),
(563,457,o),
(602,457,cs),
(618,457,o),
(620,434,o),
(620,415,cs),
(620,374,o),
(610,324,o),
(603,291,cs),
(586,209,ls),
(576,163,o),
(571,133,o),
(571,105,cs),
(571,47,o),
(600,-8,o),
(684,-8,cs)
);
}
);
width = 845;
},
{
anchors = (
{
name = bottom;
pos = (262,0);
},
{
name = center;
pos = (302,267);
},
{
name = top;
pos = (376,536);
},
{
name = topright;
pos = (674,536);
}
);
layerId = "9563C917-11DF-412F-BB09-FC0C1CFFA48C";
shapes = (
{
closed = 1;
nodes = (
(541,-9,o),
(565,6,o),
(584,31,c),
(569,48,l),
(556,32,o),
(539,16,o),
(520,16,cs),
(503,16,o),
(490,27,o),
(490,63,cs),
(490,101,o),
(496,136,o),
(506,183,cs),
(541,342,ls),
(547,370,o),
(558,412,o),
(558,453,cs),
(558,499,o),
(539,543,o),
(488,543,cs),
(439,543,o),
(400,508,o),
(353,422,c),
(347,422,l),
(348,432,o),
(349,443,o),
(349,453,cs),
(349,499,o),
(330,543,o),
(279,543,cs),
(230,543,o),
(191,508,o),
(144,422,c),
(138,422,l),
(163,536,l),
(72,536,l),
(67,516,l),
(77,516,ls),
(115,516,o),
(122,513,o),
(122,488,cs),
(122,479,o),
(116,449,o),
(112,428,cs),
(21,0,l),
(49,0,l),
(105,260,ls),
(127,363,o),
(198,518,o),
(277,518,cs),
(313,518,o),
(321,480,o),
(321,453,cs),
(321,416,o),
(310,372,o),
(304,342,cs),
(264,154,ls),
(254,94,o),
(248,49,o),
(248,0,c),
(276,0,l),
(276,49,o),
(282,94,o),
(292,154,cs),
(315,260,ls),
(337,363,o),
(407,518,o),
(486,518,cs),
(522,518,o),
(530,480,o),
(530,453,cs),
(530,416,o),
(520,372,o),
(513,342,cs),
(478,183,ls),
(468,136,o),
(462,101,o),
(462,63,cs),
(462,10,o),
(485,-9,o),
(518,-9,cs)
);
}
);
width = 609;
},
{
anchors = (
{
name = bottom;
pos = (344,0);
},
{
name = center;
pos = (404,266);
},
{
name = top;
pos = (458,536);
},
{
name = topright;
pos = (840,536);
}
);
layerId = "A783126C-D342-49FA-8B69-0453AD03268C";
shapes = (
{
closed = 1;
nodes = (
(715,-10,o),
(737,7,o),
(765,32,c),
(752,50,l),
(723,25,o),
(704,15,o),
(681,15,cs),
(651,15,o),
(641,41,o),
(641,83,cs),
(641,115,o),
(649,161,o),
(659,200,cs),
(689,332,ls),
(696,364,o),
(707,407,o),
(707,438,cs),
(707,495,o),
(681,543,o),
(610,543,cs),
(544,543,o),
(488,505,o),
(430,405,c),
(428,405,l),
(430,417,o),
(431,428,o),
(431,438,cs),
(431,495,o),
(405,543,o),
(334,543,cs),
(268,543,o),
(212,505,o),
(154,405,c),
(152,405,l),
(174,536,l),
(59,536,l),
(54,516,l),
(76,516,ls),
(129,516,o),
(137,511,o),
(137,479,cs),
(137,462,o),
(134,444,o),
(132,432,c),
(44,0,l),
(72,0,l),
(127,268,ls),
(152,389,o),
(237,518,o),
(323,518,cs),
(389,518,o),
(403,479,o),
(403,438,cs),
(403,409,o),
(388,346,o),
(385,332,cs),
(354,197,ls),
(339,131,o),
(329,66,o),
(328,0,c),
(356,0,l),
(357,66,o),
(367,131,o),
(382,197,cs),
(401,280,l),
(426,377,o),
(513,518,o),
(599,518,cs),
(665,518,o),
(679,479,o),
(679,438,cs),
(679,409,o),
(664,346,o),
(661,332,cs),
(631,200,ls),
(620,155,o),
(613,114,o),
(613,83,cs),
(613,20,o),
(634,-10,o),
(677,-10,cs)
);
}
);
width = 782;
},
{
anchors = (
{
name = bottom;
pos = (310,0);
},
{
name = center;
pos = (376,268);
},
{
name = top;
pos = (424,536);
},
{
name = topright;
pos = (769,536);
}
);
layerId = "44BFC83C-08F8-422F-A73E-536514612562";
shapes = (
{
closed = 1;
nodes = (
(661,-9,o),
(695,20,o),
(721,46,c),
(707,74,l),
(688,58,o),
(671,51,o),
(654,51,cs),
(638,51,o),
(629,66,o),
(629,93,cs),
(629,121,o),
(635,162,o),
(645,205,cs),
(669,322,ls),
(677,359,o),
(689,406,o),
(689,442,cs),
(689,496,o),
(667,545,o),
(606,545,cs),
(544,545,o),
(493,505,o),
(449,420,c),
(445,420,l),
(447,428,o),
(448,437,o),
(448,444,cs),
(448,496,o),
(427,545,o),
(366,545,cs),
(308,545,o),
(263,501,o),
(215,423,c),
(211,423,l),
(231,536,l),
(75,536,l),
(66,495,l),
(73,495,ls),
(101,495,o),
(124,488,o),
(124,455,cs),
(124,445,o),
(121,425,o),
(116,403,cs),
(32,0,l),
(120,0,l),
(173,256,ls),
(191,347,o),
(263,484,o),
(325,484,cs),
(353,484,o),
(359,456,o),
(359,433,cs),
(359,392,o),
(342,324,o),
(338,304,cs),
(320,225,ls),
(304,154,o),
(286,37,o),
(283,0,c),
(372,0,l),
(376,36,o),
(395,163,o),
(405,207,cs),
(419,271,ls),
(438,363,o),
(500,486,o),
(557,485,cs),
(587,485,o),
(598,463,o),
(598,431,cs),
(598,394,o),
(583,334,o),
(577,304,cs),
(560,225,ls),
(545,155,o),
(540,116,o),
(540,86,cs),
(540,35,o),
(561,-9,o),
(612,-9,cs)
);
}
);
width = 732;
},
{
anchors = (
{
name = bottom;
pos = (342,0);
},
{
name = center;
pos = (406,268);
},
{
name = top;
pos = (456,536);
},
{
name = topright;
pos = (833,536);
}
);
layerId = "50C02CB6-129D-4BF7-ADB7-784B68302109";
shapes = (
{
closed = 1;
nodes = (
(716,-9,o),
(759,25,o),
(785,57,c),
(766,89,l),
(748,74,o),
(735,66,o),
(718,66,cs),
(702,66,o),
(692,81,o),
(692,107,cs),
(692,134,o),
(699,169,o),
(708,211,cs),
(730,316,ls),
(738,353,o),
(750,405,o),
(750,441,cs),
(750,496,o),
(728,545,o),
(660,545,cs),
(592,545,o),
(539,512,o),
(497,430,c),
(494,430,l),
(496,436,o),
(496,442,o),
(496,447,cs),
(496,497,o),
(476,545,o),
(411,545,cs),
(355,545,o),
(308,513,o),
(258,439,c),
(254,439,l),
(270,536,l),
(76,536,l),
(66,486,l),
(82,486,ls),
(106,486,o),
(121,479,o),
(121,454,cs),
(121,439,o),
(116,419,o),
(112,400,cs),
(28,0,l),
(160,0,l),
(212,252,ls),
(228,332,o),
(287,466,o),
(337,466,cs),
(357,466,o),
(361,443,o),
(361,423,cs),
(361,387,o),
(351,334,o),
(343,296,cs),
(327,224,ls),
(313,154,o),
(295,50,o),
(289,0,c),
(425,0,l),
(430,51,o),
(445,156,o),
(455,200,cs),
(469,267,ls),
(487,357,o),
(536,470,o),
(583,469,cs),
(605,469,o),
(610,446,o),
(610,422,cs),
(610,383,o),
(598,328,o),
(592,297,cs),
(575,216,ls),
(562,160,o),
(557,126,o),
(557,97,cs),
(557,42,o),
(583,-9,o),
(653,-9,cs)
);
}
);
width = 796;
}
);
script = latin;
subCategory = Lowercase;
unicode = 109;
}
{
category = Letter;
glyphname = n;
kernLeft = n;
kernRight = n;
layers = (
{
anchors = (
{
name = bottom;
pos = (243,0);
},
{
name = center;
pos = (313,267);
},
{
name = top;
pos = (357,536);
},
{
name = topright;
pos = (636,536);
}
);
layerId = UUID0;
shapes = (
{
closed = 1;
nodes = (
(512,-10,o),
(550,20,o),
(582,47,c),
(564,76,l),
(541,61,o),
(521,53,o),
(500,53,cs),
(478,53,o),
(465,70,o),
(465,101,cs),
(465,131,o),
(470,169,o),
(478,206,cs),
(504,324,ls),
(511,358,o),
(522,401,o),
(522,434,cs),
(522,493,o),
(494,545,o),
(415,545,cs),
(340,545,o),
(287,498,o),
(233,410,c),
(223,410,l),
(250,536,l),
(65,536,l),
(56,494,l),
(64,494,ls),
(102,494,o),
(134,487,o),
(134,447,cs),
(134,441,o),
(132,421,o),
(128,402,cs),
(44,0,l),
(137,0,l),
(191,256,ls),
(208,337,o),
(296,481,o),
(380,481,cs),
(419,481,o),
(426,448,o),
(426,422,cs),
(426,387,o),
(411,330,o),
(405,303,cs),
(388,225,ls),
(375,164,o),
(369,122,o),
(369,90,cs),
(369,32,o),
(401,-10,o),
(460,-10,cs)
);
}
);
width = 599;
},
{
anchors = (
{
name = bottom;
pos = (279,0);
},
{
name = center;
pos = (346,268);
},
{
name = top;
pos = (393,536);
},
{
name = topright;
pos = (709,536);
}
);
layerId = "0748FCBA-26BB-4096-A322-99C7EC440251";
shapes = (
{
closed = 1;
nodes = (
(576,-10,o),
(624,25,o),
(656,59,c),
(632,93,l),
(609,78,o),
(594,70,o),
(573,70,cs),
(551,70,o),
(538,86,o),
(538,115,cs),
(538,143,o),
(544,175,o),
(552,211,cs),
(574,318,ls),
(581,353,o),
(592,397,o),
(592,431,cs),
(592,492,o),
(563,546,o),
(478,546,cs),
(389,546,o),
(334,509,o),
(283,429,c),
(277,429,l),
(288,536,l),
(66,536,l),
(57,483,l),
(75,483,ls),
(113,483,o),
(128,477,o),
(128,441,cs),
(128,436,o),
(125,415,o),
(121,398,cs),
(37,0,l),
(187,0,l),
(238,232,ls),
(255,310,o),
(324,460,o),
(392,460,cs),
(427,460,o),
(434,428,o),
(434,403,cs),
(434,370,o),
(421,317,o),
(416,291,cs),
(400,212,ls),
(389,161,o),
(384,121,o),
(384,93,cs),
(384,29,o),
(427,-10,o),
(503,-10,cs)
);
}
);
width = 672;
},
{
anchors = (
{
name = bottom;
pos = (306,0);
},
{
name = center;
pos = (371,268);
},
{
name = top;
pos = (420,536);
},
{
name = topright;
pos = (763,536);
}
);
layerId = "EFE4222C-09E4-4728-8E05-7459D7542305";
shapes = (
{
closed = 1;
nodes = (
(623,-10,o),
(679,29,o),
(711,68,c),
(682,106,l),
(660,90,o),
(645,83,o),
(627,83,cs),
(606,83,o),
(593,98,o),
(593,125,cs),
(593,152,o),
(600,179,o),
(607,215,cs),
(626,314,ls),
(633,349,o),
(644,394,o),
(644,429,cs),
(644,491,o),
(614,546,o),
(516,546,cs),
(431,546,o),
(375,517,o),
(320,443,c),
(317,443,l),
(316,536,l),
(69,536,l),
(58,475,l),
(83,475,ls),
(121,475,o),
(124,463,o),
(124,446,cs),
(124,432,o),
(120,411,o),
(116,395,cs),
(32,0,l),
(224,0,l),
(272,214,ls),
(290,296,o),
(348,445,o),
(406,445,cs),
(436,445,o),
(440,413,o),
(440,389,cs),
(440,357,o),
(430,307,o),
(425,282,cs),
(409,202,ls),
(400,159,o),
(395,126,o),
(395,101,cs),
(395,33,o),
(446,-10,o),
(535,-10,cs)
);
}
);
width = 726;
},
{
anchors = (
{
name = bottom;
pos = (250,0);
},
{
name = center;
pos = (309,268);
},
{
name = top;
pos = (364,536);
},
{
name = topright;
pos = (650,536);
}
);
layerId = "081AFB27-5722-432A-9779-C9794386CEF1";
shapes = (
{
closed = 1;
nodes = (
(517,-10,o),
(566,27,o),
(593,63,c),
(570,99,l),
(552,84,o),
(539,76,o),
(525,76,cs),
(509,76,o),
(499,90,o),
(499,116,cs),
(499,143,o),
(506,174,o),
(514,213,cs),
(533,310,ls),
(540,348,o),
(552,401,o),
(552,437,cs),
(552,495,o),
(528,546,o),
(451,546,cs),
(380,546,o),
(334,517,o),
(285,449,c),
(283,449,l),
(284,536,l),
(77,536,l),
(66,479,l),
(88,479,ls),
(112,479,o),
(119,472,o),
(119,456,cs),
(119,436,o),
(113,414,o),
(109,397,cs),
(25,0,l),
(190,0,l),
(238,209,ls),
(255,299,o),
(306,453,o),
(351,453,cs),
(372,453,o),
(376,427,o),
(376,404,cs),
(376,370,o),
(365,314,o),
(359,287,cs),
(343,207,ls),
(334,162,o),
(329,133,o),
(328,103,cs),
(325,33,o),
(366,-10,o),
(442,-10,cs)
);
}
);
width = 613;
},
{
anchors = (
{
name = bottom;
pos = (143,0);
},
{
name = center;
pos = (198,267);
},
{
name = top;
pos = (257,536);
},
{
name = topright;
pos = (437,536);
}
);
layerId = "9563C917-11DF-412F-BB09-FC0C1CFFA48C";
shapes = (
{
closed = 1;
nodes = (
(332,-9,o),
(356,6,o),
(375,31,c),
(360,48,l),
(347,32,o),
(330,16,o),
(311,16,cs),
(294,16,o),
(281,27,o),
(281,63,cs),
(281,101,o),
(287,136,o),
(297,183,cs),
(332,342,ls),
(338,370,o),
(349,412,o),
(349,453,cs),
(349,499,o),
(330,543,o),
(279,543,cs),
(230,543,o),
(191,508,o),
(144,422,c),
(138,422,l),
(163,536,l),
(72,536,l),
(67,516,l),
(77,516,ls),
(115,516,o),
(122,513,o),
(122,495,cs),
(122,479,o),
(116,449,o),
(112,428,c),
(21,0,l),
(49,0,l),
(105,260,ls),
(127,363,o),
(198,518,o),
(277,518,cs),
(313,518,o),
(321,480,o),
(321,453,cs),
(321,416,o),
(311,372,o),
(304,342,cs),
(269,183,ls),
(259,136,o),
(253,101,o),
(253,63,cs),
(253,10,o),
(276,-9,o),
(309,-9,cs)
);
}
);
width = 405;
},
{
anchors = (
{
name = bottom;
pos = (196,0);
},
{
name = center;
pos = (271,266);
},
{
name = top;
pos = (310,536);
},
{
name = topright;
pos = (543,536);
}
);
layerId = "A783126C-D342-49FA-8B69-0453AD03268C";
shapes = (
{
closed = 1;
nodes = (
(444,-10,o),
(466,7,o),
(494,32,c),
(481,50,l),
(452,25,o),
(433,15,o),
(410,15,cs),
(380,15,o),
(370,41,o),
(370,83,cs),
(370,115,o),
(378,161,o),
(388,200,cs),
(418,332,ls),
(425,364,o),
(436,407,o),
(436,438,cs),
(436,495,o),
(410,543,o),
(339,543,cs),
(273,543,o),
(217,505,o),
(159,405,c),
(157,405,l),
(179,536,l),
(64,536,l),
(59,516,l),
(81,516,ls),
(134,516,o),
(142,511,o),
(142,479,cs),
(142,462,o),
(139,444,o),
(137,432,cs),
(49,0,l),
(77,0,l),
(132,268,ls),
(157,389,o),
(242,518,o),
(328,518,cs),
(394,518,o),
(408,479,o),
(408,438,cs),
(408,409,o),
(393,346,o),
(390,332,cs),
(360,200,ls),
(349,155,o),
(342,114,o),
(342,83,cs),
(342,20,o),
(363,-10,o),
(406,-10,cs)
);
}
);
width = 506;
},
{
anchors = (
{
name = bottom;
pos = (192,0);
},
{
name = center;
pos = (257,267);
},
{
name = top;
pos = (306,536);
},
{
name = topright;
pos = (535,536);
}
);
layerId = "44BFC83C-08F8-422F-A73E-536514612562";
shapes = (
{
closed = 1;
nodes = (
(423,-10,o),
(458,20,o),
(483,45,c),
(468,73,l),
(450,58,o),
(433,50,o),
(416,50,cs),
(399,50,o),
(391,67,o),
(391,94,cs),
(391,121,o),
(397,163,o),
(407,206,cs),
(431,323,ls),
(438,360,o),
(450,407,o),
(450,442,cs),
(450,497,o),
(429,545,o),
(366,545,cs),
(307,545,o),
(262,504,o),
(214,426,c),
(210,426,l),
(227,536,l),
(76,536,l),
(66,495,l),
(73,495,ls),
(102,495,o),
(124,487,o),
(124,455,cs),
(124,444,o),
(121,424,o),
(116,403,cs),
(32,0,l),
(120,0,l),
(174,255,ls),
(191,340,o),
(263,484,o),
(325,484,cs),
(354,484,o),
(359,455,o),
(359,430,cs),
(359,395,o),
(345,333,o),
(339,305,cs),
(321,226,ls),
(307,156,o),
(302,118,o),
(302,86,cs),
(301,32,o),
(326,-10,o),
(375,-10,cs)
);
}
);
width = 498;
},
{
anchors = (
{
name = bottom;
pos = (225,0);
},
{
name = center;
pos = (286,267);
},
{
name = top;
pos = (339,536);
},
{
name = topright;
pos = (600,536);
}
);
layerId = "50C02CB6-129D-4BF7-ADB7-784B68302109";
shapes = (
{
closed = 1;
nodes = (
(476,-10,o),
(519,24,o),
(545,55,c),
(526,88,l),
(508,73,o),
(493,65,o),
(478,65,cs),
(461,65,o),
(452,80,o),
(452,106,cs),
(452,133,o),
(459,169,o),
(467,210,cs),
(489,316,ls),
(496,353,o),
(508,404,o),
(508,439,cs),
(508,496,o),
(485,545,o),
(414,545,cs),
(348,545,o),
(303,511,o),
(254,439,c),
(251,439,l),
(259,536,l),
(76,536,l),
(66,486,l),
(82,486,ls),
(108,486,o),
(121,479,o),
(121,456,cs),
(121,439,o),
(116,418,o),
(112,400,cs),
(28,0,l),
(160,0,l),
(210,229,ls),
(227,317,o),
(287,466,o),
(340,466,cs),
(364,466,o),
(369,439,o),
(369,415,cs),
(369,381,o),
(356,322,o),
(350,295,cs),
(333,215,ls),
(322,159,o),
(317,126,o),
(317,96,cs),
(315,32,o),
(349,-10,o),
(413,-10,cs)
);
}
);
width = 563;
}
);
script = latin;
subCategory = Lowercase;
unicode = 110;
}
{
category = Letter;
glyphname = p;
kernLeft = n;
kernRight = o;
layers = (
{
anchors = (
{
name = bottom;
pos = (71,-240);
},
{
name = center;
pos = (263,153);
},
{
name = top;
pos = (346,536);
},
{
name = topright;
pos = (594,536);
}
);
layerId = UUID0;
shapes = (
{
closed = 1;
nodes = (
(-7,-240,l),
(181,-240,l),
(190,-198,l),
(177,-198,ls),
(139,-198,o),
(107,-192,o),
(107,-152,cs),
(107,-137,o),
(114,-104,o),
(116,-96,cs),
(130,-35,ls),
(134,-19,o),
(137,2,o),
(138,13,c),
(163,-1,o),
(197,-10,o),
(236,-10,cs),
(436,-10,o),
(534,221,o),
(534,365,cs),
(534,482,o),
(488,546,o),
(407,546,cs),
(318,546,o),
(264,481,o),
(224,403,c),
(219,403,l),
(243,536,l),
(66,536,l),
(57,494,l),
(65,494,ls),
(103,494,o),
(135,487,o),
(135,447,cs),
(135,441,o),
(132,421,o),
(126,394,cs)
);
},
{
closed = 1;
nodes = (
(196,35,o),
(166,56,o),
(154,71,c),
(195,261,ls),
(214,348,o),
(291,483,o),
(369,483,cs),
(418,483,o),
(432,424,o),
(432,366,cs),
(432,243,o),
(360,35,o),
(233,35,cs)
);
}
);
width = 577;
},
{
anchors = (
{
name = bottom;
pos = (94,-240);
},
{
name = center;
pos = (276,153);
},
{
name = top;
pos = (369,536);
},
{
name = topright;
pos = (660,536);
}
);
layerId = "0748FCBA-26BB-4096-A322-99C7EC440251";
shapes = (
{
closed = 1;
nodes = (
(-30,-240,l),
(224,-240,l),
(233,-187,l),
(195,-187,ls),
(157,-187,o),
(142,-181,o),
(142,-145,cs),
(142,-140,o),
(145,-119,o),
(149,-102,cs),
(163,-35,ls),
(167,-19,o),
(170,2,o),
(171,13,c),
(197,-1,o),
(233,-10,o),
(273,-10,cs),
(481,-10,o),
(583,221,o),
(583,365,cs),
(583,482,o),
(525,546,o),
(437,546,cs),
(338,546,o),
(293,487,o),
(247,403,c),
(240,403,l),
(266,536,l),
(51,536,l),
(42,483,l),
(60,483,ls),
(98,483,o),
(113,477,o),
(113,441,cs),
(113,436,o),
(110,415,o),
(106,398,c)
);
},
{
closed = 1;
nodes = (
(231,54,o),
(203,70,o),
(191,82,c),
(229,261,l),
(245,341,o),
(311,466,o),
(378,466,cs),
(420,466,o),
(432,412,o),
(432,358,c),
(432,245,o),
(370,54,o),
(262,54,cs)
);
}
);
width = 623;
},
{
anchors = (
{
name = bottom;
pos = (81,-240);
},
{
name = center;
pos = (286,153);
},
{
name = top;
pos = (386,536);
},
{
name = topright;
pos = (694,536);
}
);
layerId = "EFE4222C-09E4-4728-8E05-7459D7542305";
shapes = (
{
closed = 1;
nodes = (
(-47,-240,l),
(256,-240,l),
(265,-179,l),
(218,-179,ls),
(180,-179,o),
(168,-173,o),
(168,-147,cs),
(168,-137,o),
(169,-128,o),
(173,-106,cs),
(187,-35,ls),
(191,-19,o),
(194,2,o),
(195,13,c),
(222,-1,o),
(260,-10,o),
(300,-10,cs),
(514,-10,o),
(619,195,o),
(619,365,cs),
(619,482,o),
(552,546,o),
(459,546,cs),
(359,546,o),
(314,491,o),
(264,403,c),
(256,403,l),
(283,536,l),
(42,536,l),
(31,475,l),
(56,475,ls),
(94,475,o),
(97,464,o),
(97,441,cs),
(97,432,o),
(94,417,o),
(91,401,cs)
);
},
{
closed = 1;
nodes = (
(257,68,o),
(230,80,o),
(218,90,c),
(254,261,ls),
(268,336,o),
(325,453,o),
(384,453,cs),
(421,453,o),
(432,403,o),
(432,352,cs),
(432,246,o),
(377,68,o),
(283,68,cs)
);
}
);
width = 657;
},
{
anchors = (
{
name = bottom;
pos = (78,-240);
},
{
name = center;
pos = (262,153);
},
{
name = top;
pos = (353,536);
},
{
name = topright;
pos = (604,536);
}
);
layerId = "081AFB27-5722-432A-9779-C9794386CEF1";
shapes = (
{
closed = 1;
nodes = (
(-27,-240,l),
(230,-240,l),
(239,-183,l),
(198,-183,ls),
(169,-183,o),
(160,-178,o),
(160,-154,cs),
(160,-138,o),
(162,-123,o),
(166,-104,cs),
(180,-35,ls),
(184,-19,o),
(187,2,o),
(188,13,c),
(212,-4,o),
(244,-11,o),
(269,-9,cs),
(455,-1,o),
(551,215,o),
(551,377,cs),
(551,486,o),
(498,546,o),
(424,546,cs),
(345,546,o),
(307,498,o),
(263,425,c),
(256,425,l),
(279,536,l),
(77,536,l),
(66,479,l),
(87,479,ls),
(111,479,o),
(118,473,o),
(118,454,cs),
(118,435,o),
(114,419,o),
(110,399,cs)
);
},
{
closed = 1;
nodes = (
(241,61,o),
(220,75,o),
(211,86,c),
(246,261,ls),
(261,339,o),
(310,460,o),
(356,460,cs),
(383,460,o),
(391,416,o),
(391,370,cs),
(391,260,o),
(338,61,o),
(261,61,cs)
);
}
);
width = 567;
},
{
anchors = (
{
name = bottom;
pos = (-2,-240);
},
{
name = center;
pos = (162,153);
},
{
name = top;
pos = (263,536);
},
{
name = topright;
pos = (418,536);
}
);
layerId = "9563C917-11DF-412F-BB09-FC0C1CFFA48C";
shapes = (
{
closed = 1;
nodes = (
(-35,-240,l),
(66,-240,l),
(71,-220,l),
(51,-220,ls),
(13,-220,o),
(6,-217,o),
(6,-192,cs),
(6,-183,o),
(12,-153,o),
(16,-132,cs),
(39,-24,ls),
(43,-7,o),
(46,11,o),
(48,28,c),
(65,8,o),
(95,-10,o),
(129,-10,cs),
(267,-10,o),
(359,218,o),
(359,388,cs),
(359,491,o),
(335,546,o),
(283,546,cs),
(227,546,o),
(187,503,o),
(133,405,c),
(129,405,l),
(155,536,l),
(62,536,l),
(57,516,l),
(75,516,ls),
(111,516,o),
(115,512,o),
(115,491,cs),
(115,480,o),
(112,449,o),
(105,419,cs)
);
},
{
closed = 1;
nodes = (
(97,15,o),
(71,33,o),
(57,59,c),
(101,267,ls),
(116,338,o),
(197,521,o),
(279,521,cs),
(311,521,o),
(331,478,o),
(331,387,cs),
(331,224,o),
(242,15,o),
(128,15,cs)
);
}
);
width = 386;
},
{
anchors = (
{
name = bottom;
pos = (12,-240);
},
{
name = center;
pos = (219,153);
},
{
name = top;
pos = (287,536);
},
{
name = topright;
pos = (496,536);
}
);
layerId = "A783126C-D342-49FA-8B69-0453AD03268C";
shapes = (
{
closed = 1;
nodes = (
(-5,-240,l),
(116,-240,l),
(121,-220,l),
(99,-220,ls),
(46,-220,o),
(36,-215,o),
(36,-196,cs),
(36,-176,o),
(41,-154,o),
(45,-136,cs),
(67,-35,ls),
(72,-13,o),
(73,1,o),
(74,13,c),
(97,-1,o),
(123,-10,o),
(160,-10,cs),
(350,-10,o),
(444,227,o),
(444,371,cs),
(444,488,o),
(408,546,o),
(331,546,cs),
(255,546,o),
(198,474,o),
(158,396,c),
(156,396,l),
(179,536,l),
(64,536,l),
(59,516,l),
(81,516,ls),
(134,516,o),
(143,510,o),
(143,492,cs),
(143,473,o),
(138,442,o),
(134,421,cs)
);
},
{
closed = 1;
nodes = (
(122,14,o),
(94,20,o),
(82,39,c),
(129,261,ls),
(149,356,o),
(237,521,o),
(330,521,cs),
(391,521,o),
(416,466,o),
(416,371,cs),
(416,236,o),
(321,14,o),
(167,14,cs)
);
}
);
width = 484;
},
{
anchors = (
{
name = bottom;
pos = (47,-240);
},
{
name = center;
pos = (223,153);
},
{
name = top;
pos = (300,536);
},
{
name = topright;
pos = (508,536);
}
);
layerId = "44BFC83C-08F8-422F-A73E-536514612562";
shapes = (
{
closed = 1;
nodes = (
(-14,-240,l),
(150,-240,l),
(159,-199,l),
(142,-199,ls),
(115,-199,o),
(94,-193,o),
(94,-158,cs),
(94,-137,o),
(98,-119,o),
(104,-95,cs),
(116,-35,ls),
(120,-19,o),
(123,2,o),
(124,13,c),
(145,-2,o),
(172,-10,o),
(202,-10,cs),
(370,-8,o),
(460,230,o),
(460,383,cs),
(460,488,o),
(423,546,o),
(360,546,cs),
(292,546,o),
(247,490,o),
(212,424,c),
(208,424,l),
(228,536,l),
(80,536,l),
(70,495,l),
(80,495,ls),
(108,495,o),
(129,488,o),
(129,455,cs),
(129,443,o),
(126,425,o),
(119,393,cs)
);
},
{
closed = 1;
nodes = (
(172,33,o),
(149,54,o),
(140,70,c),
(181,261,l),
(199,349,o),
(264,486,o),
(324,486,cs),
(359,486,o),
(369,435,o),
(369,383,cs),
(369,259,o),
(302,33,o),
(200,33,cs)
);
}
);
width = 478;
},
{
anchors = (
{
name = bottom;
pos = (64,-240);
},
{
name = center;
pos = (245,153);
},
{
name = top;
pos = (330,536);
},
{
name = topright;
pos = (562,536);
}
);
layerId = "50C02CB6-129D-4BF7-ADB7-784B68302109";
shapes = (
{
closed = 1;
nodes = (
(-21,-240,l),
(195,-240,l),
(204,-190,l),
(174,-190,ls),
(146,-190,o),
(131,-185,o),
(131,-156,cs),
(131,-138,o),
(134,-121,o),
(139,-100,cs),
(152,-35,ls),
(156,-19,o),
(159,2,o),
(160,13,c),
(183,-3,o),
(213,-11,o),
(240,-9,cs),
(418,-4,o),
(512,222,o),
(512,380,cs),
(512,487,o),
(465,546,o),
(396,546,cs),
(322,546,o),
(281,495,o),
(241,424,c),
(235,424,l),
(257,536,l),
(78,536,l),
(68,486,l),
(84,486,ls),
(110,486,o),
(123,479,o),
(123,454,cs),
(123,438,o),
(119,422,o),
(114,396,cs)
);
},
{
closed = 1;
nodes = (
(211,49,o),
(189,66,o),
(180,79,c),
(218,261,l),
(234,343,o),
(290,471,o),
(342,471,cs),
(373,471,o),
(381,424,o),
(381,376,cs),
(381,259,o),
(322,49,o),
(235,49,cs)
);
}
);
width = 528;
}
);
script = latin;
subCategory = Lowercase;
unicode = 112;
}
{
category = Letter;
glyphname = t;
kernLeft = t;
kernRight = t;
layers = (
{
anchors = (
{
name = bottom;
pos = (127,0);
},
{
name = center;
pos = (181,268);
},
{
name = top;
pos = (267,659);
},
{
name = topright;
pos = (335,980);
}
);
layerId = UUID0;
shapes = (
{
closed = 1;
nodes = (
(233,-10,o),
(278,10,o),
(318,38,c),
(301,75,l),
(279,63,o),
(247,53,o),
(219,53,cs),
(186,53,o),
(166,69,o),
(166,108,cs),
(166,129,o),
(171,161,o),
(178,194,cs),
(239,479,l),
(360,479,l),
(372,536,l),
(251,536,l),
(277,659,l),
(231,659,l),
(191,556,o),
(135,519,o),
(78,519,c),
(69,479,l),
(145,479,l),
(84,191,ls),
(79,166,o),
(74,131,o),
(74,107,cs),
(74,28,o),
(111,-10,o),
(183,-10,cs)
);
}
);
width = 368;
},
{
anchors = (
{
name = bottom;
pos = (152,0);
},
{
name = center;
pos = (206,268);
},
{
name = top;
pos = (292,659);
},
{
name = topright;
pos = (374,980);
}
);
layerId = "0748FCBA-26BB-4096-A322-99C7EC440251";
shapes = (
{
closed = 1;
nodes = (
(274,-10,o),
(327,22,o),
(371,60,c),
(348,98,l),
(326,84,o),
(301,72,o),
(270,72,cs),
(240,72,o),
(220,89,o),
(220,122,cs),
(220,141,o),
(223,165,o),
(230,194,cs),
(290,468,l),
(412,468,l),
(426,536,l),
(305,536,l),
(331,659,l),
(273,659,l),
(210,556,o),
(128,519,o),
(71,519,c),
(60,468,l),
(137,468,l),
(77,191,ls),
(72,166,o),
(67,131,o),
(67,107,cs),
(67,28,o),
(124,-10,o),
(197,-10,cs)
);
}
);
width = 417;
},
{
anchors = (
{
name = bottom;
pos = (170,0);
},
{
name = center;
pos = (224,268);
},
{
name = top;
pos = (310,659);
},
{
name = topright;
pos = (410,1020);
}
);
layerId = "EFE4222C-09E4-4728-8E05-7459D7542305";
shapes = (
{
closed = 1;
nodes = (
(304,-10,o),
(363,31,o),
(410,76,c),
(382,115,l),
(360,99,o),
(334,86,o),
(307,86,cs),
(279,86,o),
(259,104,o),
(259,132,cs),
(259,150,o),
(261,168,o),
(268,200,cs),
(327,460,l),
(450,460,l),
(465,536,l),
(344,536,l),
(370,659,l),
(304,659,l),
(224,556,o),
(122,519,o),
(65,519,c),
(53,460,l),
(131,460,l),
(71,191,ls),
(66,166,o),
(61,133,o),
(61,109,cs),
(61,30,o),
(129,-10,o),
(207,-10,cs)
);
}
);
width = 453;
},
{
anchors = (
{
name = bottom;
pos = (131,0);
},
{
name = center;
pos = (185,268);
},
{
name = top;
pos = (271,659);
},
{
name = topright;
pos = (363,1010);
}
);
layerId = "081AFB27-5722-432A-9779-C9794386CEF1";
shapes = (
{
closed = 1;
nodes = (
(254,-10,o),
(304,26,o),
(345,68,c),
(323,106,l),
(304,91,o),
(283,79,o),
(261,79,cs),
(240,79,o),
(224,95,o),
(224,124,cs),
(224,144,o),
(227,166,o),
(234,199,cs),
(292,464,l),
(393,464,l),
(408,536,l),
(309,536,l),
(335,659,l),
(280,659,l),
(207,556,o),
(119,519,o),
(72,519,c),
(60,464,l),
(123,464,l),
(64,191,ls),
(58,164,o),
(53,127,o),
(53,103,cs),
(53,28,o),
(108,-10,o),
(171,-10,cs)
);
}
);
width = 376;
},
{
anchors = (
{
name = bottom;
pos = (65,0);
},
{
name = center;
pos = (129,268);
},
{
name = top;
pos = (205,659);
},
{
name = topright;
pos = (261,930);
}
);
layerId = "9563C917-11DF-412F-BB09-FC0C1CFFA48C";
shapes = (
{
closed = 1;
nodes = (
(135,-10,o),
(165,-6,o),
(193,7,c),
(186,31,l),
(168,22,o),
(141,15,o),
(119,15,cs),
(93,15,o),
(83,35,o),
(83,69,cs),
(83,98,o),
(86,121,o),
(98,177,cs),
(167,511,l),
(248,511,l),
(253,536,l),
(172,536,l),
(198,659,l),
(173,659,l),
(149,544,o),
(141,533,o),
(74,529,c),
(72,511,l),
(139,511,l),
(70,177,ls),
(61,131,o),
(55,105,o),
(55,69,cs),
(55,23,o),
(71,-10,o),
(120,-10,cs)
);
}
);
width = 244;
},
{
anchors = (
{
name = bottom;
pos = (94,0);
},
{
name = center;
pos = (208,268);
},
{
name = top;
pos = (234,659);
},
{
name = topright;
pos = (279,900);
}
);
layerId = "A783126C-D342-49FA-8B69-0453AD03268C";
shapes = (
{
closed = 1;
nodes = (
(176,-10,o),
(212,-2,o),
(245,14,c),
(239,35,l),
(205,21,o),
(181,15,o),
(150,15,cs),
(113,15,o),
(99,37,o),
(99,75,cs),
(99,95,o),
(102,118,o),
(118,192,cs),
(186,511,l),
(296,511,l),
(301,536,l),
(190,536,l),
(217,659,l),
(197,659,l),
(168,536,o),
(159,531,o),
(88,529,c),
(84,511,l),
(158,511,l),
(90,192,ls),
(75,121,o),
(71,95,o),
(71,75,cs),
(71,28,o),
(89,-10,o),
(150,-10,cs)
);
}
);
width = 290;
},
{
anchors = (
{
name = bottom;
pos = (95,0);
},
{
name = center;
pos = (149,268);
},
{
name = top;
pos = (235,659);
},
{
name = topright;
pos = (311,960);
}
);
layerId = "44BFC83C-08F8-422F-A73E-536514612562";
shapes = (
{
closed = 1;
nodes = (
(195,-10,o),
(233,8,o),
(267,35,c),
(254,72,l),
(236,60,o),
(210,50,o),
(188,50,cs),
(163,50,o),
(149,67,o),
(149,101,cs),
(149,123,o),
(155,158,o),
(163,195,cs),
(223,480,l),
(319,480,l),
(331,536,l),
(236,536,l),
(262,659,l),
(222,659,l),
(180,556,o),
(129,519,o),
(83,519,c),
(74,480,l),
(135,480,l),
(74,191,ls),
(68,163,o),
(60,119,o),
(60,87,cs),
(60,27,o),
(93,-10,o),
(149,-10,cs)
);
}
);
width = 304;
},
{
anchors = (
{
name = bottom;
pos = (115,0);
},
{
name = center;
pos = (169,268);
},
{
name = top;
pos = (255,659);
},
{
name = topright;
pos = (352,990);
}
);
layerId = "50C02CB6-129D-4BF7-ADB7-784B68302109";
shapes = (
{
closed = 1;
nodes = (
(228,-10,o),
(273,18,o),
(311,54,c),
(293,91,l),
(274,78,o),
(251,66,o),
(229,66,cs),
(206,66,o),
(192,83,o),
(192,114,cs),
(192,135,o),
(196,163,o),
(203,197,cs),
(262,471,l),
(361,471,l),
(375,536,l),
(277,536,l),
(303,659,l),
(255,659,l),
(195,556,o),
(123,519,o),
(77,519,c),
(66,471,l),
(128,471,l),
(68,191,ls),
(62,164,o),
(56,124,o),
(56,96,cs),
(56,27,o),
(101,-10,o),
(161,-10,cs)
);
}
);
width = 345;
}
);
script = latin;
subCategory = Lowercase;
unicode = 116;
}
{
category = Letter;
glyphname = z;
kernLeft = z;
kernRight = z;
layers = (
{
anchors = (
{
name = bottom;
pos = (199,0);
},
{
name = center;
pos = (235,268);
},
{
name = top;
pos = (313,536);
},
{
name = topright;
pos = (548,536);
}
);
layerId = UUID0;
shapes = (
{
closed = 1;
nodes = (
(399,0,l),
(438,162,l),
(396,162,l),
(386,139,ls),
(368,96,o),
(347,57,o),
(301,57,cs),
(123,57,l),
(464,495,l),
(472,536,l),
(122,536,l),
(82,394,l),
(124,394,l),
(126,398,ls),
(151,451,o),
(167,479,o),
(220,479,cs),
(347,479,l),
(7,40,l),
(-1,0,l)
);
}
);
width = 511;
},
{
anchors = (
{
name = bottom;
pos = (222,0);
},
{
name = center;
pos = (266,268);
},
{
name = top;
pos = (336,536);
},
{
name = topright;
pos = (595,536);
}
);
layerId = "0748FCBA-26BB-4096-A322-99C7EC440251";
shapes = (
{
closed = 1;
nodes = (
(460,0,l),
(503,181,l),
(445,181,l),
(435,158,ls),
(417,115,o),
(395,68,o),
(349,68,cs),
(187,68,l),
(522,484,l),
(533,536,l),
(104,536,l),
(60,374,l),
(121,374,l),
(123,378,ls),
(148,431,o),
(165,468,o),
(218,468,cs),
(345,468,l),
(11,51,l),
(0,0,l)
);
}
);
width = 558;
},
{
anchors = (
{
name = bottom;
pos = (240,0);
},
{
name = center;
pos = (289,268);
},
{
name = top;
pos = (354,536);
},
{
name = topright;
pos = (630,536);
}
);
layerId = "EFE4222C-09E4-4728-8E05-7459D7542305";
shapes = (
{
closed = 1;
nodes = (
(505,0,l),
(551,195,l),
(481,195,l),
(471,172,ls),
(453,129,o),
(431,76,o),
(385,76,cs),
(234,76,l),
(565,476,l),
(578,536,l),
(111,536,l),
(64,359,l),
(139,359,l),
(141,363,ls),
(167,415,o),
(184,460,o),
(237,460,cs),
(344,460,l),
(14,59,l),
(1,0,l)
);
}
);
width = 593;
},
{
anchors = (
{
name = bottom;
pos = (189,0);
},
{
name = center;
pos = (251,268);
},
{
name = top;
pos = (303,536);
},
{
name = topright;
pos = (528,536);
}
);
layerId = "081AFB27-5722-432A-9779-C9794386CEF1";
shapes = (
{
closed = 1;
nodes = (
(421,0,l),
(467,188,l),
(407,188,l),
(398,165,ls),
(382,122,o),
(362,72,o),
(324,72,cs),
(203,72,l),
(489,480,l),
(502,536,l),
(111,536,l),
(66,367,l),
(129,367,l),
(131,371,ls),
(156,422,o),
(170,464,o),
(213,464,cs),
(299,464,l),
(15,55,l),
(1,0,l)
);
}
);
width = 491;
},
{
anchors = (
{
name = bottom;
pos = (122,0);
},
{
name = center;
pos = (165,268);
},
{
name = top;
pos = (236,536);
},
{
name = topright;
pos = (394,536);
}
);
layerId = "9563C917-11DF-412F-BB09-FC0C1CFFA48C";
shapes = (
{
closed = 1;
nodes = (
(249,0,l),
(282,126,l),
(260,126,l),
(253,103,ls),
(230,28,o),
(227,25,o),
(182,25,cs),
(29,25,l),
(338,519,l),
(340,536,l),
(120,536,l),
(87,431,l),
(109,431,l),
(113,442,ls),
(138,510,o),
(142,511,o),
(184,511,cs),
(303,511,l),
(-6,16,l),
(-9,0,l)
);
}
);
width = 357;
},
{
anchors = (
{
name = bottom;
pos = (169,0);
},
{
name = center;
pos = (206,268);
},
{
name = top;
pos = (283,536);
},
{
name = topright;
pos = (487,536);
}
);
layerId = "A783126C-D342-49FA-8B69-0453AD03268C";
shapes = (
{
closed = 1;
nodes = (
(325,0,l),
(358,138,l),
(338,138,l),
(323,85,ls),
(308,34,o),
(302,25,o),
(243,25,cs),
(41,25,l),
(406,515,l),
(411,536,l),
(149,536,l),
(113,420,l),
(133,420,l),
(151,471,ls),
(164,508,o),
(166,511,o),
(218,511,cs),
(371,511,l),
(6,21,l),
(1,0,l)
);
}
);
width = 444;
},
{
anchors = (
{
name = bottom;
pos = (152,0);
},
{
name = center;
pos = (207,268);
},
{
name = top;
pos = (266,536);
},
{
name = topright;
pos = (456,536);
}
);
layerId = "44BFC83C-08F8-422F-A73E-536514612562";
shapes = (
{
closed = 1;
nodes = (
(332,0,l),
(371,160,l),
(334,160,l),
(325,137,l),
(308,90,o),
(290,52,o),
(253,52,cs),
(112,52,l),
(407,496,l),
(415,536,l),
(122,536,l),
(83,397,l),
(120,397,l),
(122,401,ls),
(148,456,o),
(159,484,o),
(201,484,cs),
(302,484,l),
(8,39,l),
(0,0,l)
);
}
);
width = 419;
},
{
anchors = (
{
name = bottom;
pos = (173,0);
},
{
name = center;
pos = (232,268);
},
{
name = top;
pos = (287,536);
},
{
name = topright;
pos = (497,536);
}
);
layerId = "50C02CB6-129D-4BF7-ADB7-784B68302109";
shapes = (
{
closed = 1;
nodes = (
(382,0,l),
(425,176,l),
(375,176,l),
(366,153,l),
(350,108,o),
(331,63,o),
(293,63,cs),
(164,63,l),
(453,487,l),
(464,536,l),
(116,536,l),
(73,380,l),
(125,380,l),
(127,384,ls),
(153,437,o),
(165,473,o),
(208,473,cs),
(300,473,l),
(12,48,l),
(0,0,l)
);
}
);
width = 460;
}
);
script = latin;
subCategory = Lowercase;
unicode = 122;
}
{
category = Symbol;
glyphname = asciitilde;
layers = (
{
layerId = "EFE4222C-09E4-4728-8E05-7459D7542305";
shapes = (
{
closed = 1;
nodes = (
(118,257,l),
(118,343,o),
(139,373,o),
(172,373,cs),
(199,373,o),
(213,357,o),
(255,323,cs),
(315,274,o),
(343,257,o),
(400,257,cs),
(503,257,o),
(530,323,o),
(533,456,c),
(448,456,l),
(448,371,o),
(434,340,o),
(402,340,cs),
(377,340,o),
(357,355,o),
(314,389,cs),
(246,443,o),
(227,456,o),
(179,456,cs),
(72,456,o),
(35,379,o),
(35,257,c)
);
}
);
width = 569;
},
{
layerId = UUID0;
shapes = (
{
closed = 1;
nodes = (
(113,269,l),
(120,347,o),
(137,385,o),
(176,385,cs),
(207,385,o),
(231,362,o),
(262,332,cs),
(299,296,o),
(335,269,o),
(382,269,cs),
(476,269,o),
(496,375,o),
(504,444,c),
(444,444,l),
(435,370,o),
(420,328,o),
(383,328,cs),
(355,328,o),
(329,352,o),
(301,378,cs),
(254,421,o),
(222,444,o),
(176,444,cs),
(81,444,o),
(61,346,o),
(54,269,c)
);
}
);
width = 559;
},
{
layerId = "0748FCBA-26BB-4096-A322-99C7EC440251";
shapes = (
{
closed = 1;
nodes = (
(119,262,l),
(120,343,o),
(140,378,o),
(180,378,cs),
(200,378,o),
(210,369,o),
(256,327,cs),
(308,279,o),
(340,262,o),
(383,262,cs),
(477,262,o),
(508,345,o),
(512,451,c),
(438,451,l),
(435,373,o),
(416,335,o),
(381,335,cs),
(361,335,o),
(347,349,o),
(306,384,cs),
(251,431,o),
(226,451,o),
(178,451,cs),
(76,451,o),
(46,359,o),
(46,262,c)
);
}
);
width = 559;
},
{
layerId = "081AFB27-5722-432A-9779-C9794386CEF1";
shapes = (
{
closed = 1;
nodes = (
(119,260,l),
(119,344,o),
(135,376,o),
(165,376,cs),
(183,376,o),
(194,365,o),
(229,325,cs),
(278,270,o),
(304,260,o),
(335,260,cs),
(425,260,o),
(452,347,o),
(452,453,c),
(379,453,l),
(379,367,o),
(363,337,o),
(334,337,cs),
(314,337,o),
(305,352,o),
(274,385,cs),
(225,437,o),
(198,453,o),
(161,453,cs),
(74,453,o),
(46,366,o),
(46,260,c)
);
}
);
width = 425;
},
{
layerId = "9563C917-11DF-412F-BB09-FC0C1CFFA48C";
shapes = (
{
closed = 1;
nodes = (
(91,277,l),
(101,354,o),
(111,409,o),
(150,409,cs),
(171,409,o),
(184,394,o),
(219,345,cs),
(252,298,o),
(273,278,o),
(306,278,cs),
(373,278,o),
(386,368,o),
(394,435,c),
(366,435,l),
(356,358,o),
(345,305,o),
(306,305,cs),
(285,305,o),
(271,318,o),
(237,367,cs),
(204,415,o),
(183,436,o),
(150,436,cs),
(83,436,o),
(71,344,o),
(63,277,c)
);
}
);
width = 425;
},
{
layerId = "A783126C-D342-49FA-8B69-0453AD03268C";
shapes = (
{
closed = 1;
nodes = (
(94,277,l),
(111,363,o),
(124,408,o),
(173,408,cs),
(220,408,o),
(250,367,o),
(277,339,cs),
(310,304,o),
(345,277,o),
(386,277,cs),
(467,277,o),
(483,381,o),
(494,436,c),
(463,436,l),
(447,370,o),
(437,305,o),
(386,305,cs),
(353,305,o),
(322,333,o),
(289,367,cs),
(255,402,o),
(223,436,o),
(173,436,cs),
(89,436,o),
(79,341,o),
(64,277,c)
);
}
);
width = 559;
},
{
layerId = "44BFC83C-08F8-422F-A73E-536514612562";
shapes = (
{
closed = 1;
nodes = (
(99,270,l),
(105,351,o),
(118,389,o),
(150,389,cs),
(171,389,o),
(185,370,o),
(214,335,cs),
(261,278,o),
(285,270,o),
(315,270,cs),
(386,270,o),
(407,362,o),
(413,444,c),
(359,444,l),
(353,363,o),
(342,325,o),
(311,325,cs),
(290,325,o),
(275,345,o),
(246,378,cs),
(210,418,o),
(185,444,o),
(146,444,cs),
(72,444,o),
(51,354,o),
(45,270,c)
);
}
);
width = 425;
},
{
layerId = "50C02CB6-129D-4BF7-ADB7-784B68302109";
shapes = (
{
closed = 1;
nodes = (
(110,264,l),
(113,347,o),
(128,382,o),
(158,382,cs),
(178,382,o),
(190,367,o),
(223,329,cs),
(271,273,o),
(296,264,o),
(326,264,cs),
(408,264,o),
(433,353,o),
(435,449,c),
(370,449,l),
(368,365,o),
(354,332,o),
(324,332,cs),
(304,332,o),
(292,349,o),
(262,382,cs),
(218,429,o),
(192,449,o),
(155,449,cs),
(73,449,o),
(48,361,o),
(46,264,c)
);
}
);
width = 425;
}
);
script = "";
subCategory = Math;
unicode = 126;
}
{
category = Symbol;
glyphname = cent;
layers = (
{
layerId = UUID0;
shapes = (
{
closed = 1;
nodes = (
(223,0,l),
(273,0,l),
(291,86,l),
(402,90,o),
(452,153,o),
(452,196,cs),
(452,207,o),
(448,217,o),
(442,221,c),
(415,187,o),
(371,151,o),
(304,149,c),
(396,584,l),
(425,566,o),
(439,524,o),
(439,476,c),
(496,476,o),
(528,508,o),
(528,546,cs),
(528,590,o),
(490,633,o),
(408,640,c),
(424,714,l),
(374,714,l),
(358,641,l),
(179,625,o),
(84,435,o),
(84,293,cs),
(84,170,o),
(152,103,o),
(242,89,c)
);
},
{
closed = 1;
nodes = (
(256,156,l),
(211,172,o),
(188,217,o),
(188,285,cs),
(188,388,o),
(249,576,o),
(348,592,c)
);
}
);
width = 559;
},
{
layerId = "0748FCBA-26BB-4096-A322-99C7EC440251";
shapes = (
{
closed = 1;
nodes = (
(235,0,l),
(297,0,l),
(314,82,l),
(446,86,o),
(505,146,o),
(505,196,cs),
(505,216,o),
(497,232,o),
(489,240,c),
(458,198,o),
(416,158,o),
(330,157,c),
(416,564,l),
(441,541,o),
(453,499,o),
(453,451,c),
(541,451,o),
(575,494,o),
(575,535,cs),
(575,588,o),
(532,634,o),
(432,640,c),
(448,714,l),
(386,714,l),
(370,638,l),
(171,616,o),
(67,428,o),
(67,289,cs),
(67,167,o),
(147,100,o),
(253,85,c)
);
},
{
closed = 1;
nodes = (
(272,174,l),
(238,194,o),
(220,233,o),
(220,287,cs),
(220,384,o),
(272,559,o),
(357,579,c)
);
}
);
width = 559;
},
{
layerId = "EFE4222C-09E4-4728-8E05-7459D7542305";
shapes = (
{
closed = 1;
nodes = (
(248,0,l),
(319,0,l),
(335,79,l),
(483,83,o),
(549,141,o),
(549,196,cs),
(549,223,o),
(538,243,o),
(528,254,c),
(494,206,o),
(454,163,o),
(354,163,c),
(435,549,l),
(457,523,o),
(468,481,o),
(468,433,c),
(579,433,o),
(614,484,o),
(614,527,cs),
(614,587,o),
(567,635,o),
(454,640,c),
(470,714,l),
(399,714,l),
(383,636,l),
(170,609,o),
(59,423,o),
(59,286,cs),
(59,165,o),
(148,98,o),
(266,82,c)
);
},
{
closed = 1;
nodes = (
(289,187,l),
(263,210,o),
(249,245,o),
(249,288,cs),
(249,381,o),
(294,546,o),
(369,569,c)
);
}
);
width = 569;
},
{
layerId = "081AFB27-5722-432A-9779-C9794386CEF1";
shapes = (
{
closed = 1;
nodes = (
(215,0,l),
(275,0,l),
(291,81,l),
(417,85,o),
(475,145,o),
(475,199,cs),
(475,221,o),
(466,238,o),
(459,247,c),
(428,202,o),
(394,160,o),
(310,160,c),
(391,557,l),
(407,532,o),
(414,490,o),
(412,442,c),
(488,442,o),
(546,486,o),
(542,549,cs),
(540,597,o),
(501,636,o),
(410,640,c),
(426,714,l),
(367,714,l),
(350,637,l),
(168,612,o),
(68,417,o),
(68,278,cs),
(68,163,o),
(138,98,o),
(233,84,c)
);
},
{
closed = 1;
nodes = (
(256,180,l),
(239,199,o),
(230,233,o),
(230,275,cs),
(230,368,o),
(273,551,o),
(336,574,c)
);
}
);
width = 505;
},
{
layerId = "9563C917-11DF-412F-BB09-FC0C1CFFA48C";
shapes = (
{
closed = 1;
nodes = (
(155,0,l),
(183,0,l),
(202,92,l),
(281,95,o),
(312,155,o),
(312,184,cs),
(312,192,o),
(307,197,o),
(302,197,c),
(283,158,o),
(256,121,o),
(208,117,c),
(314,618,l),
(348,612,o),
(364,582,o),
(364,520,c),
(380,520,o),
(391,532,o),
(391,549,cs),
(391,592,o),
(370,635,o),
(319,643,c),
(334,714,l),
(306,714,l),
(291,643,l),
(164,632,o),
(92,420,o),
(92,281,cs),
(92,168,o),
(122,107,o),
(175,94,c)
);
},
{
closed = 1;
nodes = (
(180,119,l),
(143,132,o),
(120,189,o),
(120,280,cs),
(120,392,o),
(177,602,o),
(286,618,c)
);
}
);
width = 424;
},
{
layerId = "A783126C-D342-49FA-8B69-0453AD03268C";
shapes = (
{
closed = 1;
nodes = (
(200,0,l),
(228,0,l),
(248,93,l),
(338,96,o),
(388,148,o),
(388,185,cs),
(388,191,o),
(386,196,o),
(383,198,c),
(356,155,o),
(313,122,o),
(254,120,c),
(360,619,l),
(412,615,o),
(443,582,o),
(443,510,c),
(459,510,o),
(469,517,o),
(469,539,cs),
(469,596,o),
(431,639,o),
(365,644,c),
(380,714,l),
(352,714,l),
(337,644,l),
(195,633,o),
(107,453,o),
(107,296,cs),
(107,161,o),
(154,104,o),
(220,94,c)
);
},
{
closed = 1;
nodes = (
(226,122,l),
(170,131,o),
(135,181,o),
(135,296,cs),
(135,435,o),
(210,606,o),
(332,619,c)
);
}
);
width = 511;
},
{
layerId = "44BFC83C-08F8-422F-A73E-536514612562";
shapes = (
{
closed = 1;
nodes = (
(185,0,l),
(228,0,l),
(246,87,l),
(340,91,o),
(386,156,o),
(386,198,cs),
(386,206,o),
(382,215,o),
(377,219,c),
(353,186,o),
(317,151,o),
(259,148,c),
(350,587,l),
(372,569,o),
(380,527,o),
(378,479,c),
(426,479,o),
(461,510,o),
(460,554,cs),
(460,594,o),
(429,633,o),
(363,640,c),
(378,714,l),
(336,714,l),
(320,641,l),
(167,626,o),
(80,424,o),
(80,279,cs),
(80,166,o),
(132,102,o),
(204,90,c)
);
},
{
closed = 1;
nodes = (
(219,154,l),
(188,168,o),
(173,210,o),
(173,270,cs),
(173,375,o),
(230,577,o),
(310,593,c)
);
}
);
width = 460;
},
{
layerId = "50C02CB6-129D-4BF7-ADB7-784B68302109";
shapes = (
{
closed = 1;
nodes = (
(201.99,0,l),
(254,0,l),
(271,84,l),
(384,88,o),
(436,150,o),
(436,198,cs),
(436,215,o),
(430,228,o),
(423,235,c),
(395,195,o),
(360,156,o),
(288,155,c),
(373,570,l),
(392,548,o),
(399,506,o),
(397,458,c),
(461,458,o),
(509,496,o),
(506,551,cs),
(505,596,o),
(470,635,o),
(389,640,c),
(405,714,l),
(354,714,l),
(337,639,l),
(167,618,o),
(73,420,o),
(73,279,cs),
(73,164,o),
(135,100,o),
(220,87,c)
);
},
{
closed = 1;
nodes = (
(240,169,l),
(217,185,o),
(205,223,o),
(205,273,cs),
(205,371,o),
(254,562,o),
(325,582,c)
);
}
);
width = 486;
}
);
script = "";
subCategory = Currency;
unicode = 162;
}
{
category = Symbol;
glyphname = currency;
layers = (
{
layerId = UUID0;
shapes = (
{
closed = 1;
nodes = (
(180,209,l),
(210,187,o),
(247,175,o),
(287,175,cs),
(327,175,o),
(364,188,o),
(394,209,c),
(461,143,l),
(502,185,l),
(436,251,l),
(458,281,o),
(471,318,o),
(471,358,cs),
(471,398,o),
(458,435,o),
(436,465,c),
(502,531,l),
(460,574,l),
(393,507,l),
(363,529,o),
(326,542,o),
(287,542,cs),
(246,542,o),
(209,529,o),
(179,507,c),
(114,573,l),
(72,531,l),
(138,465,l),
(116,435,o),
(104,398,o),
(104,358,c),
(104,318,o),
(116,281,o),
(137,251,c),
(72,185,l),
(114,143,l)
);
},
{
closed = 1;
nodes = (
(217,230,o),
(160,288,o),
(160,358,c),
(160,430,o),
(217,487,o),
(287,487,cs),
(359,487,o),
(415,430,o),
(415,358,cs),
(415,288,o),
(359,230,o),
(287,230,cs)
);
}
);
width = 559;
},
{
layerId = "0748FCBA-26BB-4096-A322-99C7EC440251";
shapes = (
{
closed = 1;
nodes = (
(191,204,l),
(220,184,o),
(256,173,o),
(294,173,cs),
(332,173,o),
(368,185,o),
(398,205,c),
(457,146,l),
(507,196,l),
(448,255,l),
(467,284,o),
(478,318,o),
(478,356,cs),
(478,394,o),
(466,429,o),
(446,458,c),
(507,520,l),
(457,571,l),
(395,509,l),
(366,529,o),
(331,540,o),
(294,540,cs),
(256,540,o),
(222,529,o),
(193,510,c),
(133,570,l),
(83,520,l),
(143,460,l),
(122,431,o),
(111,394,o),
(111,356,c),
(111,318,o),
(121,284,o),
(140,255,c),
(82,197,l),
(133,146,l)
);
},
{
closed = 1;
nodes = (
(230,240,o),
(179,292,o),
(179,356,c),
(179,422,o),
(230,473,o),
(294,473,cs),
(360,473,o),
(409,422,o),
(409,356,cs),
(409,292,o),
(360,240,o),
(294,240,c)
);
}
);
width = 559;
},
{
layerId = "EFE4222C-09E4-4728-8E05-7459D7542305";
shapes = (
{
closed = 1;
nodes = (
(204,200,l),
(232,182,o),
(267,172,o),
(304,172,cs),
(340,172,o),
(376,183,o),
(406,202,c),
(459,148,l),
(515,204,l),
(461,258,l),
(478,286,o),
(488,318,o),
(488,355,cs),
(488,391,o),
(477,425,o),
(458,453,c),
(515,512,l),
(459,569,l),
(401,510,l),
(373,529,o),
(339,539,o),
(304,539,cs),
(268,539,o),
(236,529,o),
(208,512,c),
(152,568,l),
(96,512,l),
(151,456,l),
(131,428,o),
(121,391,o),
(121,355,c),
(121,318,o),
(129,286,o),
(147,258,c),
(94,206,l),
(152,148,l)
);
},
{
closed = 1;
nodes = (
(245,247,o),
(198,295,o),
(198,355,c),
(198,416,o),
(245,463,o),
(304,463,cs),
(366,463,o),
(410,416,o),
(410,355,cs),
(410,295,o),
(366,247,o),
(304,247,cs)
);
}
);
width = 569;
},
{
layerId = "081AFB27-5722-432A-9779-C9794386CEF1";
shapes = (
{
closed = 1;
nodes = (
(217,200,l),
(245,182,o),
(280,172,o),
(317,172,cs),
(353,172,o),
(389,183,o),
(419,202,c),
(472,148,l),
(528,204,l),
(474,258,l),
(491,286,o),
(501,318,o),
(501,355,cs),
(501,391,o),
(490,425,o),
(471,453,c),
(528,512,l),
(472,569,l),
(414,510,l),
(386,529,o),
(352,539,o),
(317,539,cs),
(281,539,o),
(249,529,o),
(221,512,c),
(165,568,l),
(109,512,l),
(164,456,l),
(144,428,o),
(134,391,o),
(134,355,cs),
(134,318,o),
(142,286,o),
(160,258,c),
(107,206,l),
(165,148,l)
);
},
{
closed = 1;
nodes = (
(258,247,o),
(211,295,o),
(211,355,cs),
(211,416,o),
(258,463,o),
(317,463,cs),
(379,463,o),
(423,416,o),
(423,355,cs),
(423,295,o),
(379,247,o),
(317,247,cs)
);
}
);
width = 559;
},
{
layerId = "9563C917-11DF-412F-BB09-FC0C1CFFA48C";
shapes = (
{
closed = 1;
nodes = (
(138,224,l),
(169,197,o),
(210,181,o),
(254,181,cs),
(298,181,o),
(338,197,o),
(369,223,c),
(441,151,l),
(461,171,l),
(389,243,l),
(415,275,o),
(431,315,o),
(431,360,cs),
(431,404,o),
(415,444,o),
(389,475,c),
(461,547,l),
(441,567,l),
(369,495,l),
(338,521,o),
(298,537,o),
(254,537,cs),
(209,537,o),
(169,521,o),
(137,495,c),
(65,567,l),
(45,547,l),
(117,475,l),
(91,444,o),
(75,404,o),
(75,360,cs),
(75,316,o),
(91,275,o),
(118,244,c),
(45,171,l),
(65,151,l)
);
},
{
closed = 1;
nodes = (
(170,209,o),
(103,276,o),
(103,359,cs),
(103,442,o),
(170,509,o),
(253,509,cs),
(336,509,o),
(403,442,o),
(403,359,cs),
(403,275,o),
(336,209,o),
(253,209,cs)
);
}
);
width = 452;
},
{
layerId = "A783126C-D342-49FA-8B69-0453AD03268C";
shapes = (
{
closed = 1;
nodes = (
(154,224,l),
(185,197,o),
(226,181,o),
(270,181,cs),
(314,181,o),
(354,197,o),
(385,223,c),
(457,151,l),
(477,171,l),
(405,243,l),
(431,275,o),
(447,315,o),
(447,360,cs),
(447,404,o),
(431,444,o),
(405,475,c),
(477,547,l),
(457,567,l),
(385,495,l),
(354,521,o),
(314,537,o),
(270,537,cs),
(225,537,o),
(185,521,o),
(153,495,c),
(81,567,l),
(61,547,l),
(133,475,l),
(107,444,o),
(91,404,o),
(91,360,cs),
(91,316,o),
(107,275,o),
(134,244,c),
(61,171,l),
(81,151,l)
);
},
{
closed = 1;
nodes = (
(186,209,o),
(119,276,o),
(119,359,cs),
(119,442,o),
(186,509,o),
(269,509,cs),
(352,509,o),
(419,442,o),
(419,359,cs),
(419,275,o),
(352,209,o),
(269,209,cs)
);
}
);
width = 511;
},
{
layerId = "44BFC83C-08F8-422F-A73E-536514612562";
shapes = (
{
closed = 1;
nodes = (
(197,209,l),
(227,187,o),
(264,175,o),
(305,175,cs),
(344,175,o),
(381,188,o),
(411,209,c),
(478,143,l),
(519,185,l),
(453,251,l),
(475,281,o),
(489,318,o),
(489,358,cs),
(489,398,o),
(475,435,o),
(453,465,c),
(519,531,l),
(477,574,l),
(410,507,l),
(380,529,o),
(343,542,o),
(305,542,cs),
(263,542,o),
(226,529,o),
(196,507,c),
(131,573,l),
(89,531,l),
(155,465,l),
(133,435,o),
(122,398,o),
(122,358,cs),
(122,318,o),
(133,281,o),
(154,251,c),
(89,185,l),
(131,143,l)
);
},
{
closed = 1;
nodes = (
(235,230,o),
(177,288,o),
(177,358,cs),
(177,430,o),
(235,487,o),
(305,487,cs),
(376,487,o),
(432,430,o),
(432,358,cs),
(432,288,o),
(376,230,o),
(305,230,cs)
);
}
);
width = 559;
},
{
layerId = "50C02CB6-129D-4BF7-ADB7-784B68302109";
shapes = (
{
closed = 1;
nodes = (
(208,204,l),
(237,184,o),
(273,173,o),
(312,173,cs),
(349,173,o),
(386,185,o),
(416,205,c),
(475,146,l),
(524,196,l),
(465,255,l),
(484,284,o),
(496,318,o),
(496,356,cs),
(496,394,o),
(484,429,o),
(463,458,c),
(524,520,l),
(474,571,l),
(412,509,l),
(383,529,o),
(348,540,o),
(312,540,cs),
(273,540,o),
(239,529,o),
(210,510,c),
(150,570,l),
(100,520,l),
(160,460,l),
(139,431,o),
(129,394,o),
(129,356,cs),
(129,318,o),
(138,284,o),
(157,255,c),
(99,197,l),
(150,146,l)
);
},
{
closed = 1;
nodes = (
(248,240,o),
(196,292,o),
(196,356,cs),
(196,422,o),
(248,473,o),
(312,473,cs),
(378,473,o),
(427,422,o),
(427,356,cs),
(427,292,o),
(378,240,o),
(312,240,cs)
);
}
);
width = 559;
}
);
script = "";
subCategory = Currency;
unicode = 164;
}
{
category = Mark;
glyphname = dieresis;
layers = (
{
anchors = (
{
name = top;
pos = (348,745);
}
);
layerId = UUID0;
shapes = (
{
closed = 1;
nodes = (
(467,632,o),
(495,648,o),
(495,695,cs),
(495,729,o),
(474,745,o),
(445,745,cs),
(412,745,o),
(391,720,o),
(391,682,cs),
(391,648,o),
(411,632,o),
(441,632,cs)
);
},
{
closed = 1;
nodes = (
(277,632,o),
(305,648,o),
(305,695,cs),
(305,729,o),
(284,745,o),
(255,745,cs),
(222,745,o),
(201,720,o),
(201,682,cs),
(201,648,o),
(221,632,o),
(251,632,cs)
);
}
);
width = 577;
},
{
anchors = (
{
name = top;
pos = (348,763);
}
);
layerId = "0748FCBA-26BB-4096-A322-99C7EC440251";
shapes = (
{
closed = 1;
nodes = (
(489,622,o),
(524,642,o),
(524,701,cs),
(524,743,o),
(498,763,o),
(462,763,cs),
(421,763,o),
(395,731,o),
(395,684,cs),
(395,642,o),
(420,622,o),
(457,622,cs)
);
},
{
closed = 1;
nodes = (
(266,622,o),
(301,642,o),
(301,701,cs),
(301,743,o),
(275,763,o),
(239,763,cs),
(198,763,o),
(172,731,o),
(172,684,cs),
(172,642,o),
(197,622,o),
(234,622,cs)
);
}
);
width = 577;
},
{
anchors = (
{
name = top;
pos = (350,771);
}
);
layerId = "EFE4222C-09E4-4728-8E05-7459D7542305";
shapes = (
{
closed = 1;
nodes = (
(507,612,o),
(546,635,o),
(546,702,cs),
(546,748,o),
(517,771,o),
(476,771,cs),
(428,771,o),
(400,735,o),
(400,681,cs),
(400,635,o),
(427,612,o),
(470,612,cs)
);
},
{
closed = 1;
nodes = (
(261,612,o),
(300,635,o),
(300,702,cs),
(300,748,o),
(272,771,o),
(230,771,cs),
(183,771,o),
(154,735,o),
(154,681,cs),
(154,635,o),
(181,612,o),
(224,612,cs)
);
}
);
width = 577;
},
{
anchors = (
{
name = top;
pos = (309,753);
}
);
layerId = "081AFB27-5722-432A-9779-C9794386CEF1";
shapes = (
{
closed = 1;
nodes = (
(425,613,o),
(457,634,o),
(457,696,cs),
(457,735,o),
(437,753,o),
(406,753,cs),
(368,753,o),
(344,719,o),
(344,670,cs),
(344,631,o),
(364,613,o),
(396,613,cs)
);
},
{
closed = 1;
nodes = (
(242,613,o),
(275,634,o),
(275,696,cs),
(275,735,o),
(254,753,o),
(224,753,cs),
(185,753,o),
(162,719,o),
(162,670,cs),
(162,631,o),
(182,613,o),
(214,613,cs)
);
}
);
width = 471;
},
{
anchors = (
{
name = top;
pos = (300,697);
}
);
layerId = "9563C917-11DF-412F-BB09-FC0C1CFFA48C";
shapes = (
{
closed = 1;
nodes = (
(373,636,o),
(385,644,o),
(385,669,cs),
(385,689,o),
(378,697,o),
(364,697,cs),
(349,697,o),
(340,683,o),
(340,664,cs),
(340,644,o),
(348,636,o),
(362,636,cs)
);
},
{
closed = 1;
nodes = (
(248,636,o),
(260,644,o),
(260,669,cs),
(260,689,o),
(252,697,o),
(239,697,cs),
(223,697,o),
(215,683,o),
(215,664,cs),
(215,644,o),
(222,636,o),
(237,636,cs)
);
}
);
width = 453;
},
{
anchors = (
{
name = top;
pos = (359,738);
}
);
layerId = "A783126C-D342-49FA-8B69-0453AD03268C";
shapes = (
{
closed = 1;
nodes = (
(456,658,o),
(465,690,o),
(465,718,cs),
(465,733,o),
(459,738,o),
(448,738,cs),
(424,738,o),
(414,702,o),
(414,677,cs),
(414,662,o),
(421,658,o),
(431,658,cs)
);
},
{
closed = 1;
nodes = (
(295,658,o),
(304,690,o),
(304,718,cs),
(304,733,o),
(298,738,o),
(287,738,cs),
(263,738,o),
(253,702,o),
(253,677,cs),
(253,662,o),
(260,658,o),
(270,658,cs)
);
}
);
width = 577;
},
{
anchors = (
{
name = top;
pos = (307,742);
}
);
layerId = "44BFC83C-08F8-422F-A73E-536514612562";
shapes = (
{
closed = 1;
nodes = (
(403,636,o),
(427,652,o),
(427,698,cs),
(427,728,o),
(411,742,o),
(389,742,cs),
(361,742,o),
(343,716,o),
(343,680,cs),
(343,650,o),
(357,636,o),
(381,636,cs)
);
},
{
closed = 1;
nodes = (
(247,636,o),
(271,652,o),
(271,698,cs),
(271,728,o),
(256,742,o),
(234,742,cs),
(205,742,o),
(187,716,o),
(187,680,cs),
(187,650,o),
(202,636,o),
(226,636,cs)
);
}
);
width = 462;
},
{
anchors = (
{
name = top;
pos = (308,748);
}
);
layerId = "50C02CB6-129D-4BF7-ADB7-784B68302109";
shapes = (
{
closed = 1;
nodes = (
(415,623,o),
(444,642,o),
(444,697,cs),
(444,732,o),
(426,748,o),
(399,748,cs),
(365,748,o),
(343,718,o),
(343,674,cs),
(343,639,o),
(361,623,o),
(390,623,cs)
);
},
{
closed = 1;
nodes = (
(244,623,o),
(273,642,o),
(273,697,cs),
(273,732,o),
(255,748,o),
(228,748,cs),
(194,748,o),
(173,718,o),
(173,674,cs),
(173,639,o),
(191,623,o),
(219,623,cs)
);
}
);
width = 467;
}
);
script = "";
subCategory = Spacing;
unicode = 168;
}
{
category = Symbol;
glyphname = copyright;
kernLeft = copyright;
kernRight = copyright;
layers = (
{
layerId = "EFE4222C-09E4-4728-8E05-7459D7542305";
shapes = (
{
closed = 1;
nodes = (
(636,-10,o),
(790,134,o),
(790,357,cs),
(790,581,o),
(636,725,o),
(422,725,cs),
(208,725,o),
(55,580,o),
(55,358,cs),
(55,134,o),
(209,-10,o),
(422,-10,cs)
);
},
{
closed = 1;
nodes = (
(532,124,o),
(585,171,o),
(585,211,cs),
(585,228,o),
(578,243,o),
(567,249,c),
(549,210,o),
(512,182,o),
(441,182,cs),
(359,182,o),
(314,246,o),
(314,358,cs),
(314,471,o),
(349,534,o),
(440,534,cs),
(494,534,o),
(513,497,o),
(513,455,c),
(552,455,o),
(583,475,o),
(583,508,cs),
(583,554,o),
(537,590,o),
(442,590,cs),
(295,590,o),
(217,495,o),
(217,358,cs),
(217,217,o),
(288,124,o),
(428,124,cs)
);
},
{
closed = 1;
nodes = (
(252,55,o),
(128,167,o),
(128,357,cs),
(128,544,o),
(249,660,o),
(423,660,cs),
(598,660,o),
(718,543,o),
(718,358,cs),
(718,174,o),
(601,55,o),
(423,55,cs)
);
}
);
width = 845;
},
{
layerId = UUID0;
shapes = (
{
closed = 1;
nodes = (
(636,-10,o),
(790,134,o),
(790,357,cs),
(790,581,o),
(636,725,o),
(422,725,cs),
(208,725,o),
(55,580,o),
(55,358,cs),
(55,134,o),
(209,-10,o),
(422,-10,cs)
);
},
{
closed = 1;
nodes = (
(530,129,o),
(582,173,o),
(582,211,cs),
(582,225,o),
(576,237,o),
(567,243,c),
(549,209,o),
(504,173,o),
(441,173,cs),
(354,173,o),
(306,240,o),
(306,358,cs),
(306,476,o),
(343,542,o),
(440,542,cs),
(494,542,o),
(513,502,o),
(513,464,c),
(552,464,o),
(583,482,o),
(583,512,cs),
(583,553,o),
(537,585,o),
(442,585,cs),
(298,585,o),
(222,492,o),
(222,358,cs),
(222,220,o),
(291,129,o),
(428,129,cs)
);
},
{
closed = 1;
nodes = (
(243,45,o),
(113,161,o),
(113,357,cs),
(113,550,o),
(240,670,o),
(423,670,cs),
(606,670,o),
(732,549,o),
(732,358,cs),
(732,168,o),
(609,45,o),
(423,45,cs)
);
}
);
width = 845;
},
{
layerId = "0748FCBA-26BB-4096-A322-99C7EC440251";
shapes = (
{
closed = 1;
nodes = (
(636,-10,o),
(790,134,o),
(790,357,cs),
(790,581,o),
(636,725,o),
(422,725,cs),
(208,725,o),
(55,580,o),
(55,358,cs),
(55,134,o),
(209,-10,o),
(422,-10,cs)
);
},
{
closed = 1;
nodes = (
(532,124,o),
(585,171,o),
(585,211,cs),
(585,225,o),
(578,237,o),
(567,243,c),
(549,210,o),
(504,176,o),
(441,176,cs),
(356,176,o),
(309,242,o),
(309,358,cs),
(309,474,o),
(345,539,o),
(440,539,cs),
(494,539,o),
(513,497,o),
(513,460,c),
(552,460,o),
(583,478,o),
(583,508,cs),
(583,554,o),
(537,590,o),
(442,590,cs),
(295,590,o),
(217,495,o),
(217,358,cs),
(217,217,o),
(288,124,o),
(428,124,cs)
);
},
{
closed = 1;
nodes = (
(248,50,o),
(122,164,o),
(122,357,cs),
(122,547,o),
(245,665,o),
(423,665,cs),
(601,665,o),
(723,546,o),
(723,358,cs),
(723,171,o),
(604,50,o),
(423,50,cs)
);
}
);
width = 845;
},
{
layerId = "081AFB27-5722-432A-9779-C9794386CEF1";
shapes = (
{
closed = 1;
nodes = (
(541,-10,o),
(651,151,o),
(651,358,cs),
(651,563,o),
(543,725,o),
(354,725,cs),
(165,725,o),
(53,563,o),
(53,358,cs),
(53,156,o),
(162,-10,o),
(353,-10,cs)
);
},
{
closed = 1;
nodes = (
(446,103,o),
(491,164,o),
(491,205,cs),
(491,223,o),
(482,228,o),
(463,234,c),
(446,187,o),
(418,150,o),
(362,150,cs),
(288,150,o),
(245,225,o),
(245,366,cs),
(245,489,o),
(279,564,o),
(362,564,cs),
(435,564,o),
(455,513,o),
(455,458,c),
(478,458,o),
(498,473,o),
(498,506,cs),
(498,553,o),
(457,611,o),
(362,611,cs),
(239,611,o),
(181,521,o),
(181,364,cs),
(181,194,o),
(249,103,o),
(359,103,cs)
);
},
{
closed = 1;
nodes = (
(201,40,o),
(106,175,o),
(106,359,cs),
(106,539,o),
(198,675,o),
(354,675,cs),
(509,675,o),
(598,542,o),
(598,358,cs),
(598,175,o),
(510,40,o),
(356,40,cs)
);
}
);
width = 705;
},
{
layerId = "9563C917-11DF-412F-BB09-FC0C1CFFA48C";
shapes = (
{
closed = 1;
nodes = (
(501,-10,o),
(605,151,o),
(605,358,cs),
(605,563,o),
(503,725,o),
(323,725,cs),
(143,725,o),
(37,563,o),
(37,358,cs),
(37,156,o),
(140,-10,o),
(322,-10,cs)
);
},
{
closed = 1;
nodes = (
(404,113,o),
(444,166,o),
(444,208,cs),
(444,221,o),
(440,228,o),
(432,234,c),
(415,181,o),
(388,138,o),
(329,138,cs),
(249,138,o),
(199,217,o),
(199,366,cs),
(199,496,o),
(237,576,o),
(328,576,cs),
(405,576,o),
(424,520,o),
(424,458,c),
(436,458,o),
(445,477,o),
(445,502,cs),
(445,551,o),
(411,601,o),
(330,601,cs),
(222,601,o),
(171,514,o),
(171,363,cs),
(171,200,o),
(231,113,o),
(328,113,cs)
);
},
{
closed = 1;
nodes = (
(164,15,o),
(65,160,o),
(65,359,cs),
(65,554,o),
(161,700,o),
(323,700,cs),
(484,700,o),
(577,557,o),
(577,358,cs),
(577,160,o),
(485,15,o),
(325,15,cs)
);
}
);
width = 642;
},
{
layerId = "A783126C-D342-49FA-8B69-0453AD03268C";
shapes = (
{
closed = 1;
nodes = (
(655,-10,o),
(809,144,o),
(809,357,cs),
(809,571,o),
(655,725,o),
(441,725,cs),
(227,725,o),
(74,570,o),
(74,358,cs),
(74,144,o),
(228,-10,o),
(441,-10,cs)
);
},
{
closed = 1;
nodes = (
(545,104,o),
(601,161,o),
(601,196,cs),
(601,203,o),
(599,211,o),
(593,218,c),
(572,169,o),
(524,128,o),
(448,128,cs),
(349,128,o),
(264,200,o),
(264,365,cs),
(264,520,o),
(339,591,o),
(441,591,cs),
(528,591,o),
(576,540,o),
(576,488,c),
(597,490,o),
(602,501,o),
(602,515,cs),
(602,566,o),
(538,615,o),
(444,615,cs),
(327,615,o),
(236,540,o),
(236,362,cs),
(236,181,o),
(331,104,o),
(446,104,cs)
);
},
{
closed = 1;
nodes = (
(252,17,o),
(102,156,o),
(102,358,cs),
(102,555,o),
(245,698,o),
(441,698,cs),
(638,698,o),
(781,554,o),
(781,358,cs),
(781,161,o),
(637,17,o),
(443,17,cs)
);
}
);
width = 845;
},
{
layerId = "44BFC83C-08F8-422F-A73E-536514612562";
shapes = (
{
closed = 1;
nodes = (
(519,-10,o),
(626,151,o),
(626,358,cs),
(626,563,o),
(521,725,o),
(336,725,cs),
(152,725,o),
(43,563,o),
(43,358,cs),
(43,156,o),
(149,-10,o),
(335,-10,cs)
);
},
{
closed = 1;
nodes = (
(425,107,o),
(468,165,o),
(468,206,cs),
(468,222,o),
(461,228,o),
(445,234,c),
(428,185,o),
(400,146,o),
(344,146,cs),
(266,146,o),
(220,223,o),
(220,366,cs),
(220,492,o),
(256,569,o),
(344,569,cs),
(418,569,o),
(437,515,o),
(437,458,c),
(457,458,o),
(473,474,o),
(473,505,cs),
(473,552,o),
(434,607,o),
(344,607,cs),
(227,607,o),
(172,518,o),
(172,364,cs),
(172,196,o),
(237,107,o),
(341,107,cs)
);
},
{
closed = 1;
nodes = (
(183,33,o),
(88,171,o),
(88,359,cs),
(88,543,o),
(180,682,o),
(336,682,cs),
(491,682,o),
(580,546,o),
(580,358,cs),
(580,171,o),
(492,33,o),
(338,33,cs)
);
}
);
width = 669;
},
{
layerId = "50C02CB6-129D-4BF7-ADB7-784B68302109";
shapes = (
{
closed = 1;
nodes = (
(531,-10,o),
(640,151,o),
(640,358,cs),
(640,563,o),
(533,725,o),
(346,725,cs),
(159,725,o),
(49,563,o),
(49,358,cs),
(49,156,o),
(156,-10,o),
(345,-10,cs)
);
},
{
closed = 1;
nodes = (
(437,105,o),
(481,164,o),
(481,205,cs),
(481,223,o),
(473,228,o),
(455,234,c),
(438,186,o),
(410,148,o),
(354,148,cs),
(278,148,o),
(234,224,o),
(234,366,cs),
(234,490,o),
(269,566,o),
(354,566,cs),
(428,566,o),
(447,514,o),
(447,458,c),
(469,458,o),
(487,473,o),
(487,505,cs),
(487,553,o),
(447,609,o),
(354,609,cs),
(234,609,o),
(177,520,o),
(177,364,cs),
(177,195,o),
(244,105,o),
(351,105,cs)
);
},
{
closed = 1;
nodes = (
(193,37,o),
(98,173,o),
(98,359,cs),
(98,541,o),
(190,678,o),
(346,678,cs),
(501,678,o),
(590,544,o),
(590,358,cs),
(590,173,o),
(502,37,o),
(348,37,cs)
);
}
);
width = 689;
}
);
script = "";
subCategory = Other;
unicode = 169;
}
{
category = Mark;
glyphname = overscore;
layers = (
{
layerId = UUID0;
shapes = (
{
closed = 1;
nodes = (
(569,760,l),
(582,819,l),
(114,819,l),
(101,760,l)
);
}
);
width = 459;
},
{
layerId = "0748FCBA-26BB-4096-A322-99C7EC440251";
shapes = (
{
closed = 1;
nodes = (
(569,760,l),
(582,819,l),
(114,819,l),
(101,760,l)
);
}
);
width = 459;
},
{
layerId = "EFE4222C-09E4-4728-8E05-7459D7542305";
shapes = (
{
closed = 1;
nodes = (
(569,760,l),
(582,819,l),
(114,819,l),
(101,760,l)
);
}
);
width = 459;
},
{
layerId = "081AFB27-5722-432A-9779-C9794386CEF1";
shapes = (
{
closed = 1;
nodes = (
(494,760,l),
(507,819,l),
(125,819,l),
(112,760,l)
);
}
);
width = 374;
},
{
layerId = "9563C917-11DF-412F-BB09-FC0C1CFFA48C";
shapes = (
{
closed = 1;
nodes = (
(487,778,l),
(492,803,l),
(120,803,l),
(115,778,l)
);
}
);
width = 362;
},
{
layerId = "A783126C-D342-49FA-8B69-0453AD03268C";
shapes = (
{
closed = 1;
nodes = (
(573,778,l),
(578,803,l),
(109,803,l),
(104,778,l)
);
}
);
width = 459;
},
{
layerId = "44BFC83C-08F8-422F-A73E-536514612562";
shapes = (
{
closed = 1;
nodes = (
(487,760,l),
(500,819,l),
(126,819,l),
(113,760,l)
);
}
);
width = 367;
},
{
layerId = "50C02CB6-129D-4BF7-ADB7-784B68302109";
shapes = (
{
closed = 1;
nodes = (
(491,760,l),
(504,819,l),
(125,819,l),
(112,760,l)
);
}
);
width = 371;
}
);
script = "";
subCategory = Spacing;
unicode = 175;
}
{
category = Number;
glyphname = threesuperior;
layers = (
{
layerId = UUID0;
shapes = (
{
closed = 1;
nodes = (
(324,380,o),
(404,428,o),
(404,518,cs),
(404,573,o),
(364,603,o),
(303,610,c),
(304,615,l),
(377,630,o),
(432,663,o),
(432,733,cs),
(432,783,o),
(389,824,o),
(297,824,cs),
(201,824,o),
(144,786,o),
(144,739,cs),
(144,707,o),
(170,697,o),
(210,697,c),
(219,743,o),
(243,784,o),
(294,784,cs),
(326,784,o),
(340,764,o),
(340,737,cs),
(340,669,o),
(286,630,o),
(229,630,cs),
(196,630,l),
(188,589,l),
(221,589,ls),
(284,589,o),
(312,554,o),
(312,514,cs),
(312,450,o),
(271,425,o),
(217,425,cs),
(159,425,o),
(136,472,o),
(136,511,c),
(104,511,o),
(79,493,o),
(79,457,cs),
(79,410,o),
(126,380,o),
(210,380,cs)
);
}
);
width = 400;
},
{
layerId = "0748FCBA-26BB-4096-A322-99C7EC440251";
shapes = (
{
closed = 1;
nodes = (
(329,380,o),
(414,428,o),
(414,518,cs),
(414,573,o),
(374,603,o),
(313,610,c),
(314,615,l),
(387,630,o),
(440,663,o),
(440,733,cs),
(440,783,o),
(396,824,o),
(301,824,cs),
(203,824,o),
(144,785,o),
(144,738,cs),
(144,706,o),
(176,692,o),
(225,692,c),
(232,738,o),
(252,779,o),
(295,779,cs),
(321,779,o),
(333,760,o),
(333,734,cs),
(333,668,o),
(284,630,o),
(228,630,cs),
(194,630,l),
(186,583,l),
(219,583,ls),
(282,583,o),
(310,551,o),
(310,514,cs),
(310,455,o),
(271,432,o),
(223,432,cs),
(163,432,o),
(141,480,o),
(141,518,c),
(99,518,o),
(67,497,o),
(67,461,cs),
(67,411,o),
(117,380,o),
(214,380,cs)
);
}
);
width = 400;
},
{
layerId = "EFE4222C-09E4-4728-8E05-7459D7542305";
shapes = (
{
closed = 1;
nodes = (
(339,380,o),
(427,428,o),
(427,518,cs),
(427,573,o),
(387,603,o),
(326,610,c),
(327,615,l),
(400,630,o),
(452,663,o),
(452,733,cs),
(452,783,o),
(407,824,o),
(310,824,cs),
(210,824,o),
(150,784,o),
(150,737,cs),
(150,705,o),
(186,688,o),
(242,688,c),
(247,734,o),
(264,775,o),
(302,775,cs),
(323,775,o),
(334,757,o),
(334,732,cs),
(334,667,o),
(288,630,o),
(233,630,cs),
(198,630,l),
(190,579,l),
(223,579,ls),
(286,579,o),
(314,549,o),
(314,514,cs),
(314,459,o),
(277,437,o),
(233,437,cs),
(172,437,o),
(151,486,o),
(151,523,c),
(101,523,o),
(64,500,o),
(64,464,cs),
(64,412,o),
(116,380,o),
(223,380,cs)
);
}
);
width = 401;
},
{
layerId = "081AFB27-5722-432A-9779-C9794386CEF1";
shapes = (
{
closed = 1;
nodes = (
(295,380,o),
(371,430,o),
(371,522,cs),
(371,574,o),
(340,603,o),
(292,610,c),
(293,615,l),
(355,631,o),
(399,665,o),
(399,737,cs),
(399,784,o),
(364,824,o),
(287,824,cs),
(203,824,o),
(152,783,o),
(152,736,cs),
(152,705,o),
(181,690,o),
(228,690,c),
(232,734,o),
(242,774,o),
(275,774,cs),
(292,774,o),
(301,757,o),
(301,736,cs),
(301,670,o),
(262,630,o),
(215,630,cs),
(187,630,l),
(178,581,l),
(205,581,ls),
(255,581,o),
(277,552,o),
(277,517,cs),
(277,458,o),
(245,434,o),
(208,434,cs),
(159,434,o),
(143,483,o),
(145,520,c),
(101,520,o),
(69,498,o),
(69,460,cs),
(69,410,o),
(111,380,o),
(198,380,cs)
);
}
);
width = 326;
},
{
layerId = "9563C917-11DF-412F-BB09-FC0C1CFFA48C";
shapes = (
{
closed = 1;
nodes = (
(241,378,o),
(302,426,o),
(302,510,cs),
(302,559,o),
(274,600,o),
(229,607,c),
(228,608,l),
(297,621,o),
(335,661,o),
(335,725,cs),
(335,784,o),
(295,820,o),
(237,820,cs),
(163,820,o),
(118,772,o),
(118,725,cs),
(118,704,o),
(124,699,o),
(143,699,c),
(143,766,o),
(177,796,o),
(235,796,cs),
(281,796,o),
(308,768,o),
(308,725,cs),
(308,667,o),
(270,621,o),
(181,621,cs),
(155,621,l),
(150,597,l),
(177,597,ls),
(244,597,o),
(275,563,o),
(275,510,cs),
(275,438,o),
(228,402,o),
(169,402,cs),
(109,402,o),
(89,426,o),
(91,500,c),
(75,500,o),
(66,490,o),
(66,474,cs),
(66,413,o),
(98,378,o),
(168,378,cs)
);
}
);
width = 315;
},
{
layerId = "A783126C-D342-49FA-8B69-0453AD03268C";
shapes = (
{
closed = 1;
nodes = (
(315,380,o),
(385,448,o),
(385,522,cs),
(385,570,o),
(356,600,o),
(311,613,c),
(311,616,l),
(367,627,o),
(410,679,o),
(410,731,cs),
(410,783,o),
(366,824,o),
(290,824,cs),
(198,824,o),
(146,765,o),
(146,722,cs),
(146,702,o),
(158,699,o),
(166,699,c),
(177,763,o),
(222,799,o),
(289,799,cs),
(342,799,o),
(381,776,o),
(381,728,cs),
(381,674,o),
(332,626,o),
(243,626,cs),
(204,626,l),
(199,601,l),
(232,601,ls),
(321,601,o),
(357,570,o),
(357,521,cs),
(357,462,o),
(303,405,o),
(213,405,cs),
(144,405,o),
(106,438,o),
(121,508,c),
(99,508,o),
(89,483,o),
(89,460,cs),
(89,412,o),
(137,380,o),
(209,380,cs)
);
}
);
width = 380;
},
{
layerId = "44BFC83C-08F8-422F-A73E-536514612562";
shapes = (
{
closed = 1;
nodes = (
(273,380,o),
(341,430,o),
(341,518,cs),
(341,568,o),
(312,604,o),
(265,611,c),
(265,614,l),
(327,631,o),
(373,665,o),
(373,737,cs),
(373,785,o),
(340,824,o),
(267,824,cs),
(188,824,o),
(140,784,o),
(140,737,cs),
(140,706,o),
(160,697,o),
(191,697,c),
(201,743,o),
(217,783,o),
(260,783,cs),
(285,783,o),
(301,765,o),
(301,732,cs),
(301,670,o),
(253,630,o),
(204,630,cs),
(177,630,l),
(169,590,l),
(195,590,ls),
(248,590,o),
(270,561,o),
(270,516,cs),
(270,451,o),
(233,425,o),
(190,425,cs),
(140,425,o),
(123,471,o),
(125,511,c),
(97,511,o),
(74,491,o),
(74,456,cs),
(74,412,o),
(111,380,o),
(183,380,cs)
);
}
);
width = 320;
},
{
layerId = "50C02CB6-129D-4BF7-ADB7-784B68302109";
shapes = (
{
closed = 1;
nodes = (
(285,380,o),
(357.99,430,o),
(358,520,cs),
(358,571,o),
(328,603,o),
(280,610,c),
(281,614,l),
(343,631,o),
(388,665,o),
(388,737,cs),
(388,785,o),
(354,824,o),
(278,824,cs),
(197,824,o),
(147,784,o),
(147,736,cs),
(147,706,o),
(172,693,o),
(212,693,c),
(218,738,o),
(231,778,o),
(269,778,cs),
(289,778,o),
(301,760,o),
(301,734,cs),
(301,670,o),
(258,630,o),
(210,630,cs),
(183,630,l),
(174,585,l),
(201,585,ls),
(252,585,o),
(274,556,o),
(274,516,cs),
(274,455,o),
(240,430,o),
(200,430,cs),
(151,430,o),
(134,478,o),
(136,516,c),
(99,516,o),
(71,495,o),
(71,458,cs),
(71,411,o),
(111,380,o),
(192,380,cs)
);
}
);
width = 323;
}
);
script = "";
subCategory = Small;
unicode = 179;
}
{
category = Mark;
glyphname = acute;
layers = (
{
layerId = UUID0;
shapes = (
{
closed = 1;
nodes = (
(112,606,l),
(152,606,l),
(213,642,o),
(293,716,o),
(326,756,c),
(329,766,l),
(222,766,l),
(192,717,o),
(150,659,o),
(115,619,c)
);
}
);
width = 263;
},
{
layerId = "0748FCBA-26BB-4096-A322-99C7EC440251";
shapes = (
{
closed = 1;
nodes = (
(112,606,l),
(180,606,l),
(251,642,o),
(356,721,o),
(388,756,c),
(391,766,l),
(234,766,l),
(203,721,o),
(152,657,o),
(115,619,c)
);
}
);
width = 325;
},
{
layerId = "EFE4222C-09E4-4728-8E05-7459D7542305";
shapes = (
{
closed = 1;
nodes = (
(112,606,l),
(201,606,l),
(279,642,o),
(402,725,o),
(434,756,c),
(437,766,l),
(243,766,l),
(211,724,o),
(153,656,o),
(115,619,c)
);
}
);
width = 371;
},
{
layerId = "081AFB27-5722-432A-9779-C9794386CEF1";
shapes = (
{
closed = 1;
nodes = (
(112,606,l),
(189,606,l),
(255,641,o),
(363,723,o),
(389,756,c),
(392,766,l),
(227,766,l),
(199,722,o),
(148,657,o),
(115,619,c)
);
}
);
width = 326;
},
{
layerId = "9563C917-11DF-412F-BB09-FC0C1CFFA48C";
shapes = (
{
closed = 1;
nodes = (
(113,606,l),
(128,606,l),
(165,649,o),
(208,714,o),
(232,758,c),
(232,766,l),
(202,766,l),
(176,711,o),
(142,656,o),
(114,614,c)
);
}
);
width = 168;
},
{
layerId = "A783126C-D342-49FA-8B69-0453AD03268C";
shapes = (
{
closed = 1;
nodes = (
(113,606,l),
(128,606,l),
(170,649,o),
(218,714,o),
(244,758,c),
(244,766,l),
(209,766,l),
(182,711,o),
(147,656,o),
(114,614,c)
);
}
);
width = 180;
},
{
layerId = "44BFC83C-08F8-422F-A73E-536514612562";
shapes = (
{
closed = 1;
nodes = (
(112,606,l),
(151,606,l),
(203,642,o),
(275,716,o),
(304,756,c),
(307,766,l),
(209,766,l),
(183,716,o),
(145,659,o),
(115,619,c)
);
}
);
width = 241;
},
{
layerId = "50C02CB6-129D-4BF7-ADB7-784B68302109";
shapes = (
{
closed = 1;
nodes = (
(112,606,l),
(172,606,l),
(232,641,o),
(325,720,o),
(352,756,c),
(355,766,l),
(219,766,l),
(192,719,o),
(147,658,o),
(115,619,c)
);
}
);
width = 289;
}
);
script = "";
subCategory = Spacing;
unicode = 180;
}
{
category = Symbol;
glyphname = micro;
layers = (
{
layerId = UUID0;
shapes = (
{
closed = 1;
nodes = (
(107,-240,o),
(142,-212,o),
(148,-153,c),
(107,-146,o),
(93,-117,o),
(93,-72,cs),
(93,-39,o),
(100,2,o),
(109,49,c),
(128,12,o),
(167,-10,o),
(222,-10,cs),
(283,-10,o),
(326,27,o),
(367,86,c),
(372,86,l),
(373,29,o),
(399,-10,o),
(447,-10,cs),
(493,-10,o),
(536,18,o),
(563,36,c),
(546,70,l),
(528,61,o),
(508,53,o),
(491,53,cs),
(474,53,o),
(462,65,o),
(462,85,cs),
(462,103,o),
(468,136,o),
(474,162,cs),
(554,536,l),
(460,536,l),
(392,216,ls),
(373,119,o),
(316,54,o),
(245,54,cs),
(190,54,o),
(172,89,o),
(172,131,cs),
(172,159,o),
(178,200,o),
(183,223,cs),
(249,536,l),
(155,536,l),
(89,225,ls),
(47,25,o),
(-2,-88,o),
(-2,-168,cs),
(-2,-222,o),
(25,-240,o),
(63,-240,cs)
);
}
);
width = 604;
},
{
layerId = "0748FCBA-26BB-4096-A322-99C7EC440251";
shapes = (
{
closed = 1;
nodes = (
(118,-240,o),
(173,-212,o),
(183,-153,c),
(116,-146,o),
(102,-117,o),
(102,-72,cs),
(102,-39,o),
(106,15,o),
(116,62,c),
(140,19,o),
(181,-10,o),
(240,-10,cs),
(306,-10,o),
(347,31,o),
(392,92,c),
(397,92,l),
(397,39,o),
(420,-10,o),
(502,-10,cs),
(581,-10,o),
(629,25,o),
(661,59,c),
(637,93,l),
(614,78,o),
(599,70,o),
(578,70,cs),
(556,70,o),
(543,86,o),
(543,115,cs),
(543,140,o),
(549,175,o),
(557,211,cs),
(626,536,l),
(474,536,l),
(415,260,ls),
(388,133,o),
(347,75,o),
(285,75,cs),
(246,75,o),
(229,106,o),
(229,142,cs),
(229,167,o),
(234,193,o),
(240,222,cs),
(307,536,l),
(155,536,l),
(89,225,ls),
(47,25,o),
(-2,-88,o),
(-2,-168,cs),
(-2,-222,o),
(25,-240,o),
(63,-240,cs)
);
}
);
width = 677;
},
{
layerId = "EFE4222C-09E4-4728-8E05-7459D7542305";
shapes = (
{
closed = 1;
nodes = (
(132,-240,o),
(197,-212,o),
(209,-153,c),
(123,-146,o),
(109,-117,o),
(109,-72,cs),
(109,-39,o),
(112,20,o),
(121,72,c),
(149,24,o),
(191,-10,o),
(253,-10,cs),
(323,-10,o),
(369,33,o),
(410,96,c),
(415,96,l),
(415,46,o),
(435,-10,o),
(543,-10,cs),
(646,-10,o),
(698,30,o),
(733,76,c),
(704,110,l),
(677,91,o),
(666,83,o),
(642,83,cs),
(616,83,o),
(603,101,o),
(603,137,cs),
(603,167,o),
(609,204,o),
(618,247,cs),
(679,536,l),
(484,536,l),
(432,292,ls),
(399,143,o),
(370,90,o),
(314,90,cs),
(287,90,o),
(271,119,o),
(271,150,cs),
(271,173,o),
(275,188,o),
(282,221,cs),
(350,536,l),
(155,536,l),
(89,225,ls),
(47,25,o),
(-2,-88,o),
(-2,-158,cs),
(-2,-222,o),
(35,-240,o),
(83,-240,cs)
);
}
);
width = 731;
},
{
layerId = "081AFB27-5722-432A-9779-C9794386CEF1";
shapes = (
{
closed = 1;
nodes = (
(100,-240,o),
(157,-212,o),
(169,-153,c),
(101,-147,o),
(87,-120,o),
(87,-79,cs),
(87,-41,o),
(93,15,o),
(102,67,c),
(124,21,o),
(157,-10,o),
(208,-10,cs),
(266,-10,o),
(306,32,o),
(341,94,c),
(346,94,l),
(344,42,o),
(358,-10,o),
(451,-10,cs),
(540,-10,o),
(584,27,o),
(615,67,c),
(591,101,l),
(568,84,o),
(559,76,o),
(540,76,cs),
(519,76,o),
(508,92,o),
(508,121,cs),
(508,157,o),
(514,204,o),
(524,252,cs),
(585,536,l),
(418,536,l),
(366,287,ls),
(344,180,o),
(315,82,o),
(265,82,cs),
(246,82,o),
(235,110,o),
(235,141,cs),
(235,168,o),
(240,190,o),
(247,221,cs),
(315,536,l),
(147,536,l),
(81,225,ls),
(38,18,o),
(-8,-94,o),
(-8,-166,cs),
(-8,-223,o),
(22,-240,o),
(60,-240,cs)
);
}
);
width = 607;
},
{
layerId = "9563C917-11DF-412F-BB09-FC0C1CFFA48C";
shapes = (
{
closed = 1;
nodes = (
(21,-240,o),
(30,-231,o),
(38,-216,c),
(29,-205,o),
(25,-180,o),
(25,-161,cs),
(25,-95,o),
(51,4,o),
(68,88,c),
(72,6,o),
(101,-9,o),
(148,-9,cs),
(196,-9,o),
(239,37,o),
(270,100,c),
(274,100,l),
(267,51,o),
(271,-9,o),
(322,-9,cs),
(335,-9,o),
(365,1,o),
(384,26,c),
(369,43,l),
(356,27,o),
(338,16,o),
(324,16,cs),
(307,16,o),
(297,26,o),
(297,73,cs),
(297,108,o),
(301,143,o),
(311,191,cs),
(385,536,l),
(357,536,l),
(285,202,ls),
(265,108,o),
(211,16,o),
(148,16,cs),
(93,16,o),
(86,57,o),
(86,106,cs),
(86,138,o),
(97,208,o),
(101,225,cs),
(167,536,l),
(139,536,l),
(73,225,ls),
(28,14,o),
(-3,-97,o),
(-3,-190,cs),
(-3,-228,o),
(-1,-240,o),
(10,-240,cs)
);
}
);
width = 415;
},
{
layerId = "A783126C-D342-49FA-8B69-0453AD03268C";
shapes = (
{
closed = 1;
nodes = (
(37,-240,o),
(48,-229,o),
(49,-210,c),
(25,-209,o),
(16,-189,o),
(18,-156,cs),
(19,-127,o),
(27,-92,o),
(62,50,c),
(75,15,o),
(103,-9,o),
(150,-9,cs),
(225,-9,o),
(282,39,o),
(336,136,c),
(338,136,l),
(328,56,o),
(337,-10,o),
(388,-10,cs),
(404,-10,o),
(418,-6,o),
(431,1,c),
(422,23,l),
(412,18,o),
(401,15,o),
(390,15,cs),
(368,15,o),
(359,50,o),
(359,83,cs),
(359,115,o),
(362,157,o),
(376,221,cs),
(443,536,l),
(415,536,l),
(359,269,ls),
(337,163,o),
(259,16,o),
(153,16,cs),
(108,16,o),
(81,47,o),
(81,100,cs),
(81,129,o),
(93,176,o),
(105,230,cs),
(178,536,l),
(150,536,l),
(77,230,ls),
(29,28,o),
(-18,-138,o),
(-18,-183,cs),
(-18,-221,o),
(-9,-240,o),
(17,-240,cs)
);
}
);
width = 498;
},
{
layerId = "44BFC83C-08F8-422F-A73E-536514612562";
shapes = (
{
closed = 1;
nodes = (
(54,-239,o),
(100,-211,o),
(110,-176,c),
(74,-167,o),
(65,-142,o),
(65,-109,cs),
(65,-57,o),
(76,-11,o),
(90,59,c),
(104,14,o),
(136,-10,o),
(180,-10,cs),
(230,-10,o),
(268,26,o),
(303,85,c),
(307,85,l),
(302,28,o),
(318,-10,o),
(371,-10,cs),
(418,-10,o),
(449,10,o),
(473,33,c),
(459,67,l),
(443,57,o),
(430,50,o),
(414,50,cs),
(398,50,o),
(390,61,o),
(390,79,cs),
(390,110,o),
(400,162,o),
(409,202,cs),
(481,536,l),
(393,536,l),
(326,213,ls),
(308,130,o),
(263,51,o),
(207,51,cs),
(168,51,o),
(155,82,o),
(155,122,cs),
(155,152,o),
(163,200,o),
(168,223,cs),
(235,536,l),
(147,536,l),
(81,225,ls),
(37,16,o),
(-9,-95,o),
(-9,-179,cs),
(-9,-226,o),
(6,-241,o),
(29,-241,cs)
);
}
);
width = 499;
},
{
layerId = "50C02CB6-129D-4BF7-ADB7-784B68302109";
shapes = (
{
closed = 1;
nodes = (
(80,-240,o),
(132,-212,o),
(143,-163,c),
(89,-156,o),
(77,-130,o),
(77,-92,cs),
(77,-48,o),
(86,4,o),
(97,64,c),
(115,18,o),
(148,-10,o),
(196,-10,cs),
(250,-10,o),
(290,29,o),
(324,90,c),
(329,90,l),
(326,36,o),
(341,-10,o),
(416,-10,cs),
(487.01,-10,o),
(525,20,o),
(553,52,c),
(534,86,l),
(514,72,o),
(503,65,o),
(485,65,cs),
(467,65,o),
(457,79,o),
(457,103,cs),
(457,136,o),
(465,186,o),
(474,230,cs),
(540,536,l),
(407,536,l),
(349,255,ls),
(328,158,o),
(292,69,o),
(240,69,cs),
(212,69,o),
(200,98,o),
(200,133,cs),
(200,161,o),
(206,194,o),
(213,222,cs),
(280,536,l),
(147,536,l),
(81,225,ls),
(37,17,o),
(-8,-95,o),
(-8,-172,cs),
(-8,-224,o),
(15,-240,o),
(47,-240,cs)
);
}
);
width = 560;
}
);
script = "";
subCategory = Math;
unicode = 181;
}
{
category = Symbol;
glyphname = paragraph;
layers = (
{
layerId = UUID0;
shapes = (
{
closed = 1;
nodes = (
(333,-111,l),
(333,709,l),
(428,709,l),
(428,-111,l),
(584,-111,l),
(584,-69,l),
(571,-69,ls),
(526,-69,o),
(489,-60,o),
(489,3,cs),
(489,646,ls),
(489,709,o),
(526,718,o),
(571,718,cs),
(584,718,l),
(584,760,l),
(203,760,ls),
(90,760,o),
(48,689,o),
(48,582,cs),
(48,478,o),
(84,386,o),
(201,386,cs),
(272,386,l),
(272,3,ls),
(272,-60,o),
(235,-69,o),
(190,-69,cs),
(177,-69,l),
(177,-111,l)
);
}
);
width = 617;
},
{
layerId = "0748FCBA-26BB-4096-A322-99C7EC440251";
shapes = (
{
closed = 1;
nodes = (
(360,-111,l),
(360,698,l),
(444,698,l),
(444,-111,l),
(611,-111,l),
(611,-58,l),
(598,-58,ls),
(553,-58,o),
(516,-50,o),
(516,13,cs),
(516,635,ls),
(516,698,o),
(553,707,o),
(598,707,cs),
(611,707,l),
(611,760,l),
(219,760,ls),
(106,760,o),
(64,689,o),
(64,582,cs),
(64,478,o),
(100,386,o),
(217,386,cs),
(288,386,l),
(288,13,ls),
(288,-50,o),
(251,-58,o),
(206,-58,cs),
(193,-58,l),
(193,-111,l)
);
}
);
width = 627;
},
{
layerId = "EFE4222C-09E4-4728-8E05-7459D7542305";
shapes = (
{
closed = 1;
nodes = (
(380,-111,l),
(380,690,l),
(456,690,l),
(456,-111,l),
(631,-111,l),
(631,-50,l),
(618,-50,ls),
(573,-50,o),
(536,-43,o),
(536,20,cs),
(536,627,ls),
(536,690,o),
(573,699,o),
(618,699,cs),
(631,699,l),
(631,760,l),
(231,760,ls),
(118,760,o),
(76,689,o),
(76,582,cs),
(76,478,o),
(112,386,o),
(229,386,cs),
(300,386,l),
(300,20,ls),
(300,-43,o),
(263,-50,o),
(218,-50,cs),
(205,-50,l),
(205,-111,l)
);
}
);
width = 634;
},
{
layerId = "081AFB27-5722-432A-9779-C9794386CEF1";
shapes = (
{
closed = 1;
nodes = (
(384,-111,l),
(384,690,l),
(460,690,l),
(460,-111,l),
(635,-111,l),
(635,-50,l),
(622,-50,ls),
(577,-50,o),
(540,-43,o),
(540,20,cs),
(540,627,ls),
(540,690,o),
(577,699,o),
(622,699,cs),
(635,699,l),
(635,760,l),
(235,760,ls),
(122,760,o),
(80,689,o),
(80,582,cs),
(80,478,o),
(116,386,o),
(233,386,cs),
(304,386,l),
(304,20,ls),
(304,-43,o),
(267,-50,o),
(222,-50,cs),
(209,-50,l),
(209,-111,l)
);
}
);
width = 634;
},
{
layerId = "9563C917-11DF-412F-BB09-FC0C1CFFA48C";
shapes = (
{
closed = 1;
nodes = (
(248,-111,l),
(248,735,l),
(328,735,l),
(328,-111,l),
(428,-111,l),
(428,-91,l),
(422,-91,ls),
(362,-91,o),
(356,-85,o),
(356,-17,cs),
(356,664,ls),
(356,734,o),
(362,740,o),
(422,740,cs),
(428,740,l),
(428,760,l),
(190,760,ls),
(81,760,o),
(50,689,o),
(50,582,cs),
(50,478,o),
(77,386,o),
(188,386,cs),
(220,386,l),
(220,-15,ls),
(220,-86,o),
(214,-91,o),
(153,-91,cs),
(148,-91,l),
(148,-111,l)
);
}
);
width = 451;
},
{
layerId = "A783126C-D342-49FA-8B69-0453AD03268C";
shapes = (
{
closed = 1;
nodes = (
(316,-111,l),
(316,740,l),
(453,740,l),
(453,-111,l),
(576,-111,l),
(576,-91,l),
(552,-91,ls),
(500,-91,o),
(481,-80,o),
(481,-27,cs),
(481,668,ls),
(481,731,o),
(518,740,o),
(563,740,cs),
(576,740,l),
(576,760,l),
(219,760,ls),
(106,760,o),
(64,689,o),
(64,582,cs),
(64,478,o),
(100,386,o),
(217,386,cs),
(288,386,l),
(288,-34,ls),
(288,-80,o),
(264,-91,o),
(221,-91,cs),
(193,-91,l),
(193,-111,l)
);
}
);
width = 605;
},
{
layerId = "44BFC83C-08F8-422F-A73E-536514612562";
shapes = (
{
closed = 1;
nodes = (
(350,-111,l),
(350,709,l),
(445,709,l),
(445,-111,l),
(601,-111,l),
(601,-69,l),
(588,-69,ls),
(543,-69,o),
(506,-60,o),
(506,3,cs),
(506,646,ls),
(506,709,o),
(543,718,o),
(588,718,cs),
(601,718,l),
(601,760,l),
(220,760,ls),
(107,760,o),
(65,689,o),
(65,582,cs),
(65,478,o),
(101,386,o),
(218,386,cs),
(289,386,l),
(289,3,ls),
(289,-60,o),
(252,-69,o),
(207,-69,cs),
(194,-69,l),
(194,-111,l)
);
}
);
width = 617;
},
{
layerId = "50C02CB6-129D-4BF7-ADB7-784B68302109";
shapes = (
{
closed = 1;
nodes = (
(369,-111,l),
(369,698,l),
(454,698,l),
(454,-111,l),
(620,-111,l),
(620,-58,l),
(607,-58,ls),
(562,-58,o),
(525,-50,o),
(525,13,cs),
(525,635,ls),
(525,698,o),
(562,707,o),
(607,707,cs),
(620,707,l),
(620,760,l),
(229,760,ls),
(116,760,o),
(74,689,o),
(74,582,cs),
(74,478,o),
(110,386,o),
(227,386,cs),
(298,386,l),
(298,13,ls),
(298,-50,o),
(261,-58,o),
(216,-58,cs),
(203,-58,l),
(203,-111,l)
);
}
);
width = 627;
}
);
script = "";
subCategory = Other;
unicode = 182;
}
{
category = Letter;
glyphname = oslash;
kernLeft = o;
kernRight = o;
layers = (
{
anchors = (
{
name = bottom;
pos = (230,0);
},
{
name = top;
pos = (344,536);
}
);
layerId = UUID0;
shapes = (
{
closed = 1;
nodes = (
(64,-50,l),
(574,586,l),
(516,586,l),
(5,-50,l)
);
},
{
alignment = -1;
ref = o;
}
);
width = 574;
},
{
anchors = (
{
name = bottom;
pos = (252,0);
},
{
name = top;
pos = (366,536);
}
);
layerId = "0748FCBA-26BB-4096-A322-99C7EC440251";
shapes = (
{
closed = 1;
nodes = (
(89,-50,l),
(594,586,l),
(519,586,l),
(13,-50,l)
);
},
{
alignment = -1;
ref = o;
}
);
width = 618;
},
{
anchors = (
{
name = bottom;
pos = (268,0);
},
{
name = top;
pos = (382,536);
}
);
layerId = "EFE4222C-09E4-4728-8E05-7459D7542305";
shapes = (
{
closed = 1;
nodes = (
(108,-50,l),
(609,586,l),
(521,586,l),
(19,-50,l)
);
},
{
alignment = -1;
ref = o;
}
);
width = 650;
},
{
anchors = (
{
name = bottom;
pos = (212,0);
},
{
name = top;
pos = (326,536);
}
);
layerId = "081AFB27-5722-432A-9779-C9794386CEF1";
shapes = (
{
closed = 1;
nodes = (
(88,-50,l),
(524,586,l),
(450,586,l),
(13,-50,l)
);
},
{
alignment = -1;
ref = o;
}
);
width = 537;
},
{
anchors = (
{
name = bottom;
pos = (149,0);
},
{
name = top;
pos = (263,536);
}
);
layerId = "9563C917-11DF-412F-BB09-FC0C1CFFA48C";
shapes = (
{
closed = 1;
nodes = (
(3,-50,l),
(438,586,l),
(410,586,l),
(-25,-50,l)
);
},
{
alignment = -1;
ref = o;
}
);
width = 410;
},
{
anchors = (
{
name = bottom;
pos = (202,0);
},
{
name = top;
pos = (316,536);
}
);
layerId = "A783126C-D342-49FA-8B69-0453AD03268C";
shapes = (
{
closed = 1;
nodes = (
(17,-50,l),
(534,586,l),
(501,586,l),
(-16,-50,l)
);
},
{
alignment = -1;
ref = o;
}
);
width = 517;
},
{
anchors = (
{
name = bottom;
pos = (178,0);
},
{
name = top;
pos = (292,536);
}
);
layerId = "44BFC83C-08F8-422F-A73E-536514612562";
shapes = (
{
closed = 1;
nodes = (
(54,-50,l),
(488,586,l),
(438,586,l),
(4,-50,l)
);
},
{
alignment = -1;
ref = o;
}
);
width = 468;
},
{
anchors = (
{
name = bottom;
pos = (197,0);
},
{
name = top;
pos = (311,536);
}
);
layerId = "50C02CB6-129D-4BF7-ADB7-784B68302109";
shapes = (
{
closed = 1;
nodes = (
(73,-50,l),
(508,586,l),
(445,586,l),
(9,-50,l)
);
},
{
alignment = -1;
ref = o;
}
);
width = 507;
}
);
script = latin;
subCategory = Lowercase;
unicode = 248;
}
{
category = Letter;
glyphname = thorn;
kernLeft = b;
kernRight = o;
layers = (
{
anchors = (
{
name = bottom;
pos = (173,-240);
},
{
name = center;
pos = (247,260);
},
{
name = top;
pos = (386,760);
}
);
layerId = UUID0;
shapes = (
{
closed = 1;
nodes = (
(-24,-240,l),
(166,-240,l),
(175,-198,l),
(162,-198,ls),
(112,-198,o),
(92,-187,o),
(92,-155,cs),
(92,-141,o),
(97,-114,o),
(101,-96,cs),
(114,-35,ls),
(117,-22,o),
(119,2,o),
(120,14,c),
(145,0,o),
(181,-10,o),
(220,-10,cs),
(420,-10,o),
(519,221,o),
(519,365,cs),
(519,482,o),
(471,546,o),
(390,546,cs),
(301,546,o),
(246,480,o),
(206,402,c),
(200,402,l),
(207,427,o),
(224,486,o),
(231,520,cs),
(282,760,l),
(98,760,l),
(89,718,l),
(97,718,ls),
(135,718,o),
(167,711,o),
(167,671,cs),
(167,665,o),
(164,645,o),
(158,618,cs)
);
},
{
closed = 1;
nodes = (
(180,35,o),
(149,56,o),
(137,71,c),
(178,261,ls),
(197,348,o),
(274,483,o),
(352,483,cs),
(401,483,o),
(417,424,o),
(417,366,cs),
(417,243,o),
(344,35,o),
(217,35,cs)
);
}
);
width = 562;
},
{
anchors = (
{
name = bottom;
pos = (204,-240);
},
{
name = center;
pos = (276,260);
},
{
name = top;
pos = (417,760);
}
);
layerId = "0748FCBA-26BB-4096-A322-99C7EC440251";
shapes = (
{
closed = 1;
nodes = (
(-30,-240,l),
(224,-240,l),
(233,-187,l),
(195,-187,ls),
(157,-187,o),
(142,-181,o),
(142,-145,cs),
(142,-140,o),
(145,-119,o),
(149,-102,cs),
(163,-35,ls),
(167,-19,o),
(170,2,o),
(171,13,c),
(197,-1,o),
(233,-10,o),
(273,-10,cs),
(481,-10,o),
(583,221,o),
(583,365,cs),
(583,482,o),
(525,546,o),
(437,546,cs),
(338,546,o),
(293,487,o),
(247,403,c),
(240,403,l),
(250,431,o),
(289,532,o),
(297,570,cs),
(337,760,l),
(94,760,l),
(85,707,l),
(108,707,ls),
(146,707,o),
(161,701,o),
(161,665,cs),
(161,660,o),
(158,639,o),
(154,622,cs)
);
},
{
closed = 1;
nodes = (
(231,54,o),
(203,70,o),
(191,82,c),
(229,261,l),
(245,341,o),
(311,466,o),
(378,466,cs),
(420,466,o),
(432,412,o),
(432,358,cs),
(432,245,o),
(370,54,o),
(262,54,cs)
);
}
);
width = 623;
},
{
anchors = (
{
name = bottom;
pos = (226,-240);
},
{
name = center;
pos = (297,260);
},
{
name = top;
pos = (439,760);
}
);
layerId = "EFE4222C-09E4-4728-8E05-7459D7542305";
shapes = (
{
closed = 1;
nodes = (
(-35,-240,l),
(268,-240,l),
(277,-179,l),
(226,-179,ls),
(202,-179,o),
(180,-177,o),
(180,-149,cs),
(180,-133,o),
(182,-124,o),
(185,-106,cs),
(199,-35,ls),
(205,-6,o),
(206,1,o),
(207,13,c),
(234,-1,o),
(271,-10,o),
(312,-10,cs),
(526,-10,o),
(630,193,o),
(630,365,cs),
(630,482,o),
(564,546,o),
(471,546,cs),
(368,546,o),
(330,492,o),
(277,404,c),
(269,404,l),
(281,434,o),
(336,566,o),
(345,607,cs),
(377,760,l),
(100,760,l),
(88,699,l),
(116,699,ls),
(143,699,o),
(156,694,o),
(156,672,cs),
(156,656,o),
(154,640,o),
(148,611,cs)
);
},
{
closed = 1;
nodes = (
(269,68,o),
(241,80,o),
(229,90,c),
(265,261,ls),
(281,336,o),
(338,453,o),
(397,453,cs),
(434,453,o),
(443,403,o),
(443,352,cs),
(443,246,o),
(389,68,o),
(295,68,cs)
);
}
);
width = 668;
},
{
anchors = (
{
name = bottom;
pos = (169,-240);
},
{
name = center;
pos = (249,260);
},
{
name = top;
pos = (382,760);
}
);
layerId = "081AFB27-5722-432A-9779-C9794386CEF1";
shapes = (
{
closed = 1;
nodes = (
(-39,-240,l),
(218,-240,l),
(227,-183,l),
(183,-183,ls),
(166,-183,o),
(148,-179,o),
(148,-153,cs),
(148,-135,o),
(151,-122,o),
(154,-104,cs),
(168,-35,ls),
(174,-10,o),
(176,1,o),
(177,13,c),
(198,-1,o),
(228,-10,o),
(262,-10,cs),
(444,-10,o),
(538,212,o),
(538,377,cs),
(538,486,o),
(486,546,o),
(412,546,cs),
(333,546,o),
(304,500,o),
(259,432,c),
(252,432,l),
(274,491,o),
(296,559,o),
(310,615,cs),
(345,760,l),
(111,760,l),
(99,703,l),
(124,703,ls),
(143,703,o),
(153,698,o),
(153,677,cs),
(153,658,o),
(150,641,o),
(144,613,cs)
);
},
{
closed = 1;
nodes = (
(229,61,o),
(207,75,o),
(198,86,c),
(234,261,ls),
(250,339,o),
(299,460,o),
(346,460,cs),
(371,460,o),
(378,418,o),
(378,374,cs),
(378,260,o),
(327,61,o),
(249,61,cs)
);
}
);
width = 554;
},
{
anchors = (
{
name = bottom;
pos = (85,-240);
},
{
name = center;
pos = (162,260);
},
{
name = top;
pos = (298,760);
}
);
layerId = "9563C917-11DF-412F-BB09-FC0C1CFFA48C";
shapes = (
{
closed = 1;
nodes = (
(-35,-240,l),
(66,-240,l),
(71,-220,l),
(51,-220,ls),
(13,-220,o),
(8,-217,o),
(8,-192,cs),
(8,-183,o),
(11,-153,o),
(16,-132,cs),
(36,-41,ls),
(41,-19,o),
(44,5,o),
(49,27,c),
(66,7,o),
(95,-10,o),
(129,-10,cs),
(267,-10,o),
(359,218,o),
(359,388,cs),
(359,491,o),
(335,546,o),
(283,546,cs),
(227,546,o),
(187,503,o),
(133,405,c),
(127,405,l),
(134,431,o),
(140,457,o),
(146,483,cs),
(206,760,l),
(111,760,l),
(106,740,l),
(126,740,ls),
(162,740,o),
(166,736,o),
(166,715,cs),
(166,704,o),
(162,682,o),
(154,643,cs)
);
},
{
closed = 1;
nodes = (
(97,15,o),
(71,33,o),
(57,59,c),
(101,267,ls),
(116,338,o),
(197,521,o),
(279,521,cs),
(311,521,o),
(331,478,o),
(331,387,cs),
(331,224,o),
(242,15,o),
(128,15,cs)
);
}
);
width = 386;
},
{
anchors = (
{
name = bottom;
pos = (134,-240);
},
{
name = center;
pos = (210,260);
},
{
name = top;
pos = (347,760);
}
);
layerId = "A783126C-D342-49FA-8B69-0453AD03268C";
shapes = (
{
closed = 1;
nodes = (
(-14,-240,l),
(106,-240,l),
(111,-220,l),
(89,-220,ls),
(36,-220,o),
(26,-215,o),
(26,-196,cs),
(26,-176,o),
(31,-154,o),
(35,-136,cs),
(57,-35,ls),
(62,-13,o),
(63,1,o),
(64,13,c),
(87,-1,o),
(113,-10,o),
(150,-10,cs),
(340,-10,o),
(434,227,o),
(434,371,cs),
(434,488,o),
(398,546,o),
(321,546,cs),
(245,546,o),
(188,474,o),
(148,396,c),
(146,396,l),
(153,427,o),
(160,457,o),
(166,488,cs),
(223,760,l),
(101,760,l),
(96,740,l),
(142,740,ls),
(179,740,o),
(182,733,o),
(182,717,cs),
(182,701,o),
(180,685,o),
(174,656,cs)
);
},
{
closed = 1;
nodes = (
(112,14,o),
(84,20,o),
(72,39,c),
(119,261,ls),
(139,356,o),
(227,521,o),
(320,521,cs),
(381,521,o),
(406,466,o),
(406,371,cs),
(406,236,o),
(311,14,o),
(157,14,cs)
);
}
);
width = 483;
},
{
anchors = (
{
name = bottom;
pos = (124,-240);
},
{
name = center;
pos = (207,260);
},
{
name = top;
pos = (337,760);
}
);
layerId = "44BFC83C-08F8-422F-A73E-536514612562";
shapes = (
{
closed = 1;
nodes = (
(-30,-240,l),
(135,-240,l),
(144,-199,l),
(127,-199,ls),
(94,-199,o),
(78,-185,o),
(78,-157,cs),
(78,-139,o),
(83,-115,o),
(88,-95,cs),
(100,-35,ls),
(103,-21,o),
(107,-3,o),
(108,13,c),
(127,0,o),
(155,-10,o),
(187,-10,cs),
(355,-10,o),
(444,230,o),
(444,383,cs),
(444,488,o),
(408,546,o),
(346,546,cs),
(275,546,o),
(231,483,o),
(194,410,c),
(189,410,l),
(199,443,o),
(212,482,o),
(221,521,cs),
(271,760,l),
(112,760,l),
(103,719,l),
(112,719,l),
(139,719,o),
(162,710,o),
(162,678,cs),
(162,664,o),
(158,648,o),
(151,614,cs)
);
},
{
closed = 1;
nodes = (
(156,33,o),
(132,54,o),
(123,70,c),
(165,261,l),
(183,349,o),
(249,486,o),
(308,486,cs),
(342,486,o),
(353,440,o),
(353,385,cs),
(353,259,o),
(286,33,o),
(185,33,cs)
);
}
);
width = 463;
},
{
anchors = (
{
name = bottom;
pos = (149,-240);
},
{
name = center;
pos = (231,260);
},
{
name = top;
pos = (362,760);
}
);
layerId = "50C02CB6-129D-4BF7-ADB7-784B68302109";
shapes = (
{
closed = 1;
nodes = (
(-35,-240,l),
(182,-240,l),
(191,-190,l),
(159,-190,ls),
(135,-190,o),
(118,-182,o),
(118,-155,cs),
(118,-137,o),
(121,-119,o),
(125,-100,cs),
(138,-35,ls),
(143,-15,o),
(146,-1,o),
(147,13,c),
(167,0,o),
(196,-10,o),
(229,-10,cs),
(405,-10,o),
(497,220,o),
(497,380,cs),
(497,487,o),
(452,546,o),
(383,546,cs),
(308,546,o),
(272,493,o),
(231,422,c),
(225,422,l),
(242,470,o),
(260,525,o),
(271,574,cs),
(313,760,l),
(111,760,l),
(101,710,l),
(119,710,l),
(141,710,o),
(157,703,o),
(157,678,cs),
(157,661,o),
(153,644,o),
(147,614,cs)
);
},
{
closed = 1;
nodes = (
(197,49,o),
(175,66,o),
(166,79,c),
(204,261,l),
(221,343,o),
(277,471,o),
(329,471,cs),
(358,471,o),
(367,428,o),
(367,379,cs),
(367,259,o),
(309,49,o),
(221,49,cs)
);
}
);
width = 514;
}
);
script = latin;
subCategory = Lowercase;
unicode = 254;
}
{
category = Letter;
glyphname = Hbar;
kernLeft = B;
kernRight = H;
layers = (
{
anchors = (
{
name = bottom;
pos = (340,0);
},
{
name = top;
pos = (492,714);
}
);
layerId = UUID0;
shapes = (
{
closed = 1;
nodes = (
(802,499,l),
(811,548,l),
(94,548,l),
(85,499,l)
);
},
{
alignment = -1;
ref = H;
}
);
width = 793;
},
{
anchors = (
{
name = bottom;
pos = (353,0);
},
{
name = top;
pos = (505,714);
}
);
layerId = "0748FCBA-26BB-4096-A322-99C7EC440251";
shapes = (
{
closed = 1;
nodes = (
(854,499,l),
(865,552,l),
(82,552,l),
(71,499,l)
);
},
{
alignment = -1;
ref = H;
}
);
width = 819;
},
{
anchors = (
{
name = bottom;
pos = (362,0);
},
{
name = top;
pos = (514,714);
}
);
layerId = "EFE4222C-09E4-4728-8E05-7459D7542305";
shapes = (
{
closed = 1;
nodes = (
(893,499,l),
(905,555,l),
(73,555,l),
(61,499,l)
);
},
{
alignment = -1;
ref = H;
}
);
width = 838;
},
{
anchors = (
{
name = bottom;
pos = (287,0);
},
{
name = top;
pos = (439,714);
}
);
layerId = "081AFB27-5722-432A-9779-C9794386CEF1";
shapes = (
{
closed = 1;
nodes = (
(756,499,l),
(768,553,l),
(79,553,l),
(67,499,l)
);
},
{
alignment = -1;
ref = H;
}
);
width = 688;
},
{
anchors = (
{
name = bottom;
pos = (244,0);
},
{
name = top;
pos = (396,714);
}
);
layerId = "9563C917-11DF-412F-BB09-FC0C1CFFA48C";
shapes = (
{
closed = 1;
nodes = (
(608,517,l),
(613,542,l),
(100,542,l),
(95,517,l)
);
},
{
alignment = -1;
ref = H;
}
);
width = 602;
},
{
anchors = (
{
name = bottom;
pos = (324,0);
},
{
name = top;
pos = (476,714);
}
);
layerId = "A783126C-D342-49FA-8B69-0453AD03268C";
shapes = (
{
closed = 1;
nodes = (
(741,512,l),
(747,537,l),
(115,537,l),
(109,512,l)
);
},
{
alignment = -1;
ref = H;
}
);
width = 761;
},
{
anchors = (
{
name = bottom;
pos = (264,0);
},
{
name = top;
pos = (416,714);
}
);
layerId = "44BFC83C-08F8-422F-A73E-536514612562";
shapes = (
{
closed = 1;
nodes = (
(675,502,l),
(684,547,l),
(96,547,l),
(87,502,l)
);
},
{
alignment = -1;
ref = H;
}
);
width = 641;
},
{
anchors = (
{
name = bottom;
pos = (277,0);
},
{
name = top;
pos = (429,714);
}
);
layerId = "50C02CB6-129D-4BF7-ADB7-784B68302109";
shapes = (
{
closed = 1;
nodes = (
(721,500,l),
(732,550,l),
(86,550,l),
(76,500,l)
);
},
{
alignment = -1;
ref = H;
}
);
width = 668;
}
);
script = latin;
subCategory = Uppercase;
unicode = 294;
}
{
category = Letter;
glyphname = Bhook;
layers = (
{
anchors = (
{
name = bottom;
pos = (267,0);
},
{
name = center;
pos = (287,357);
},
{
name = top;
pos = (419,714);
}
);
layerId = "A783126C-D342-49FA-8B69-0453AD03268C";
shapes = (
{
closed = 1;
nodes = (
(268,0,ls),
(457,0,o),
(535,88,o),
(535,228,cs),
(535,307,o),
(485,360,o),
(413,373,c),
(414,377,l),
(520,394,o),
(577,451,o),
(577,564,cs),
(577,662,o),
(501,714,o),
(350,714,cs),
(199,714,ls),
(121,714,o),
(75,685,o),
(75,635,cs),
(75,613,o),
(84,600,o),
(100,600,cs),
(104,600,o),
(109,602,o),
(113,606,c),
(107,614,o),
(104,625,o),
(104,637,cs),
(104,672,o),
(134,693,o),
(187,694,cs),
(227,694,o),
(232,689,o),
(232,663,cs),
(232,652,o),
(227,620,o),
(221,594,cs),
(115,92,ls),
(100,23,o),
(95,20,o),
(39,20,cs),
(2,20,l),
(-3,0,l)
);
},
{
closed = 1;
nodes = (
(128,25,l),
(200,364,l),
(311,364,ls),
(439,364,o),
(507,317,o),
(507,231,cs),
(507,107,o),
(438,25,o),
(265,25,cs)
);
},
{
closed = 1;
nodes = (
(205,389,l),
(269,689,l),
(350,689,ls),
(487,689,o),
(549,640,o),
(549,564,cs),
(549,460,o),
(499,389,o),
(310,389,cs)
);
}
);
width = 635;
},
{
anchors = (
{
name = bottom;
pos = (309,0);
},
{
name = center;
pos = (378,357);
},
{
name = top;
pos = (461,714);
}
);
layerId = UUID0;
shapes = (
{
closed = 1;
nodes = (
(370,0,ls),
(559,0,o),
(658,82,o),
(658,228,cs),
(658,312,o),
(608,361,o),
(536,374,c),
(537,378,l),
(629,399,o),
(700,454,o),
(700,564,cs),
(700,662,o),
(620,714,o),
(466,714,cs),
(225,714,ls),
(114,714,o),
(68,655,o),
(68,586,cs),
(68,563,o),
(86,539,o),
(116,539,cs),
(130,539,o),
(142,544,o),
(154,553,c),
(147,564,o),
(143,575,o),
(143,589,cs),
(143,638,o),
(173,674,o),
(223,674,cs),
(257,674,o),
(283,665,o),
(283,634,cs),
(283,628,o),
(281,612,o),
(279,604,cs),
(175,114,ls),
(162,51,o),
(122,42,o),
(77,42,cs),
(64,42,l),
(56,0,l)
);
},
{
closed = 1;
nodes = (
(262,50,l),
(326,349,l),
(410,349,ls),
(505,349,o),
(550,311,o),
(550,235,cs),
(550,115,o),
(496,50,o),
(359,50,cs)
);
},
{
closed = 1;
nodes = (
(336,399,l),
(393,664,l),
(453,664,ls),
(543,664,o),
(591,626,o),
(591,551,cs),
(591,453,o),
(539,399,o),
(413,399,cs)
);
}
);
width = 731;
},
{
anchors = (
{
name = bottom;
pos = (348,0);
},
{
name = center;
pos = (439,357);
},
{
name = top;
pos = (500,714);
}
);
layerId = "0748FCBA-26BB-4096-A322-99C7EC440251";
shapes = (
{
closed = 1;
nodes = (
(479,0,ls),
(668,0,o),
(767,82,o),
(767,228,cs),
(767,312,o),
(717,361,o),
(645,374,c),
(646,378,l),
(738,399,o),
(809,454,o),
(809,564,cs),
(809,662,o),
(729,714,o),
(575,714,cs),
(275,714,ls),
(130,714,o),
(70,649,o),
(70,559,cs),
(70,513,o),
(96,484,o),
(136,484,cs),
(155,484,o),
(172,489,o),
(186,501,c),
(176,519,o),
(168,533,o),
(168,564,cs),
(168,618,o),
(208,656,o),
(271,656,cs),
(310,656,o),
(334,640,o),
(334,606,cs),
(334,600,o),
(333,595,o),
(332,588,cs),
(231,113,l),
(220,61,o),
(181,53,o),
(139,53,cs),
(126,53,l),
(115,0,l)
);
},
{
closed = 1;
nodes = (
(377,61,l),
(437,343,l),
(500,343,ls),
(569,343,o),
(602,307,o),
(602,235,cs),
(602,122,o),
(559,61,o),
(446,61,c)
);
},
{
closed = 1;
nodes = (
(450,405,l),
(502,653,l),
(546,653,ls),
(607,653,o),
(640,617,o),
(640,547,cs),
(640,456,o),
(601,405,o),
(506,405,c)
);
}
);
width = 810;
},
{
anchors = (
{
name = bottom;
pos = (377,0);
},
{
name = center;
pos = (480,357);
},
{
name = top;
pos = (529,714);
}
);
layerId = "EFE4222C-09E4-4728-8E05-7459D7542305";
shapes = (
{
closed = 1;
nodes = (
(559,0,ls),
(748,0,o),
(847,82,o),
(847,228,cs),
(847,312,o),
(797,361,o),
(725,374,c),
(726,378,l),
(818,399,o),
(889,454,o),
(889,564,cs),
(889,662,o),
(809,714,o),
(655,714,cs),
(311,714,ls),
(141,714,o),
(71,645,o),
(71,539,cs),
(71,476,o),
(103,443,o),
(150,443,cs),
(173,443,o),
(194,448,o),
(209,463,c),
(197,486,o),
(186,502,o),
(186,546,cs),
(186,603,o),
(233,643,o),
(306,643,cs),
(349,643,o),
(371,622,o),
(371,591,cs),
(371,580,o),
(369,572,o),
(367,561,cs),
(272,112,ls),
(262,68,o),
(224,61,o),
(184,61,cs),
(171,61,l),
(158,0,l)
);
},
{
closed = 1;
nodes = (
(462,69,l),
(519,339,l),
(567,339,ls),
(616,339,o),
(641,304,o),
(641,235,cs),
(641,127,o),
(606,69,o),
(510,69,cs)
);
},
{
closed = 1;
nodes = (
(534,409,l),
(582,645,l),
(615,645,ls),
(654,645,o),
(676,610,o),
(676,544,cs),
(676,458,o),
(647,409,o),
(575,409,cs)
);
}
);
width = 868;
},
{
anchors = (
{
name = bottom;
pos = (191,0);
},
{
name = center;
pos = (221,357);
},
{
name = top;
pos = (343,714);
}
);
layerId = "9563C917-11DF-412F-BB09-FC0C1CFFA48C";
shapes = (
{
closed = 1;
nodes = (
(200,0,ls),
(342,0,o),
(417,93,o),
(417,234,cs),
(417,307,o),
(378,360,o),
(324,374,c),
(324,376,l),
(407,398,o),
(464,454,o),
(464,569,cs),
(464,660,o),
(411,714,o),
(293,714,cs),
(165,714,ls),
(112,714,o),
(81,683,o),
(81,642,cs),
(81,628,o),
(83,616,o),
(98,616,cs),
(104,616,o),
(108,619,o),
(112,625,c),
(110,630,o),
(109,635,o),
(109,644,cs),
(109,675,o),
(130,694,o),
(161,694,cs),
(187,694,o),
(194,691,o),
(194,666,cs),
(194,658,o),
(192,639,o),
(184,600,cs),
(81,116,ls),
(61,23,o),
(54,20,o),
(4,20,cs),
(-17,20,l),
(-22,0,l)
);
},
{
closed = 1;
nodes = (
(90,25,l),
(162,366,l),
(244,366,ls),
(339,366,o),
(389,314,o),
(389,234,cs),
(389,106,o),
(330,25,o),
(191,25,cs)
);
},
{
closed = 1;
nodes = (
(168,391,l),
(230,689,l),
(290,689,ls),
(387,689,o),
(436,649,o),
(436,568,cs),
(436,459,o),
(380,391,o),
(245,391,cs)
);
}
);
width = 487;
},
{
anchors = (
{
name = bottom;
pos = (238,0);
},
{
name = center;
pos = (324,357);
},
{
name = top;
pos = (390,714);
}
);
layerId = "44BFC83C-08F8-422F-A73E-536514612562";
shapes = (
{
closed = 1;
nodes = (
(282,0,ls),
(459,0,o),
(551,77,o),
(551,238,cs),
(551,315,o),
(514,362,o),
(459,374,c),
(460,378,l),
(538,400,o),
(599,458,o),
(599,572,cs),
(599,668,o),
(532,714,o),
(403,714,cs),
(215,714,ls),
(120,714,o),
(80,659,o),
(80,597,cs),
(80,566,o),
(95,546,o),
(120,546,cs),
(132,546,o),
(143,549,o),
(153,560,c),
(148,569,o),
(145,579,o),
(145,595,cs),
(145,639,o),
(173,676,o),
(213,676,cs),
(238,676,o),
(256,670,o),
(256,644,cs),
(256,636,o),
(254,619,o),
(251,603,cs),
(149,114,l),
(135,50,o),
(103,41,o),
(68,41,cs),
(57,41,l),
(49,0,l)
);
},
{
closed = 1;
nodes = (
(228,49,l),
(291,350,l),
(354,350,ls),
(421,350,o),
(454,315,o),
(454,245,cs),
(454,123,o),
(411,49,o),
(299,49,cs)
);
},
{
closed = 1;
nodes = (
(301,398,l),
(357,665,l),
(402,665,ls),
(465,665,o),
(499,631,o),
(499,563,cs),
(499,460,o),
(459,398,o),
(358,398,cs)
);
}
);
width = 596;
},
{
anchors = (
{
name = bottom;
pos = (262,0);
},
{
name = center;
pos = (377,357);
},
{
name = top;
pos = (414,714);
}
);
layerId = "50C02CB6-129D-4BF7-ADB7-784B68302109";
shapes = (
{
closed = 1;
nodes = (
(314,0,ls),
(520,0,o),
(627,60,o),
(627,237,cs),
(627,315,o),
(590,362,o),
(534,374,c),
(535,378,l),
(614,400,o),
(675,458,o),
(675,571,cs),
(675,674,o),
(600,714,o),
(456,714,cs),
(246,714,ls),
(131,714,o),
(80,650,o),
(80,567,cs),
(80,525,o),
(101,500,o),
(133,500,cs),
(150,500,o),
(165,504,o),
(176,516,c),
(169,531,o),
(163,544,o),
(163,569,cs),
(163,622,o),
(199,661,o),
(241,661,cs),
(268,661,o),
(283,651,o),
(283,626,cs),
(283,617,o),
(281,601,o),
(278,584,cs),
(181,113,l),
(169,58,o),
(138,50,o),
(104,50,cs),
(93,50,l),
(82,0,l)
);
},
{
closed = 1;
nodes = (
(307,58,l),
(366,345,l),
(413,345,ls),
(462,345,o),
(486,312,o),
(486,248,cs),
(486,131,o),
(452,58,o),
(357,58,cs)
);
},
{
closed = 1;
nodes = (
(379,403,l),
(430,656,l),
(464,656,ls),
(506,656,o),
(528,625,o),
(528,565,cs),
(528,465,o),
(499,403,o),
(421,403,cs)
);
}
);
width = 657;
},
{
anchors = (
{
name = bottom;
pos = (280,0);
},
{
name = center;
pos = (407,357);
},
{
name = top;
pos = (432,714);
}
);
layerId = "081AFB27-5722-432A-9779-C9794386CEF1";
shapes = (
{
closed = 1;
nodes = (
(339,0,ls),
(567,0,o),
(686,47,o),
(686,237,cs),
(686,315,o),
(648,362,o),
(592,374,c),
(593,378,l),
(672,400,o),
(734,458,o),
(734,571,cs),
(734,679,o),
(652,714,o),
(497,714,cs),
(269,714,ls),
(140,714,o),
(80,644,o),
(80,544,cs),
(80,493,o),
(105,464,o),
(143,464,cs),
(163,464,o),
(181,469,o),
(194,483,c),
(185,502,o),
(177,517,o),
(177,549,cs),
(177,609,o),
(219,650,o),
(262,650,cs),
(291,650,o),
(304,637,o),
(304,613,cs),
(304,602,o),
(302,587,o),
(299,570,cs),
(205,112,ls),
(195,64,o),
(164,57,o),
(132,57,cs),
(121,57,l),
(108,0,l)
);
},
{
closed = 1;
nodes = (
(367,65,l),
(423,341,l),
(459,341,ls),
(494,341,o),
(511,310,o),
(511,250,cs),
(511,137,o),
(484,65,o),
(401,65,cs)
);
},
{
closed = 1;
nodes = (
(438,407,l),
(486,649,l),
(511,649,ls),
(537,649,o),
(551,620,o),
(551,566,cs),
(551,469,o),
(529,407,o),
(469,407,cs)
);
}
);
width = 703;
}
);
script = latin;
subCategory = Uppercase;
unicode = 385;
}
{
category = Letter;
glyphname = Khook;
layers = (
{
anchors = (
{
name = bottom;
pos = (267,0);
},
{
name = center;
pos = (332,365);
},
{
name = top;
pos = (419,714);
}
);
layerId = "A783126C-D342-49FA-8B69-0453AD03268C";
shapes = (
{
closed = 1;
nodes = (
(206,0,l),
(210,20,l),
(167,20,ls),
(134,20,o),
(121,25,o),
(121,51,cs),
(121,64,o),
(124,82,o),
(130,108,cs),
(168,287,l),
(301,406,l),
(443,70,ls),
(462,24,o),
(492,0,o),
(541,0,cs),
(569,0,l),
(575,25,l),
(549,25,ls),
(512,25,o),
(487,38,o),
(470,79,cs),
(322,426,l),
(538,632,ls),
(584,676,o),
(606,690,o),
(627,690,cs),
(646,690,o),
(660,681,o),
(660,667,c),
(676,669,o),
(685,679,o),
(685,695,cs),
(685,715,o),
(665,730,o),
(640,730,cs),
(610,730,o),
(588,716,o),
(521,651,cs),
(176,323,l),
(236,606,ls),
(252,683,o),
(261,694,o),
(311,694,cs),
(354,694,l),
(358,714,l),
(132,714,l),
(128,694,l),
(171,694,ls),
(204,694,o),
(217,689,o),
(217,663,cs),
(217,650,o),
(213,632,o),
(208,606,cs),
(102,108,ls),
(86,31,o),
(77,20,o),
(27,20,cs),
(-16,20,l),
(-20,0,l)
);
}
);
width = 647;
},
{
anchors = (
{
name = bottom;
pos = (293,0);
},
{
name = center;
pos = (372,362);
},
{
name = top;
pos = (445,714);
}
);
layerId = UUID0;
shapes = (
{
closed = 1;
nodes = (
(270,0,l),
(279,42,l),
(266,42,ls),
(224,42,o),
(194,48,o),
(194,82,cs),
(194,88,o),
(196,102,o),
(198,110,cs),
(235,287,l),
(329,353,l),
(436,93,ls),
(465,24,o),
(496,0,o),
(616,0,cs),
(630,0,l),
(639,42,l),
(635,42,ls),
(590,42,o),
(564,68,o),
(541,122,cs),
(410,427,l),
(613,621,ls),
(632,640,o),
(649,644,o),
(665,644,cs),
(692,644,o),
(703,622,o),
(707,595,c),
(737,596,o),
(766,623,o),
(766,666,cs),
(766,707,o),
(738,724,o),
(700,724,cs),
(661,724,o),
(628,708,o),
(585,667,cs),
(247,345,l),
(302,600,l),
(315,663,o),
(354,672,o),
(399,672,cs),
(412,672,l),
(421,714,l),
(130,714,l),
(121,672,l),
(134,672,ls),
(176,672,o),
(206,666,o),
(206,632,cs),
(206,626,o),
(204,612,o),
(202,604,cs),
(98,114,ls),
(84,51,o),
(45,42,o),
(0,42,cs),
(-13,42,l),
(-21,0,l)
);
}
);
width = 700;
},
{
anchors = (
{
name = bottom;
pos = (314,0);
},
{
name = center;
pos = (403,360);
},
{
name = top;
pos = (466,714);
}
);
layerId = "0748FCBA-26BB-4096-A322-99C7EC440251";
shapes = (
{
closed = 1;
nodes = (
(321,0,l),
(332,53,l),
(319,53,ls),
(277,53,o),
(246,58,o),
(246,87,cs),
(246,92,o),
(249,103,o),
(250,110,cs),
(287,287,l),
(346,329,l),
(420,138,ls),
(463,28,o),
(496,0,o),
(629,0,cs),
(681,0,l),
(691,53,l),
(688,53,ls),
(643,53,o),
(625,80,o),
(593,155,cs),
(476,436,l),
(669,615,ls),
(685,630,o),
(694,635,o),
(714,635,cs),
(744,635,o),
(754,608,o),
(754,583,c),
(797,584,o),
(829,605,o),
(829,655,cs),
(829,694,o),
(797,720,o),
(737,720,cs),
(683,720,o),
(656,698,o),
(608,653,cs),
(303,363,l),
(353,600,ls),
(364,653,o),
(404,661,o),
(448,661,cs),
(461,661,l),
(472,714,l),
(127,714,l),
(116,661,l),
(129,661,ls),
(171,661,o),
(201,656,o),
(201,627,cs),
(201,622,o),
(199,611,o),
(195,593,cs),
(93,113,ls),
(82,61,o),
(43,53,o),
(1,53,cs),
(-12,53,l),
(-23,0,l)
);
}
);
width = 741;
},
{
anchors = (
{
name = bottom;
pos = (329,0);
},
{
name = center;
pos = (425,358);
},
{
name = top;
pos = (481,714);
}
);
layerId = "EFE4222C-09E4-4728-8E05-7459D7542305";
shapes = (
{
closed = 1;
nodes = (
(358,0,l),
(371,61,l),
(358,61,ls),
(316,61,o),
(284,65,o),
(284,91,cs),
(284,95,o),
(286,104,o),
(291,126,cs),
(325,287,l),
(358,311,l),
(408,171,ls),
(461,31,o),
(496,0,o),
(638,0,cs),
(718,0,l),
(729,61,l),
(727,61,ls),
(682,61,o),
(669,89,o),
(631,179,cs),
(524,443,l),
(686,588,ls),
(714,614,o),
(727,628,o),
(750,628,cs),
(782,628,o),
(791,598,o),
(788,574,c),
(841,575,o),
(875,592,o),
(875,647,cs),
(875,684,o),
(840,717,o),
(770,717,cs),
(711,717,o),
(676,691,o),
(624,643,cs),
(344,376,l),
(390,600,ls),
(400,646,o),
(440,653,o),
(484,653,cs),
(497,653,l),
(509,714,l),
(124,714,l),
(112,653,l),
(125,653,ls),
(167,653,o),
(197,649,o),
(197,623,cs),
(197,619,o),
(195,610,o),
(189,585,cs),
(89,112,ls),
(80,68,o),
(41,61,o),
(1,61,cs),
(-12,61,l),
(-25,0,l)
);
}
);
width = 771;
},
{
anchors = (
{
name = bottom;
pos = (200,0);
},
{
name = center;
pos = (275,361);
},
{
name = top;
pos = (352,714);
}
);
layerId = "9563C917-11DF-412F-BB09-FC0C1CFFA48C";
shapes = (
{
closed = 1;
nodes = (
(163,0,l),
(167,20,l),
(144,20,ls),
(111,20,o),
(98,25,o),
(98,51,cs),
(98,64,o),
(101,82,o),
(107,108,cs),
(139,257,l),
(252,388,l),
(337,82,ls),
(354,21,o),
(378,0,o),
(440,0,cs),
(450,0,l),
(455,20,l),
(443,20,ls),
(397,20,o),
(377,44,o),
(364,90,cs),
(272,411,l),
(477,655,ls),
(510,693,o),
(520,697,o),
(534,697,cs),
(541,697,o),
(548,692,o),
(548,669,c),
(569,669,o),
(574,679,o),
(574,692,cs),
(574,710,o),
(562,722,o),
(538,722,cs),
(508,722,o),
(491,711,o),
(467,683,cs),
(149,307,l),
(213,606,ls),
(230,683,o),
(238,694,o),
(288,694,cs),
(311,694,l),
(315,714,l),
(129,714,l),
(125,694,l),
(148,694,ls),
(181,694,o),
(194,689,o),
(194,663,cs),
(194,650,o),
(190,632,o),
(185,606,cs),
(79,108,ls),
(63,31,o),
(54,20,o),
(4,20,cs),
(-19,20,l),
(-23,0,l)
);
}
);
width = 514;
},
{
anchors = (
{
name = bottom;
pos = (228,0);
},
{
name = center;
pos = (318,362);
},
{
name = top;
pos = (380,714);
}
);
layerId = "44BFC83C-08F8-422F-A73E-536514612562";
shapes = (
{
closed = 1;
nodes = (
(227,0,l),
(236,41,l),
(226,41,ls),
(193,41,o),
(169,47,o),
(169,79,cs),
(169,86,o),
(172,101,o),
(174,113,cs),
(211,287,l),
(282,356,l),
(348,117,l),
(370,30,o),
(393,0,o),
(495,0,cs),
(516,0,l),
(524,41,l),
(521,41,ls),
(486,41,o),
(465,67,o),
(450,120,cs),
(360,426,l),
(523,615,ls),
(542,637,o),
(556,644,o),
(570,644,cs),
(592,644,o),
(600,624,o),
(601,597,c),
(629,598,o),
(654,626,o),
(654,671,cs),
(654,709,o),
(631,725,o),
(598,725,cs),
(566,725,o),
(539,709,o),
(502,668,cs),
(224,343,l),
(277,600,l),
(290,664,o),
(322,673,o),
(359,673,cs),
(369,673,l),
(378,714,l),
(133,714,l),
(124,673,l),
(135,673,ls),
(168,673,o),
(191,667,o),
(191,635,cs),
(191,628,o),
(189,615,o),
(187,605,cs),
(83,114,ls),
(69,50,o),
(37,41,o),
(2,41,cs),
(-8,41,l),
(-17,0,l)
);
}
);
width = 569;
},
{
anchors = (
{
name = bottom;
pos = (247,0);
},
{
name = center;
pos = (344,361);
},
{
name = top;
pos = (399,714);
}
);
layerId = "50C02CB6-129D-4BF7-ADB7-784B68302109";
shapes = (
{
closed = 1;
nodes = (
(268,0,l),
(280,50,l),
(269,50,ls),
(236,50,o),
(211,55,o),
(211,84,cs),
(211,90,o),
(213,101,o),
(217,118,cs),
(252,287,l),
(296,336,l),
(348,137,l),
(375,24,o),
(411,0,o),
(523,0,cs),
(559,0,l),
(570,50,l),
(567,50,ls),
(534,50,o),
(517,79,o),
(496,151,cs),
(413,433,l),
(562,600,ls),
(582,623,o),
(594,635,o),
(611,635,cs),
(635,635,o),
(643,612,o),
(641,587,c),
(680,588,o),
(707,611,o),
(707,661,cs),
(707,698,o),
(682,722,o),
(634,722,cs),
(593,722,o),
(565,701,o),
(523,653,cs),
(269,358,l),
(318,600,l),
(329,656,o),
(362,664,o),
(398,664,cs),
(409,664,l),
(419,714,l),
(131,714,l),
(120,664,l),
(130,664,ls),
(164,664,o),
(188,659,o),
(188,630,cs),
(188,623,o),
(184,608,o),
(182,596,cs),
(80,113,ls),
(68,58,o),
(36,50,o),
(3,50,cs),
(-8,50,l),
(-19,0,l)
);
}
);
width = 606;
},
{
anchors = (
{
name = bottom;
pos = (261,0);
},
{
name = center;
pos = (363,359);
},
{
name = top;
pos = (413,714);
}
);
layerId = "081AFB27-5722-432A-9779-C9794386CEF1";
shapes = (
{
closed = 1;
nodes = (
(300,0,l),
(313,57,l),
(302,57,ls),
(268,57,o),
(243,61,o),
(243,87,cs),
(243,93,o),
(245,102,o),
(249,122,cs),
(284,287,l),
(307,320,l),
(347,153,ls),
(379,20,o),
(425,0,o),
(544,0,cs),
(593,0,l),
(605,57,l),
(603,57,ls),
(570,57,o),
(556,88,o),
(531,175,cs),
(454,439,l),
(592,589,ls),
(613,612,o),
(623,628,o),
(642,628,cs),
(669,628,o),
(676,602,o),
(672,579,c),
(720,580,o),
(748,600,o),
(748,654,cs),
(748,690,o),
(721,719,o),
(662,719,cs),
(614,719,o),
(585,694,o),
(540,642,cs),
(303,369,l),
(349,600,ls),
(359,650,o),
(392,657,o),
(428,657,cs),
(439,657,l),
(451,714,l),
(129,714,l),
(117,657,l),
(127,657,ls),
(161,657,o),
(185,653,o),
(185,627,cs),
(185,619,o),
(181,603,o),
(178,589,cs),
(77,112,ls),
(67,64,o),
(35,57,o),
(3,57,cs),
(-7,57,l),
(-21,0,l)
);
}
);
width = 635;
}
);
script = latin;
subCategory = Uppercase;
unicode = 408;
}
{
category = Letter;
glyphname = Ohorn;
kernLeft = O;
kernRight = Ohorn;
layers = (
{
anchors = (
{
name = bottom;
pos = (332,0);
},
{
name = center;
pos = (448,379);
},
{
name = top;
pos = (484,714);
}
);
layerId = UUID0;
shapes = (
{
closed = 1;
nodes = (
(582,-11,o),
(711,266,o),
(711,450,cs),
(711,490,o),
(706,526,o),
(696,557,c),
(776,587,o),
(844,634,o),
(844,714,cs),
(844,747,o),
(822,770,o),
(786,770,cs),
(752,770,o),
(727,751,o),
(727,718,cs),
(727,685,o),
(756,679,o),
(756,657,cs),
(756,619,o),
(718,601,o),
(683,589,c),
(639,682,o),
(550,725,o),
(452,725,cs),
(187,725,o),
(52,458,o),
(52,266,cs),
(52,85,o),
(166,-11,o),
(314,-11,cs)
);
},
{
closed = 1;
nodes = (
(231,44,o),
(161,102,o),
(161,238,cs),
(161,400,o),
(250,671,o),
(444,671,cs),
(535,671,o),
(601,612,o),
(601,477,cs),
(601,315,o),
(514,44,o),
(320,44,cs)
);
}
);
width = 778;
},
{
anchors = (
{
name = bottom;
pos = (365,0);
},
{
name = center;
pos = (497,379);
},
{
name = top;
pos = (517,714);
}
);
layerId = "0748FCBA-26BB-4096-A322-99C7EC440251";
shapes = (
{
closed = 1;
nodes = (
(628,-11,o),
(765,266,o),
(765,450,cs),
(765,472,o),
(763,492,o),
(760,511,c),
(855,545,o),
(931,606,o),
(931,700,cs),
(931,744,o),
(906,770,o),
(864,770,cs),
(822,770,o),
(792,744,o),
(792,704,cs),
(792,660,o),
(827,652,o),
(827,623,cs),
(827,594,o),
(808,576,o),
(750,553,c),
(712,671,o),
(606,725,o),
(489,725,cs),
(207,725,o),
(63,458,o),
(63,266,cs),
(63,85,o),
(184,-11,o),
(342,-11,cs)
);
},
{
closed = 1;
nodes = (
(286,55,o),
(226,111,o),
(226,242,cs),
(226,399,o),
(302,660,o),
(468,660,cs),
(546,660,o),
(603,603,o),
(603,473,cs),
(603,316,o),
(528,55,o),
(362,55,cs)
);
}
);
width = 843;
},
{
anchors = (
{
name = bottom;
pos = (389,0);
},
{
name = center;
pos = (533,379);
},
{
name = top;
pos = (541,714);
}
);
layerId = "EFE4222C-09E4-4728-8E05-7459D7542305";
shapes = (
{
closed = 1;
nodes = (
(662,-11,o),
(805,266,o),
(805,450,cs),
(805,459,o),
(805,467,o),
(805,476,c),
(913,514,o),
(995,585,o),
(995,690,cs),
(995,742,o),
(968,770,o),
(921,770,cs),
(873,770,o),
(840,739,o),
(840,694,cs),
(840,642,o),
(879,632,o),
(879,598,cs),
(879,576,o),
(874,558,o),
(799,526,c),
(766,663,o),
(647,725,o),
(516,725,cs),
(222,725,o),
(71,458,o),
(71,266,cs),
(71,85,o),
(197,-11,o),
(363,-11,cs)
);
},
{
closed = 1;
nodes = (
(327,63,o),
(274,118,o),
(274,245,cs),
(274,398,o),
(340,652,o),
(486,652,cs),
(554,652,o),
(605,596,o),
(605,470,cs),
(605,317,o),
(538,63,o),
(393,63,cs)
);
}
);
width = 891;
},
{
anchors = (
{
name = bottom;
pos = (311,0);
},
{
name = center;
pos = (460,379);
},
{
name = top;
pos = (463,714);
}
);
layerId = "081AFB27-5722-432A-9779-C9794386CEF1";
shapes = (
{
closed = 1;
nodes = (
(548,-11,o),
(680,269,o),
(682,456,cs),
(682,469,o),
(684,482,o),
(685,494,c),
(780,531,o),
(852,599,o),
(852,700,cs),
(852,745,o),
(830,770,o),
(793,770,cs),
(751,770,o),
(722,740,o),
(722,696,cs),
(722,652,o),
(752,642,o),
(752,612,cs),
(752,586,o),
(749,568,o),
(682,540,c),
(662,667,o),
(564,725,o),
(454,725,cs),
(205,725,o),
(69,445,o),
(69,250,cs),
(69,80,o),
(168,-11,o),
(300,-11,cs)
);
},
{
closed = 1;
nodes = (
(280,59,o),
(242,109,o),
(242,224,cs),
(242,374,o),
(305,656,o),
(425,656,cs),
(476,656,o),
(513,605,o),
(513,491,cs),
(513,341,o),
(449,59,o),
(329,59,cs)
);
}
);
width = 736;
},
{
anchors = (
{
name = bottom;
pos = (219,0);
},
{
name = center;
pos = (329,378);
},
{
name = top;
pos = (371,714);
}
);
layerId = "9563C917-11DF-412F-BB09-FC0C1CFFA48C";
shapes = (
{
closed = 1;
nodes = (
(439,-11,o),
(526,303,o),
(526,486,cs),
(526,530,o),
(520,568,o),
(510,599,c),
(573,607,o),
(613,637,o),
(613,710,cs),
(613,745,o),
(600,768,o),
(578,768,cs),
(559,768,o),
(549,751,o),
(549,737,cs),
(549,700,o),
(584,710,o),
(584,676,cs),
(584,642,o),
(548,624,o),
(503,618,c),
(471,694,o),
(409,725,o),
(344,725,cs),
(144,725,o),
(45,426,o),
(45,230,cs),
(45,62,o),
(128,-11,o),
(229,-11,cs)
);
},
{
closed = 1;
nodes = (
(148,14,o),
(73,80,o),
(73,230,cs),
(73,408,o),
(164,700,o),
(344,700,cs),
(425,700,o),
(498,638,o),
(498,486,cs),
(498,318,o),
(414,14,o),
(228,14,cs)
);
}
);
width = 551;
},
{
anchors = (
{
name = bottom;
pos = (291,0);
},
{
name = center;
pos = (418,379);
},
{
name = top;
pos = (443,714);
}
);
layerId = "A783126C-D342-49FA-8B69-0453AD03268C";
shapes = (
{
closed = 1;
nodes = (
(542,-11,o),
(661,266,o),
(661,450,cs),
(661,495,o),
(655,535,o),
(643,568,c),
(742,594,o),
(779,674,o),
(779,736,cs),
(779,757,o),
(771,770,o),
(756,770,cs),
(743,770,o),
(727,762,o),
(723,743,cs),
(717,712,o),
(741,708,o),
(741,684,cs),
(741,654,o),
(701,601,o),
(636,588,c),
(596,682,o),
(514,725,o),
(424,725,cs),
(180,725,o),
(57,458,o),
(57,266,cs),
(57,85,o),
(162,-11,o),
(297,-11,cs)
);
},
{
closed = 1;
nodes = (
(185,14,o),
(85,88,o),
(85,266,cs),
(85,444,o),
(202,700,o),
(417,700,cs),
(537,700,o),
(633,628,o),
(633,449,cs),
(633,274,o),
(518,14,o),
(300,14,cs)
);
}
);
width = 695;
},
{
anchors = (
{
name = bottom;
pos = (261,0);
},
{
name = center;
pos = (388,379);
},
{
name = top;
pos = (413,714);
}
);
layerId = "44BFC83C-08F8-422F-A73E-536514612562";
shapes = (
{
closed = 1;
nodes = (
(481,-11,o),
(600,279,o),
(600,471,cs),
(600,503,o),
(598,535,o),
(592,561,c),
(665,592,o),
(723,639,o),
(723,719,cs),
(723,749,o),
(707,770,o),
(678,770,cs),
(648,770,o),
(626,750,o),
(626,718,cs),
(626,689,o),
(648,682,o),
(648,662,cs),
(648,623,o),
(619,605,o),
(585,593,c),
(555,684,o),
(482,725,o),
(400,725,cs),
(177,725,o),
(54,443,o),
(54,247,cs),
(54,79,o),
(141,-11,o),
(256,-11,cs)
);
},
{
closed = 1;
nodes = (
(201,43,o),
(151,96,o),
(151,220,cs),
(151,379,o),
(233,672,o),
(388,672,cs),
(455,672,o),
(502,618,o),
(502,496,cs),
(502,337,o),
(423,43,o),
(266,43,cs)
);
}
);
width = 636;
},
{
anchors = (
{
name = bottom;
pos = (289,0);
},
{
name = center;
pos = (429,379);
},
{
name = top;
pos = (441,714);
}
);
layerId = "50C02CB6-129D-4BF7-ADB7-784B68302109";
shapes = (
{
closed = 1;
nodes = (
(519,-11,o),
(645,273,o),
(646,463,cs),
(646,484,o),
(647,505,o),
(645,523,c),
(730,557,o),
(796,616,o),
(796,708,cs),
(796,747,o),
(776,770,o),
(743,770,cs),
(706,770,o),
(680,744,o),
(680,706,cs),
(680,668,o),
(707,659,o),
(707,634,cs),
(707,602,o),
(693,584,o),
(640,563,c),
(616,674,o),
(528,725,o),
(431,725,cs),
(193,725,o),
(63,444,o),
(63,249,cs),
(63,79,o),
(156,-11,o),
(281,-11,cs)
);
},
{
closed = 1;
nodes = (
(246,52,o),
(203,103,o),
(203,222,cs),
(203,376,o),
(274,663,o),
(409,663,cs),
(467,663,o),
(508,611,o),
(508,493,cs),
(508,339,o),
(438,52,o),
(302,52,cs)
);
}
);
width = 693;
}
);
script = latin;
subCategory = Uppercase;
unicode = 416;
}
{
category = Letter;
glyphname = phook;
layers = (
{
anchors = (
{
name = bottom;
pos = (151,-240);
},
{
name = center;
pos = (220,265);
},
{
name = top;
pos = (366,770);
}
);
layerId = "A783126C-D342-49FA-8B69-0453AD03268C";
shapes = (
{
closed = 1;
nodes = (
(-4,-240,l),
(117,-240,l),
(122,-220,l),
(100,-220,ls),
(47,-220,o),
(37,-215,o),
(37,-196,cs),
(37,-176,o),
(42,-154,o),
(46,-136,cs),
(68,-35,ls),
(73,-13,o),
(74,1,o),
(75,13,c),
(98,-1,o),
(124,-10,o),
(161,-10,cs),
(351,-10,o),
(445,227,o),
(445,371,cs),
(445,488,o),
(409,546,o),
(332,546,cs),
(256,546,o),
(199,474,o),
(159,396,c),
(157,396,l),
(161,416,o),
(166,436,o),
(170,456,cs),
(209,645,ls),
(223,713,o),
(246,742,o),
(290,742,cs),
(329,742,o),
(350,717,o),
(350,676,c),
(369,678,o),
(380,690,o),
(380,709,cs),
(380,743,o),
(349,770,o),
(297,770,cs),
(231,770,o),
(197,727,o),
(179,638,cs)
);
},
{
closed = 1;
nodes = (
(123,14,o),
(95,20,o),
(83,39,c),
(130,261,ls),
(150,356,o),
(238,521,o),
(331,521,cs),
(392,521,o),
(417,466,o),
(417,371,cs),
(417,236,o),
(322,14,o),
(168,14,cs)
);
}
);
width = 485;
},
{
anchors = (
{
name = bottom;
pos = (181,-240);
},
{
name = center;
pos = (263,265);
},
{
name = top;
pos = (396,770);
}
);
layerId = UUID0;
shapes = (
{
closed = 1;
nodes = (
(-7,-240,l),
(181,-240,l),
(190,-198,l),
(177,-198,ls),
(139,-198,o),
(107,-192,o),
(107,-152,cs),
(107,-137,o),
(114,-104,o),
(116,-96,cs),
(130,-35,ls),
(134,-19,o),
(137,2,o),
(138,13,c),
(163,-1,o),
(197,-10,o),
(236,-10,cs),
(436,-10,o),
(534,221,o),
(534,365,cs),
(534,482,o),
(488,546,o),
(407,546,cs),
(318,546,o),
(264,481,o),
(224,403,c),
(219,403,l),
(230,444,o),
(241,485,o),
(249,526,cs),
(264,600,ls),
(282,683,o),
(297,724,o),
(338,724,cs),
(373,724,o),
(380,682,o),
(380,631,c),
(433,631,o),
(463,652,o),
(463,696,cs),
(463,740,o),
(422,770,o),
(344,770,cs),
(242,770,o),
(192,705,o),
(168,591,cs)
);
},
{
closed = 1;
nodes = (
(196,35,o),
(166,56,o),
(154,71,c),
(195,261,ls),
(214,348,o),
(291,483,o),
(369,483,cs),
(418,483,o),
(432,424,o),
(432,366,cs),
(432,243,o),
(360,35,o),
(233,35,cs)
);
}
);
width = 577;
},
{
anchors = (
{
name = bottom;
pos = (204,-240);
},
{
name = center;
pos = (276,265);
},
{
name = top;
pos = (419,770);
}
);
layerId = "0748FCBA-26BB-4096-A322-99C7EC440251";
shapes = (
{
closed = 1;
nodes = (
(-30,-240,l),
(224,-240,l),
(233,-187,l),
(195,-187,ls),
(157,-187,o),
(142,-181,o),
(142,-145,cs),
(142,-140,o),
(145,-119,o),
(149,-102,c),
(163,-35,ls),
(167,-19,o),
(170,2,o),
(171,13,c),
(197,-1,o),
(233,-10,o),
(273,-10,cs),
(481,-10,o),
(583,221,o),
(583,365,cs),
(583,482,o),
(525,546,o),
(437,546,cs),
(338,546,o),
(298,488,o),
(264,431,c),
(257,431,l),
(268,463,o),
(282,519,o),
(288,550,cs),
(298,600,ls),
(314,678,o),
(327,711,o),
(361,711,cs),
(395,711,o),
(397,677,o),
(397,613,c),
(472,613,o),
(512,639,o),
(512,683,cs),
(512,732,o),
(471,770,o),
(368,770,cs),
(233,770,o),
(169,706,o),
(141,573,cs)
);
},
{
closed = 1;
nodes = (
(231,54,o),
(203,70,o),
(191,82,c),
(229,261,l),
(246,341,o),
(311,466,o),
(378,466,cs),
(420,466,o),
(432,412,o),
(432,358,cs),
(432,245,o),
(370,54,o),
(262,54,cs)
);
}
);
width = 623;
},
{
anchors = (
{
name = bottom;
pos = (221,-240);
},
{
name = center;
pos = (286,265);
},
{
name = top;
pos = (436,770);
}
);
layerId = "EFE4222C-09E4-4728-8E05-7459D7542305";
shapes = (
{
closed = 1;
nodes = (
(-47,-240,l),
(256,-240,l),
(265,-179,l),
(208,-179,ls),
(174,-179,o),
(168,-163,o),
(168,-145,cs),
(168,-135,o),
(169,-125,o),
(173,-106,cs),
(187,-35,ls),
(191,-19,o),
(194,2,o),
(195,13,c),
(222,-1,o),
(260,-10,o),
(300,-10,cs),
(514,-10,o),
(619,202,o),
(619,365,cs),
(619,482,o),
(552,546,o),
(459,546,cs),
(353,546,o),
(323,493,o),
(294,452,c),
(285,452,l),
(296,477,o),
(312,544,o),
(317,568,cs),
(323,600,ls),
(338,674,o),
(349,701,o),
(378,701,cs),
(411,701,o),
(410,673,o),
(410,600,c),
(501,600,o),
(548,629,o),
(548,683,cs),
(548,726,o),
(507,770,o),
(386,770,cs),
(226,770,o),
(152,707,o),
(121,560,cs)
);
},
{
closed = 1;
nodes = (
(257,68,o),
(230,80,o),
(218,90,c),
(254,261,ls),
(269,336,o),
(325,453,o),
(384,453,cs),
(421,453,o),
(432,403,o),
(432,352,cs),
(432,246,o),
(377,68,o),
(283,68,cs)
);
}
);
width = 657;
},
{
anchors = (
{
name = bottom;
pos = (98,-240);
},
{
name = center;
pos = (162,265);
},
{
name = top;
pos = (313,770);
}
);
layerId = "9563C917-11DF-412F-BB09-FC0C1CFFA48C";
shapes = (
{
closed = 1;
nodes = (
(-35,-240,l),
(66,-240,l),
(71,-220,l),
(51,-220,ls),
(13,-220,o),
(6,-217,o),
(6,-192,cs),
(6,-183,o),
(11,-153,o),
(16,-132,cs),
(39,-26,ls),
(43,-9,o),
(46,10,o),
(48,27,c),
(65,7,o),
(95,-10,o),
(129,-10,cs),
(267,-10,o),
(359,218,o),
(359,388,cs),
(359,491,o),
(335,546,o),
(283,546,cs),
(227,546,o),
(185,500,o),
(131,402,c),
(127,402,l),
(138,447,o),
(148,491,o),
(158,536,cs),
(177,626,ls),
(196,718,o),
(215,745,o),
(251,745,cs),
(288,745,o),
(297,718,o),
(297,656,c),
(319,656,o),
(324,667,o),
(324,686,cs),
(324,728,o),
(302,770,o),
(254,770,cs),
(199,770,o),
(172,732,o),
(149,624,cs)
);
},
{
closed = 1;
nodes = (
(97,15,o),
(71,33,o),
(57,59,c),
(101,267,ls),
(116,338,o),
(197,521,o),
(279,521,cs),
(311,521,o),
(331,478,o),
(331,387,cs),
(331,224,o),
(242,15,o),
(128,15,cs)
);
}
);
width = 386;
},
{
anchors = (
{
name = bottom;
pos = (128,-240);
},
{
name = center;
pos = (217,265);
},
{
name = top;
pos = (343,770);
}
);
layerId = "44BFC83C-08F8-422F-A73E-536514612562";
shapes = (
{
closed = 1;
nodes = (
(-20,-240,l),
(144,-240,l),
(153,-199,l),
(134,-199,ls),
(108,-199,o),
(87,-190,o),
(87,-159,cs),
(87,-138,o),
(94,-101,o),
(96,-95,cs),
(110,-35,ls),
(114,-19,o),
(117,2,o),
(118,13,c),
(137,-2,o),
(164,-9,o),
(195,-9,cs),
(361,-9,o),
(454,232,o),
(454,383,cs),
(454,488,o),
(418,546,o),
(355,546,cs),
(282,546,o),
(239,480,o),
(205,399,c),
(200,399,l),
(210,442,o),
(222,481,o),
(229,523,cs),
(244,600,l),
(261,683,o),
(275,725,o),
(306,725,cs),
(334,725,o),
(337,682,o),
(335,633,c),
(383,633,o),
(411,655,o),
(411,703,cs),
(411,742,o),
(379,770,o),
(314,770,cs),
(226,770,o),
(178,703,o),
(154,590,cs)
);
},
{
closed = 1;
nodes = (
(166,33,o),
(143,54,o),
(133,70,c),
(175,261,ls),
(193,349,o),
(258,486,o),
(317,486,cs),
(352,486,o),
(363,435,o),
(363,383,cs),
(363,259,o),
(296,33,o),
(194,33,cs)
);
}
);
width = 471;
},
{
anchors = (
{
name = bottom;
pos = (148,-240);
},
{
name = center;
pos = (228,265);
},
{
name = top;
pos = (363,770);
}
);
layerId = "50C02CB6-129D-4BF7-ADB7-784B68302109";
shapes = (
{
closed = 1;
nodes = (
(-38,-240,l),
(179,-240,l),
(188,-190,l),
(151,-190,ls),
(128,-190,o),
(114,-180,o),
(114,-157,cs),
(114,-137,o),
(119,-112,o),
(121,-100,cs),
(136.01,-35,ls),
(140,-19,o),
(143,2,o),
(144.01,13,c),
(162,-4,o),
(192,-9,o),
(223,-9,cs),
(396,-9,o),
(495,226,o),
(495,380,cs),
(495,487,o),
(450,546,o),
(381,546,cs),
(298.99,546,o),
(266,486,o),
(238,423,c),
(231,423,l),
(241,458,o),
(255,509,o),
(261,543,cs),
(272,600,l),
(286,679,o),
(298,714,o),
(325,714,cs),
(352,714,o),
(352,678,o),
(350,618,c),
(415,618,o),
(451,644,o),
(451,695,cs),
(451,736,o),
(418,770,o),
(333,770,cs),
(220,770,o),
(160,701,o),
(133,570,cs)
);
},
{
closed = 1;
nodes = (
(195,49,o),
(173,66,o),
(163,79,c),
(201,261,ls),
(218,343,o),
(274,471,o),
(326,471,cs),
(356,471,o),
(365,424,o),
(365,376,cs),
(365,259,o),
(306,49,o),
(218,49,cs)
);
}
);
width = 512;
},
{
anchors = (
{
name = bottom;
pos = (164,-240);
},
{
name = center;
pos = (238,265);
},
{
name = top;
pos = (379,770);
}
);
layerId = "081AFB27-5722-432A-9779-C9794386CEF1";
shapes = (
{
closed = 1;
nodes = (
(-51,-240,l),
(206,-240,l),
(215,-183,l),
(165,-183,ls),
(143,-183,o),
(135,-173,o),
(135,-156,cs),
(135,-136,o),
(138,-121,o),
(141,-104,cs),
(156,-35,ls),
(160,-19,o),
(163,2,o),
(164,13,c),
(182,-5,o),
(214,-8,o),
(245,-8,cs),
(422,-8,o),
(527,221,o),
(527,377,cs),
(527,486,o),
(474,546,o),
(400,546,cs),
(312,546,o),
(287,490,o),
(263,441,c),
(255,441,l),
(265,470,o),
(281,531,o),
(285,559,cs),
(293,600,ls),
(306,676,o),
(316,706,o),
(339,706,cs),
(366,706,o),
(363,675,o),
(361,607,c),
(440,607,o),
(481,635,o),
(481,689,cs),
(481,731,o),
(448,770,o),
(348,770,cs),
(216,770,o),
(146,699,o),
(117,555,cs)
);
},
{
closed = 1;
nodes = (
(217,61,o),
(196,75,o),
(186,86,c),
(222,261,ls),
(238,339,o),
(286,460,o),
(332,460,cs),
(359,460,o),
(367,416,o),
(367,370,cs),
(367,260,o),
(314,61,o),
(237,61,cs)
);
}
);
width = 543;
}
);
script = latin;
subCategory = Lowercase;
unicode = 421;
}
{
category = Letter;
glyphname = eshreversedloop;
layers = (
{
anchors = (
{
name = bottom;
pos = (1,-240);
},
{
name = center;
pos = (125,263);
},
{
name = top;
pos = (215,765);
}
);
layerId = "A783126C-D342-49FA-8B69-0453AD03268C";
shapes = (
{
closed = 1;
nodes = (
(141,-240,o),
(166,-223,o),
(194,-198,c),
(178,-180,l),
(149,-205,o),
(130,-215,o),
(107,-215,cs),
(77,-215,o),
(67,-189,o),
(67,-147,cs),
(67,-115,o),
(77,-68,o),
(85,-29,cs),
(200,530,ls),
(210,578,o),
(229,639,o),
(229,673,cs),
(229,731,o),
(193,766,o),
(139,766,cs),
(70,766,o),
(21,707,o),
(21,630,cs),
(21,572,o),
(63,538,o),
(116,538,cs),
(140,538,o),
(162,545,o),
(177,557,c),
(57,-29,ls),
(48,-74,o),
(39,-116,o),
(39,-147,cs),
(39,-210,o),
(60,-240,o),
(103,-240,cs)
);
},
{
closed = 1;
nodes = (
(80,563,o),
(49,588,o),
(49,630,cs),
(49,693,o),
(86,741,o),
(139,741,cs),
(175,741,o),
(201,716,o),
(201,673,cs),
(201,614,o),
(176,563,o),
(116,563,cs)
);
}
);
width = 264;
},
{
anchors = (
{
name = bottom;
pos = (39,-240);
},
{
name = center;
pos = (144,262);
},
{
name = top;
pos = (253,765);
}
);
layerId = UUID0;
shapes = (
{
closed = 1;
nodes = (
(192,-240,o),
(230,-222,o),
(270,-194,c),
(253,-157,l),
(229,-169,o),
(203,-177,o),
(178,-177,cs),
(145,-177,o),
(125,-161,o),
(125,-122,cs),
(125,-101,o),
(130,-69,o),
(137,-36,cs),
(263,559,ls),
(270,592,o),
(275,621,o),
(275,649,cs),
(275,710,o),
(241,765,o),
(152,765,cs),
(67,765,o),
(13,711,o),
(13,638,cs),
(13,573,o),
(43,532,o),
(110,532,cs),
(129,532,o),
(153,536,o),
(166,543,c),
(43,-39,l),
(38,-64,o),
(33,-99,o),
(33,-123,cs),
(33,-202,o),
(70,-240,o),
(134,-240,cs)
);
},
{
closed = 1;
nodes = (
(83,582,o),
(67,605,o),
(67,638,cs),
(67,682,o),
(92,714,o),
(137,714,cs),
(170,714,o),
(190,690,o),
(190,657,cs),
(190,611,o),
(161,582,o),
(120,582,cs)
);
}
);
width = 294;
},
{
anchors = (
{
name = bottom;
pos = (73,-240);
},
{
name = center;
pos = (163,262);
},
{
name = top;
pos = (287,765);
}
);
layerId = "0748FCBA-26BB-4096-A322-99C7EC440251";
shapes = (
{
closed = 1;
nodes = (
(248,-240,o),
(286,-222,o),
(326,-194,c),
(309,-150,l),
(285,-162,o),
(266,-170,o),
(241,-170,cs),
(208,-170,o),
(180,-154,o),
(180,-115,cs),
(180,-94,o),
(186,-70,o),
(193,-36,cs),
(311,517,ls),
(319,553,o),
(323,586,o),
(323,616,cs),
(323,701,o),
(280,765,o),
(156,765,cs),
(65,765,o),
(1,724,o),
(1,638,cs),
(1,573,o),
(38,528,o),
(105,528,cs),
(124,528,o),
(148,532,o),
(161,539,c),
(44,-15,l),
(38,-45,o),
(33,-77,o),
(33,-106,cs),
(33,-179,o),
(64,-240,o),
(188,-240,cs)
);
},
{
closed = 1;
nodes = (
(87,589,o),
(69,607,o),
(69,643,cs),
(69,683,o),
(92,707,o),
(132,707,cs),
(162,707,o),
(180,686,o),
(180,656,cs),
(180,615,o),
(157,589,o),
(120,589,cs)
);
}
);
width = 361;
},
{
anchors = (
{
name = bottom;
pos = (97,-240);
},
{
name = center;
pos = (179,262);
},
{
name = top;
pos = (311,765);
}
);
layerId = "EFE4222C-09E4-4728-8E05-7459D7542305";
shapes = (
{
closed = 1;
nodes = (
(284,-240,o),
(324,-222,o),
(367,-194,c),
(350,-145,l),
(326,-157,o),
(307,-165,o),
(282,-165,cs),
(249,-165,o),
(221,-149,o),
(221,-110,cs),
(221,-89,o),
(227,-71,o),
(234,-36,cs),
(347,486,ls),
(355,524,o),
(359,560,o),
(359,592,cs),
(359,694,o),
(309,765,o),
(159,765,cs),
(64,765,o),
(-8,734,o),
(-8,638,cs),
(-8,573,o),
(34,525,o),
(101,525,cs),
(120,525,o),
(144,529,o),
(157,536,c),
(45,3,ls),
(38,-31,o),
(33,-61,o),
(33,-93,cs),
(33,-162,o),
(59,-240,o),
(211,-240,cs)
);
},
{
closed = 1;
nodes = (
(89,594,o),
(70,608,o),
(70,647,cs),
(70,684,o),
(92,702,o),
(128,702,cs),
(156,702,o),
(172,683,o),
(172,655,cs),
(172,618,o),
(154,594,o),
(120,594,cs)
);
}
);
width = 410;
},
{
anchors = (
{
name = bottom;
pos = (-12,-240);
},
{
name = center;
pos = (95,262);
},
{
name = top;
pos = (202,765);
}
);
layerId = "9563C917-11DF-412F-BB09-FC0C1CFFA48C";
shapes = (
{
closed = 1;
nodes = (
(79,-240,o),
(108,-225,o),
(127,-200,c),
(112,-183,l),
(99,-199,o),
(77,-215,o),
(58,-215,cs),
(41,-215,o),
(23,-204,o),
(23,-168,cs),
(23,-130,o),
(29,-95,o),
(39,-48,cs),
(193,666,ls),
(194,675,o),
(195,683,o),
(195,692,cs),
(195,736,o),
(171,764,o),
(132,764,cs),
(75,764,o),
(40,706,o),
(40,646,cs),
(40,603,o),
(63,575,o),
(103,575,cs),
(120,575,o),
(135,581,o),
(149,596,c),
(11,-48,ls),
(1,-95,o),
(-5,-130,o),
(-5,-168,cs),
(-5,-221,o),
(23,-240,o),
(56,-240,cs)
);
},
{
closed = 1;
nodes = (
(77,600,o),
(65,620,o),
(65,650,cs),
(65,695,o),
(87,739,o),
(129,739,cs),
(157,739,o),
(167,718,o),
(167,690,cs),
(167,649,o),
(147,600,o),
(106,600,cs)
);
}
);
width = 194;
},
{
anchors = (
{
name = bottom;
pos = (17,-240);
},
{
name = center;
pos = (141,262);
},
{
name = top;
pos = (231,765);
}
);
layerId = "44BFC83C-08F8-422F-A73E-536514612562";
shapes = (
{
closed = 1;
nodes = (
(156,-240,o),
(187,-220,o),
(219,-191,c),
(207,-155,l),
(186,-172,o),
(165,-183,o),
(146,-183,cs),
(123,-183,o),
(109,-168,o),
(109,-129,cs),
(109,-106,o),
(114,-72,o),
(122,-36,cs),
(247,562,ls),
(254,596,o),
(260,626,o),
(260,653,cs),
(260,715,o),
(228,765,o),
(153,765,cs),
(80,765,o),
(33,707,o),
(33,631,cs),
(33,570,o),
(61,533,o),
(111,533,cs),
(126,533,o),
(145,537,o),
(155,544,c),
(36,-15,ls),
(28,-50,o),
(22,-97,o),
(22,-132,cs),
(22,-213,o),
(54,-240,o),
(110,-240,cs)
);
},
{
closed = 1;
nodes = (
(94,582,o),
(82,602,o),
(82,635,cs),
(82,682,o),
(102,717,o),
(139,717,cs),
(164,717,o),
(178,696,o),
(178,663,cs),
(178,613,o),
(155,582,o),
(121,582,cs)
);
}
);
width = 250;
},
{
anchors = (
{
name = bottom;
pos = (44,-240);
},
{
name = center;
pos = (159,262);
},
{
name = top;
pos = (258,765);
}
);
layerId = "50C02CB6-129D-4BF7-ADB7-784B68302109";
shapes = (
{
closed = 1;
nodes = (
(198,-240,o),
(230,-221,o),
(265,-193,c),
(253,-151,l),
(232,-165,o),
(215,-175,o),
(195,-175,cs),
(171,-175,o),
(151,-159,o),
(151,-122,cs),
(151,-99,o),
(157,-73,o),
(165,-36,cs),
(283,521,ls),
(290,556,o),
(296,590,o),
(296,620,cs),
(296,709,o),
(255,765,o),
(157,765,cs),
(80,765,o),
(24,718,o),
(24,631,cs),
(24,571,o),
(55,530,o),
(106,530,cs),
(121,530,o),
(141,534,o),
(151,541,c),
(36,-4,ls),
(29,-37,o),
(23,-75,o),
(22,-108,cs),
(22,-203,o),
(61,-240,o),
(144,-240,cs)
);
},
{
closed = 1;
nodes = (
(96,587,o),
(82,604,o),
(82,638,cs),
(82,682,o),
(102,710,o),
(134,710,cs),
(158,710,o),
(171,690,o),
(171,661,cs),
(171,617,o),
(152,587,o),
(121,587,cs)
);
}
);
width = 303;
},
{
anchors = (
{
name = bottom;
pos = (64,-240);
},
{
name = center;
pos = (170,262);
},
{
name = top;
pos = (278,765);
}
);
layerId = "081AFB27-5722-432A-9779-C9794386CEF1";
shapes = (
{
closed = 1;
nodes = (
(230,-240,o),
(264,-222,o),
(300,-194,c),
(288,-148,l),
(268,-160,o),
(253,-168,o),
(232,-168,cs),
(207,-168,o),
(184,-152,o),
(184,-116,cs),
(184,-94,o),
(190,-74,o),
(198,-36,cs),
(310,490,ls),
(318,526,o),
(323,562,o),
(324,595,cs),
(324,704,o),
(276,765,o),
(160,765,cs),
(80,765,o),
(17,727,o),
(17,632,cs),
(17,571,o),
(50,527,o),
(103,527,cs),
(118,527,o),
(138,531,o),
(148,538,c),
(36,5,ls),
(29,-27,o),
(24,-58,o),
(23,-90,cs),
(23,-195,o),
(66,-240,o),
(170,-240,cs)
);
},
{
closed = 1;
nodes = (
(97,591,o),
(83,606,o),
(83,641,cs),
(83,682,o),
(102,705,o),
(131,705,cs),
(153,705,o),
(165,686,o),
(165,659,cs),
(165,620,o),
(150,591,o),
(121,591,cs)
);
}
);
width = 344;
}
);
script = latin;
subCategory = Lowercase;
unicode = 426;
}
